<svg xmlns="http://www.w3.org/2000/svg" xmlns:xlink="http://www.w3.org/1999/xlink" width="663.104" height="205.025" viewBox="0 0 663.104 205.025">
  <defs>
    <clipPath id="clip-path">
      <rect id="Rectangle_28" data-name="Rectangle 28" width="45.035" height="45.935" fill="none"/>
    </clipPath>
    <clipPath id="clip-path-2">
      <rect id="Rectangle_31" data-name="Rectangle 31" width="49.088" height="42.332" fill="none"/>
    </clipPath>
    <clipPath id="clip-path-3">
      <rect id="Rectangle_33" data-name="Rectangle 33" width="39.18" height="46.386" fill="none"/>
    </clipPath>
    <clipPath id="clip-path-4">
      <rect id="Rectangle_36" data-name="Rectangle 36" width="44.134" height="44.134" fill="none"/>
    </clipPath>
    <clipPath id="clip-path-5">
      <rect id="Rectangle_38" data-name="Rectangle 38" width="43.684" height="45.035" fill="none"/>
    </clipPath>
    <clipPath id="clip-path-6">
      <rect id="Rectangle_40" data-name="Rectangle 40" width="45.035" height="45.035" fill="none"/>
    </clipPath>
    <clipPath id="clip-path-7">
      <rect id="Rectangle_46" data-name="Rectangle 46" width="43.684" height="46.836" fill="none"/>
    </clipPath>
    <clipPath id="clip-path-8">
      <rect id="Rectangle_48" data-name="Rectangle 48" width="32.875" height="44.134" fill="none"/>
    </clipPath>
    <clipPath id="clip-path-9">
      <rect id="Rectangle_50" data-name="Rectangle 50" width="37.829" height="37.829" fill="none"/>
    </clipPath>
    <clipPath id="clip-path-10">
      <rect id="Rectangle_52" data-name="Rectangle 52" width="33.776" height="42.332" fill="none"/>
    </clipPath>
    <clipPath id="clip-path-11">
      <rect id="Rectangle_54" data-name="Rectangle 54" width="37.379" height="46.836" fill="none"/>
    </clipPath>
    <clipPath id="clip-path-12">
      <rect id="Rectangle_56" data-name="Rectangle 56" width="45.935" height="45.935" fill="none"/>
    </clipPath>
  </defs>
  <g id="Group_139" data-name="Group 139" transform="translate(-1746.021 -1572.58)">
    <g id="Group_51" data-name="Group 51" transform="translate(1766.601 1698.226)">
      <g id="Group_50" data-name="Group 50" transform="translate(0 0)" clip-path="url(#clip-path)">
        <g id="Group_48" data-name="Group 48" transform="translate(27.289 27.357)">
          <path id="Path_144" data-name="Path 144" d="M1855.446,1912.327a3.146,3.146,0,1,1-3.13,3.146,3.154,3.154,0,0,1,3.13-3.146m0,1.323a1.835,1.835,0,0,0-1.814,1.823,1.814,1.814,0,1,0,3.627,0,1.835,1.835,0,0,0-1.813-1.823" transform="translate(-1852.316 -1912.327)" fill="#325358"/>
        </g>
        <g id="Group_49" data-name="Group 49" transform="translate(0 0)">
          <path id="Path_145" data-name="Path 145" d="M1836.755,1851.58v45.935h-5.079v-4.265h-34.835v4.265h-5.121V1851.58h5.121v2.522h34.876v-2.522Zm-3.763,1.293v43.319h2.447v-43.319Zm-39.956,0v43.319h2.488v-43.319Zm38.639,2.552h-34.835v2.5h34.835Zm0,3.824h-8.884V1875.4a6.683,6.683,0,1,1-1.316,0v-16.146h-10.693v21.6h1.152a.686.686,0,0,1,.658.662v3.8a.685.685,0,0,1-.658.661h-12.092a.685.685,0,0,1-.658-.661v-3.8a.686.686,0,0,1,.658-.662h1.111v-21.6h-4.113v32.685l34.835-.021Zm-22.209,0h-7.2v21.6h7.2Zm12.668,17.428a5.406,5.406,0,1,0,5.388,5.4,5.363,5.363,0,0,0-5.388-5.4m-10.858,5.5H1800.5v2.48h10.775Z" transform="translate(-1791.72 -1851.58)" fill="#325358"/>
        </g>
      </g>
    </g>
    <g id="Group_52" data-name="Group 52" transform="translate(1766.601 1698.226)">
      <rect id="Rectangle_29" data-name="Rectangle 29" width="45.035" height="45.935" transform="translate(0 0)" fill="none"/>
    </g>
    <g id="Group_53" data-name="Group 53" transform="translate(2111.567 1700.028)">
      <path id="Path_146" data-name="Path 146" d="M2567.227,1863.409h1.214v2.03h-1.214Zm5.772,0h18.53v2.03H2573Zm23.089,0h1.213v2.03h-1.213Zm-26.388-1.644h2.039v5.317H2569.7Zm23.089,0h2.038v5.317h-2.038Zm-33.809-3.286h2.863v11.067h-2.863Zm43.7,0h2.862v11.067h-2.862Zm-39.581-1.643h2.862v14.353H2563.1Zm35.458,0h2.863v14.353h-2.863Zm-1.261-1.256v6.572h-1.213v-1.643h-4.559v1.643H2573v-1.643h-4.559v1.643h-1.214v-6.572h-5.383v1.643h-4.123V1870.8h4.123v1.643h5.383v-5.75h1.214v1.643h1.65v29.575h1.259v-29.575H2573v-1.643h18.53v1.643h1.649v29.575h1.261v-29.575h1.649v-1.643h1.213v5.75h5.379l0-1.643h4.123v-13.578h-4.123l0-1.643Z" transform="translate(-2557.721 -1855.58)" fill="#325358"/>
    </g>
    <g id="Group_54" data-name="Group 54" transform="translate(2111.566 1700.028)">
      <rect id="Rectangle_30" data-name="Rectangle 30" width="49.088" height="42.332" transform="translate(0)" fill="none"/>
    </g>
    <g id="Group_57" data-name="Group 57" transform="translate(2111.566 1700.028)">
      <g id="Group_56" data-name="Group 56" transform="translate(0)" clip-path="url(#clip-path-2)">
        <g id="Group_55" data-name="Group 55" transform="translate(15.687 27.11)">
          <path id="Path_147" data-name="Path 147" d="M2608.637,1922.158v-1.927l.128-.047a2.271,2.271,0,0,0,1.365-2.909,2.288,2.288,0,0,0-2.125-1.5h-13.192a2.27,2.27,0,0,0-.759,4.406l.128.047v1.927a.629.629,0,0,0,.63.628h.194V1931h1.261v-.821h10.284V1931h1.26v-8.216h.194a.629.629,0,0,0,.631-.628m-2.085,6.766h-10.284v-6.138h10.284Zm.824-7.394h-11.934v-1.209h11.934Zm-12.563-2.465a1.015,1.015,0,1,1,0-2.031h13.193a1.015,1.015,0,1,1,0,2.031Z" transform="translate(-2592.553 -1915.779)" fill="#325358"/>
        </g>
      </g>
    </g>
    <g id="Group_58" data-name="Group 58" transform="translate(2111.566 1700.028)">
      <rect id="Rectangle_32" data-name="Rectangle 32" width="49.088" height="42.332" transform="translate(0)" fill="none"/>
    </g>
    <g id="Group_61" data-name="Group 61" transform="translate(2349.799 1697.776)">
      <g id="Group_60" data-name="Group 60" transform="translate(0 0)" clip-path="url(#clip-path-3)">
        <g id="Group_59" data-name="Group 59" transform="translate(0 0)">
          <path id="Path_148" data-name="Path 148" d="M3121.162,1871.469a8.042,8.042,0,0,0-3.14-10.436,8.3,8.3,0,0,0-4.056-1.168c.013-.057.024-.114.035-.17s.019-.115.028-.172l.023-.16c.017-.115.035-.229.045-.345.023-.237.037-.478.037-.721a7.826,7.826,0,0,0-15.65,0c0,.244.014.484.036.721.011.114.028.224.044.337l.023.157c.009.063.019.123.029.181s.022.116.035.173a8.161,8.161,0,0,0-8.011,8.08,8.009,8.009,0,0,0,.816,3.525,9.969,9.969,0,0,0-3.551,13.187,10.176,10.176,0,0,0,8.99,5.332h8.647v6.979h1.533v-6.979h8.646a10.182,10.182,0,0,0,7.2-2.939,9.95,9.95,0,0,0-1.757-15.579m.674,14.511a8.649,8.649,0,0,1-6.113,2.5h-8.646v-3.528l8.346-6.734-.971-1.168-7.375,5.95v-12.753l5.222-4.414-1-1.147-4.224,3.572v-7.638h-1.533v12.225l-6.565-5.826-1.024,1.123,7.59,6.735v13.6H3096.9a8.645,8.645,0,0,1-7.638-4.529,8.475,8.475,0,0,1,3.585-11.527l.716-.375-.42-.683a6.525,6.525,0,0,1-.966-3.418,6.64,6.64,0,0,1,6.682-6.573,7.1,7.1,0,0,1,.737.042l1.221.134-.417-1.14c-.058-.159-.11-.322-.156-.485l-.014-.061c-.039-.146-.075-.292-.1-.447-.008-.038-.012-.076-.018-.115l-.025-.172c-.014-.084-.026-.167-.035-.251-.017-.191-.029-.385-.029-.581a6.294,6.294,0,0,1,12.587,0c0,.2-.012.39-.031.582-.008.087-.021.172-.034.257l-.044.284c-.027.151-.063.3-.1.443l-.014.061c-.046.163-.1.325-.157.483l-.42,1.143,1.224-.134a7.127,7.127,0,0,1,.744-.042,6.752,6.752,0,0,1,3.459.952,6.536,6.536,0,0,1,2.251,9.039l-.419.683.716.375a8.458,8.458,0,0,1,2.06,13.559" transform="translate(-3086.721 -1850.58)" fill="#325358"/>
        </g>
      </g>
    </g>
    <g id="Group_62" data-name="Group 62" transform="translate(2349.799 1697.776)">
      <rect id="Rectangle_34" data-name="Rectangle 34" width="39.18" height="46.386" transform="translate(0 0)" fill="none"/>
    </g>
    <g id="Group_63" data-name="Group 63" transform="translate(1761.783 1629.813)">
      <path id="Path_149" data-name="Path 149" d="M1781.021,1700.944v-1.276h5.784v1.276h-2.2v5.89h-1.382v-5.89Z" transform="translate(-1781.021 -1699.668)" fill="#2d5b60"/>
      <path id="Path_150" data-name="Path 150" d="M1801.333,1702.525v1.171h-2.81v1.827h3.536v1.311h-4.918v-7.166h4.918v1.312h-3.536v1.545Z" transform="translate(-1789.882 -1699.668)" fill="#2d5b60"/>
      <path id="Path_151" data-name="Path 151" d="M1815.97,1703.778l1.768,3.056h-1.6l-1.557-2.845h-1.183v2.845h-1.382v-7.166h3.127a2.1,2.1,0,0,1,2.131,2.166A2.037,2.037,0,0,1,1815.97,1703.778Zm-1.007-2.951h-1.569v2.026h1.581a.983.983,0,0,0,.948-1.019A1,1,0,0,0,1814.963,1700.827Z" transform="translate(-1798.055 -1699.668)" fill="#2d5b60"/>
      <path id="Path_152" data-name="Path 152" d="M1832.4,1703.778l1.768,3.056h-1.6l-1.557-2.845h-1.183v2.845h-1.382v-7.166h3.126a2.1,2.1,0,0,1,2.131,2.166A2.037,2.037,0,0,1,1832.4,1703.778Zm-1.007-2.951h-1.569v2.026h1.581a.983.983,0,0,0,.949-1.019A1,1,0,0,0,1831.395,1700.827Z" transform="translate(-1807.088 -1699.668)" fill="#2d5b60"/>
      <path id="Path_153" data-name="Path 153" d="M1848.333,1699.668l2.213,7.166h-1.393l-.574-1.721h-2.412l-.562,1.721H1844.2l2.213-7.166Zm-1.838,4.192h1.756l-.878-2.846Z" transform="translate(-1815.748 -1699.668)" fill="#2d5b60"/>
      <path id="Path_154" data-name="Path 154" d="M1866.99,1700.944l-3.583,4.625h3.583v1.265h-5.421v-1.265l3.642-4.625h-3.466v-1.276h5.246Z" transform="translate(-1825.294 -1699.668)" fill="#2d5b60"/>
      <path id="Path_155" data-name="Path 155" d="M1881.015,1699.668l2.213,7.166h-1.393l-.574-1.721h-2.412l-.562,1.721h-1.405l2.213-7.166Zm-1.838,4.192h1.757l-.878-2.846Z" transform="translate(-1833.712 -1699.668)" fill="#2d5b60"/>
    </g>
    <g id="Group_64" data-name="Group 64" transform="translate(1875.721 1629.685)">
      <path id="Path_156" data-name="Path 156" d="M2038.154,1699.668l2.213,7.166h-1.394l-.573-1.721h-2.412l-.562,1.721h-1.405l2.213-7.166Zm-1.838,4.192h1.757l-.878-2.846Z" transform="translate(-2034.021 -1699.539)" fill="#2d5b60"/>
      <path id="Path_157" data-name="Path 157" d="M2054.972,1705.523v1.311h-3.583v-7.166h1.37v5.854Z" transform="translate(-2043.568 -1699.539)" fill="#2d5b60"/>
      <path id="Path_158" data-name="Path 158" d="M2067.477,1702.912a1.8,1.8,0,0,1,1.17,1.756c0,1.581-1.183,2.166-2.6,2.166H2063.3v-7.166h2.659a1.9,1.9,0,0,1,1.522,3.244Zm-1.64-2.166h-1.159v1.733h1.042c.586,0,1.03-.258,1.03-.9A.834.834,0,0,0,2065.837,1700.745Zm.41,2.869h-1.569v2.119h1.569a1.044,1.044,0,0,0,.983-1.054A1.031,1.031,0,0,0,2066.247,1703.614Z" transform="translate(-2050.112 -1699.539)" fill="#2d5b60"/>
      <path id="Path_159" data-name="Path 159" d="M2083.088,1702.525v1.171h-2.81v1.827h3.536v1.311H2078.9v-7.166h4.918v1.312h-3.536v1.545Z" transform="translate(-2058.687 -1699.539)" fill="#2d5b60"/>
      <path id="Path_160" data-name="Path 160" d="M2097.726,1703.778l1.768,3.056h-1.6l-1.557-2.845h-1.183v2.845h-1.382v-7.166h3.126a2.1,2.1,0,0,1,2.131,2.166A2.036,2.036,0,0,1,2097.726,1703.778Zm-1.007-2.951h-1.569v2.026h1.581a.983.983,0,0,0,.948-1.019A1,1,0,0,0,2096.719,1700.827Z" transform="translate(-2066.861 -1699.539)" fill="#2d5b60"/>
      <path id="Path_161" data-name="Path 161" d="M2114.418,1700.143l-.562,1.159a2.578,2.578,0,0,0-1.546-.585,2.371,2.371,0,0,0,0,4.73,2.577,2.577,0,0,0,1.546-.585l.562,1.171a3.659,3.659,0,0,1-2.213.75,3.705,3.705,0,0,1,0-7.4A3.572,3.572,0,0,1,2114.418,1700.143Z" transform="translate(-2075.064 -1699.382)" fill="#2d5b60"/>
      <path id="Path_162" data-name="Path 162" d="M2126.6,1699.668l2.213,7.166h-1.394l-.573-1.721h-2.413l-.562,1.721h-1.405l2.213-7.166Zm-1.838,4.192h1.757l-.878-2.846Z" transform="translate(-2082.639 -1699.539)" fill="#2d5b60"/>
      <path id="Path_163" data-name="Path 163" d="M2151.929,1699.668l-2.448,4v3.161h-1.37v-3.161l-2.447-4h1.4l1.733,2.763,1.721-2.763Z" transform="translate(-2095.386 -1699.539)" fill="#2d5b60"/>
    </g>
    <g id="Group_65" data-name="Group 65" transform="translate(1861.509 1640.493)">
      <path id="Path_164" data-name="Path 164" d="M2008.189,1724.143l-.562,1.16a2.574,2.574,0,0,0-1.545-.585,2.371,2.371,0,0,0,0,4.73,2.576,2.576,0,0,0,1.545-.585l.562,1.171a3.66,3.66,0,0,1-2.213.749,3.705,3.705,0,0,1,0-7.4A3.57,3.57,0,0,1,2008.189,1724.143Z" transform="translate(-2002.463 -1723.382)" fill="#2d5b60"/>
      <path id="Path_165" data-name="Path 165" d="M2022.881,1726.361v-2.693h1.37v7.166h-1.37v-3.161h-2.786v3.161h-1.382v-7.166h1.382v2.693Z" transform="translate(-2011.395 -1723.539)" fill="#2d5b60"/>
      <path id="Path_166" data-name="Path 166" d="M2038.42,1723.668l2.213,7.166h-1.393l-.574-1.721h-2.412l-.562,1.721h-1.4l2.213-7.166Zm-1.838,4.192h1.757l-.878-2.846Z" transform="translate(-2019.956 -1723.539)" fill="#2d5b60"/>
      <path id="Path_167" data-name="Path 167" d="M2054.758,1728.434h-1.721v2.4h-1.382v-7.166h3.1a2.3,2.3,0,0,1,2.154,2.389A2.339,2.339,0,0,1,2054.758,1728.434Zm-.152-3.454h-1.569v2.143h1.569a1.031,1.031,0,0,0,.984-1.066A1.065,1.065,0,0,0,2054.606,1724.979Z" transform="translate(-2029.502 -1723.539)" fill="#2d5b60"/>
      <path id="Path_168" data-name="Path 168" d="M2072.12,1727.108c0,1.979-1.171,3.7-3.29,3.7s-3.29-1.721-3.29-3.7c0-1.956,1.206-3.7,3.29-3.7S2072.12,1725.152,2072.12,1727.108Zm-5.082,0c0,1.147.422,2.494,1.792,2.494,1.393,0,1.791-1.335,1.791-2.494,0-1.124-.445-2.471-1.791-2.471S2067.038,1725.984,2067.038,1727.108Z" transform="translate(-2037.133 -1723.396)" fill="#2d5b60"/>
      <path id="Path_169" data-name="Path 169" d="M2081.919,1724.944v-1.276h5.784v1.276h-2.2v5.89h-1.382v-5.89Z" transform="translate(-2046.136 -1723.539)" fill="#2d5b60"/>
      <path id="Path_170" data-name="Path 170" d="M2102.231,1726.525v1.17h-2.81v1.827h3.536v1.312h-4.918v-7.166h4.918v1.311h-3.536v1.546Z" transform="translate(-2054.997 -1723.539)" fill="#2d5b60"/>
      <path id="Path_171" data-name="Path 171" d="M2116.368,1723.668l2.213,7.166h-1.394l-.574-1.721H2114.2l-.563,1.721h-1.405l2.213-7.166Zm-1.839,4.192h1.756l-.878-2.846Z" transform="translate(-2062.8 -1723.539)" fill="#2d5b60"/>
      <path id="Path_172" data-name="Path 172" d="M2131.909,1730.834H2129.6v-7.166h2.307a3.2,3.2,0,0,1,3.4,3.536A3.412,3.412,0,0,1,2131.909,1730.834Zm-.2-5.854h-.726v4.543h.726a2.055,2.055,0,0,0,2.1-2.318A1.94,1.94,0,0,0,2131.71,1724.979Z" transform="translate(-2072.346 -1723.539)" fill="#2d5b60"/>
      <path id="Path_173" data-name="Path 173" d="M2150.174,1726.525v1.17h-2.81v1.827h3.536v1.312h-4.918v-7.166h4.918v1.311h-3.536v1.546Z" transform="translate(-2081.349 -1723.539)" fill="#2d5b60"/>
      <path id="Path_174" data-name="Path 174" d="M2164.812,1727.778l1.768,3.056h-1.6l-1.558-2.845h-1.183v2.845h-1.382v-7.166h3.126a2.1,2.1,0,0,1,2.131,2.166A2.037,2.037,0,0,1,2164.812,1727.778Zm-1.007-2.951h-1.569v2.026h1.581a.983.983,0,0,0,.948-1.019A1,1,0,0,0,2163.805,1724.827Z" transform="translate(-2089.523 -1723.539)" fill="#2d5b60"/>
      <path id="Path_175" data-name="Path 175" d="M2182.358,1727.108c0,1.979-1.171,3.7-3.291,3.7s-3.29-1.721-3.29-3.7c0-1.956,1.206-3.7,3.29-3.7S2182.358,1725.152,2182.358,1727.108Zm-5.082,0c0,1.147.422,2.494,1.791,2.494,1.394,0,1.792-1.335,1.792-2.494,0-1.124-.445-2.471-1.792-2.471S2177.276,1725.984,2177.276,1727.108Z" transform="translate(-2097.726 -1723.396)" fill="#2d5b60"/>
    </g>
    <g id="Group_66" data-name="Group 66" transform="translate(1989.407 1629.685)">
      <path id="Path_176" data-name="Path 176" d="M2292.189,1700.143l-.562,1.159a2.578,2.578,0,0,0-1.546-.585,2.371,2.371,0,0,0,0,4.73,2.576,2.576,0,0,0,1.546-.585l.562,1.171a3.66,3.66,0,0,1-2.213.75,3.705,3.705,0,0,1,0-7.4A3.573,3.573,0,0,1,2292.189,1700.143Z" transform="translate(-2286.463 -1699.382)" fill="#2d5b60"/>
      <path id="Path_177" data-name="Path 177" d="M2304.376,1699.668l2.213,7.166H2305.2l-.573-1.721h-2.412l-.562,1.721h-1.405l2.213-7.166Zm-1.838,4.192h1.756l-.878-2.846Z" transform="translate(-2294.037 -1699.539)" fill="#2d5b60"/>
      <path id="Path_178" data-name="Path 178" d="M2323.43,1699.668h1.289v7.166h-1.382v-5.2l-2.166,2.682-2.178-2.658v5.175h-1.381v-7.166h1.3l2.26,2.716Z" transform="translate(-2303.584 -1699.539)" fill="#2d5b60"/>
      <path id="Path_179" data-name="Path 179" d="M2340.8,1699.668l2.213,7.166h-1.394l-.574-1.721h-2.413l-.562,1.721h-1.405l2.213-7.166Zm-1.839,4.192h1.757l-.878-2.846Z" transform="translate(-2314.059 -1699.539)" fill="#2d5b60"/>
      <path id="Path_180" data-name="Path 180" d="M2355.578,1706.823a4.472,4.472,0,0,1-2.529-.738l.573-1.218a4.648,4.648,0,0,0,1.816.656,1.122,1.122,0,0,0,1.252-1.007c0-1.171-3.244-.808-3.244-2.986,0-1.487,1.183-2.1,2.529-2.1a3.23,3.23,0,0,1,2.084.656l-.445,1.03a2.758,2.758,0,0,0-1.487-.468c-.539,0-1.265.223-1.265.867,0,1.147,3.314.714,3.314,2.916A2.442,2.442,0,0,1,2355.578,1706.823Z" transform="translate(-2323.062 -1699.411)" fill="#2d5b60"/>
      <path id="Path_181" data-name="Path 181" d="M2366.724,1700.944v-1.276h5.785v1.276h-2.2v5.89h-1.382v-5.89Z" transform="translate(-2330.579 -1699.539)" fill="#2d5b60"/>
      <path id="Path_182" data-name="Path 182" d="M2386.8,1703.778l1.768,3.056h-1.6l-1.557-2.845h-1.182v2.845h-1.382v-7.166h3.126a2.1,2.1,0,0,1,2.131,2.166A2.037,2.037,0,0,1,2386.8,1703.778Zm-1.007-2.951h-1.569v2.026h1.581a.983.983,0,0,0,.948-1.019A1,1,0,0,0,2385.795,1700.827Z" transform="translate(-2339.439 -1699.539)" fill="#2d5b60"/>
      <path id="Path_183" data-name="Path 183" d="M2404.349,1703.108c0,1.979-1.171,3.7-3.291,3.7s-3.29-1.721-3.29-3.7c0-1.956,1.206-3.7,3.29-3.7S2404.349,1701.152,2404.349,1703.108Zm-5.082,0c0,1.147.421,2.494,1.791,2.494,1.394,0,1.792-1.335,1.792-2.494,0-1.124-.445-2.47-1.792-2.47S2399.267,1701.984,2399.267,1703.108Z" transform="translate(-2347.642 -1699.396)" fill="#2d5b60"/>
      <path id="Path_184" data-name="Path 184" d="M2417.612,1706.823a4.472,4.472,0,0,1-2.529-.738l.573-1.218a4.648,4.648,0,0,0,1.815.656,1.122,1.122,0,0,0,1.253-1.007c0-1.171-3.244-.808-3.244-2.986,0-1.487,1.183-2.1,2.529-2.1a3.231,3.231,0,0,1,2.085.656l-.445,1.03a2.761,2.761,0,0,0-1.487-.468c-.538,0-1.265.223-1.265.867,0,1.147,3.314.714,3.314,2.916A2.441,2.441,0,0,1,2417.612,1706.823Z" transform="translate(-2357.16 -1699.411)" fill="#2d5b60"/>
    </g>
    <g id="Group_67" data-name="Group 67" transform="translate(2126.867 1629.813)">
      <path id="Path_185" data-name="Path 185" d="M2595.877,1702.912a1.8,1.8,0,0,1,1.171,1.756c0,1.581-1.183,2.166-2.6,2.166H2591.7v-7.166h2.658a1.9,1.9,0,0,1,1.522,3.244Zm-1.639-2.166h-1.159v1.733h1.042c.585,0,1.03-.258,1.03-.9A.834.834,0,0,0,2594.238,1700.745Zm.41,2.869h-1.569v2.119h1.569a1.043,1.043,0,0,0,.983-1.054A1.031,1.031,0,0,0,2594.647,1703.614Z" transform="translate(-2591.696 -1699.668)" fill="#2d5b60"/>
      <path id="Path_186" data-name="Path 186" d="M2609.48,1699.668l2.213,7.166H2610.3l-.574-1.721h-2.411l-.562,1.721h-1.405l2.213-7.166Zm-1.838,4.192h1.757l-.878-2.846Z" transform="translate(-2599.2 -1699.668)" fill="#2d5b60"/>
      <path id="Path_187" data-name="Path 187" d="M2626.673,1703.778l1.768,3.056h-1.6l-1.557-2.845H2624.1v2.845h-1.382v-7.166h3.126a2.1,2.1,0,0,1,2.131,2.166A2.037,2.037,0,0,1,2626.673,1703.778Zm-1.007-2.951h-1.57v2.026h1.581a.983.983,0,0,0,.948-1.019A1,1,0,0,0,2625.666,1700.827Z" transform="translate(-2608.745 -1699.668)" fill="#2d5b60"/>
    </g>
    <g id="Group_68" data-name="Group 68" transform="translate(2237.997 1629.685)">
      <path id="Path_188" data-name="Path 188" d="M2844.189,1700.143l-.562,1.159a2.576,2.576,0,0,0-1.545-.585,2.371,2.371,0,0,0,0,4.73,2.574,2.574,0,0,0,1.545-.585l.562,1.171a3.659,3.659,0,0,1-2.213.75,3.705,3.705,0,0,1,0-7.4A3.571,3.571,0,0,1,2844.189,1700.143Z" transform="translate(-2838.463 -1699.382)" fill="#2d5b60"/>
      <path id="Path_189" data-name="Path 189" d="M2856.083,1706.834h-1.37v-7.166h1.37Z" transform="translate(-2847.395 -1699.539)" fill="#2d5b60"/>
      <path id="Path_190" data-name="Path 190" d="M2865.863,1704.352v-4.683h1.382v7.166h-1.393l-2.764-4.59v4.59h-1.382v-7.166h1.394Z" transform="translate(-2851.239 -1699.539)" fill="#2d5b60"/>
      <path id="Path_191" data-name="Path 191" d="M2882.148,1702.525v1.171h-2.811v1.827h3.537v1.311h-4.918v-7.166h4.918v1.312h-3.537v1.545Z" transform="translate(-2860.17 -1699.539)" fill="#2d5b60"/>
      <path id="Path_192" data-name="Path 192" d="M2902.786,1699.668l2.213,7.166H2903.6l-.573-1.721h-2.412l-.562,1.721h-1.405l2.213-7.166Zm-1.838,4.192h1.756l-.878-2.846Z" transform="translate(-2871.546 -1699.539)" fill="#2d5b60"/>
      <path id="Path_193" data-name="Path 193" d="M2919.6,1705.523v1.311h-3.583v-7.166h1.37v5.854Z" transform="translate(-2881.093 -1699.539)" fill="#2d5b60"/>
    </g>
    <g id="Group_69" data-name="Group 69" transform="translate(2229.242 1640.622)">
      <path id="Path_194" data-name="Path 194" d="M2823.155,1723.668l2.213,7.166h-1.393l-.574-1.721h-2.412l-.562,1.721h-1.405l2.213-7.166Zm-1.839,4.192h1.757l-.879-2.846Z" transform="translate(-2819.021 -1723.668)" fill="#2d5b60"/>
      <path id="Path_195" data-name="Path 195" d="M2837.759,1730.834h-1.37v-7.166h1.37Z" transform="translate(-2828.568 -1723.668)" fill="#2d5b60"/>
      <path id="Path_196" data-name="Path 196" d="M2847.341,1727.778l1.768,3.056h-1.6l-1.557-2.845h-1.183v2.845h-1.382v-7.166h3.126a2.1,2.1,0,0,1,2.131,2.166A2.037,2.037,0,0,1,2847.341,1727.778Zm-1.007-2.951h-1.569v2.026h1.581a.983.983,0,0,0,.948-1.019A1,1,0,0,0,2846.334,1724.827Z" transform="translate(-2832.412 -1723.668)" fill="#2d5b60"/>
      <path id="Path_197" data-name="Path 197" d="M2864.006,1726.525v1.17h-2.81v1.827h3.536v1.312h-4.918v-7.166h4.918v1.311H2861.2v1.546Z" transform="translate(-2841.443 -1723.668)" fill="#2d5b60"/>
      <path id="Path_198" data-name="Path 198" d="M2884.77,1729.522v1.312h-3.583v-7.166h1.37v5.854Z" transform="translate(-2853.19 -1723.668)" fill="#2d5b60"/>
      <path id="Path_199" data-name="Path 199" d="M2894.464,1730.834h-1.37v-7.166h1.37Z" transform="translate(-2859.736 -1723.668)" fill="#2d5b60"/>
      <path id="Path_200" data-name="Path 200" d="M2904.268,1726.911a1.8,1.8,0,0,1,1.171,1.756c0,1.581-1.183,2.166-2.6,2.166h-2.752v-7.166h2.658a1.9,1.9,0,0,1,1.522,3.243Zm-1.64-2.166h-1.159v1.733h1.042c.586,0,1.031-.257,1.031-.9A.834.834,0,0,0,2902.629,1724.745Zm.41,2.869h-1.569v2.119h1.569a1.044,1.044,0,0,0,.984-1.054A1.031,1.031,0,0,0,2903.039,1727.614Z" transform="translate(-2863.58 -1723.668)" fill="#2d5b60"/>
      <path id="Path_201" data-name="Path 201" d="M2919.646,1727.778l1.768,3.056h-1.6l-1.558-2.845h-1.182v2.845h-1.382v-7.166h3.126a2.1,2.1,0,0,1,2.131,2.166A2.037,2.037,0,0,1,2919.646,1727.778Zm-1.007-2.951h-1.568v2.026h1.581a.983.983,0,0,0,.948-1.019A1,1,0,0,0,2918.638,1724.827Z" transform="translate(-2872.155 -1723.668)" fill="#2d5b60"/>
      <path id="Path_202" data-name="Path 202" d="M2936.312,1726.525v1.17h-2.81v1.827h3.536v1.312h-4.918v-7.166h4.918v1.311H2933.5v1.546Z" transform="translate(-2881.186 -1723.668)" fill="#2d5b60"/>
    </g>
    <g id="Group_70" data-name="Group 70" transform="translate(1746.021 1756.983)">
      <path id="Path_203" data-name="Path 203" d="M1750.154,1984.581l2.213,7.166h-1.394l-.574-1.721h-2.412l-.562,1.721h-1.405l2.213-7.166Zm-1.838,4.192h1.757l-.878-2.846Zm.082-5.246.574-1.475h1.347l-.831,1.475Z" transform="translate(-1746.021 -1982.051)" fill="#2d5b60"/>
      <path id="Path_204" data-name="Path 204" d="M1767.347,1991.778l1.768,3.056h-1.6l-1.557-2.845h-1.183v2.845h-1.382v-7.166h3.126a2.1,2.1,0,0,1,2.131,2.167A2.037,2.037,0,0,1,1767.347,1991.778Zm-1.007-2.951h-1.569v2.026h1.581a.983.983,0,0,0,.948-1.019A1,1,0,0,0,1766.34,1988.827Z" transform="translate(-1755.568 -1985.138)" fill="#2d5b60"/>
      <path id="Path_205" data-name="Path 205" d="M1784.013,1990.525v1.17h-2.81v1.827h3.536v1.312h-4.918v-7.166h4.918v1.312H1781.2v1.546Z" transform="translate(-1764.599 -1985.138)" fill="#2d5b60"/>
      <path id="Path_206" data-name="Path 206" d="M1798.15,1987.668l2.213,7.166h-1.393l-.574-1.721h-2.412l-.562,1.721h-1.4l2.213-7.166Zm-1.839,4.192h1.757l-.878-2.845Z" transform="translate(-1772.402 -1985.138)" fill="#2d5b60"/>
      <path id="Path_207" data-name="Path 207" d="M1820.191,1994.834h-2.307v-7.166h2.307a3.2,3.2,0,0,1,3.4,3.536A3.412,3.412,0,0,1,1820.191,1994.834Zm-.2-5.854h-.726v4.543h.726a2.055,2.055,0,0,0,2.1-2.318A1.94,1.94,0,0,0,1819.992,1988.979Z" transform="translate(-1785.521 -1985.138)" fill="#2d5b60"/>
      <path id="Path_208" data-name="Path 208" d="M1838.456,1990.525v1.17h-2.81v1.827h3.536v1.312h-4.918v-7.166h4.918v1.312h-3.536v1.546Z" transform="translate(-1794.524 -1985.138)" fill="#2d5b60"/>
      <path id="Path_209" data-name="Path 209" d="M1857.677,1992.166v-4.473h1.37v3.619c0,1.581-.058,3.665-2.166,3.665a2.953,2.953,0,0,1-1.92-.691l.574-1.183a1.825,1.825,0,0,0,1.148.468C1857.478,1993.571,1857.677,1992.822,1857.677,1992.166Z" transform="translate(-1805.9 -1985.152)" fill="#2d5b60"/>
      <path id="Path_210" data-name="Path 210" d="M1867.674,1992.141v-4.473h1.346v4.473a1.365,1.365,0,1,0,2.717,0v-4.473h1.346v4.473a2.707,2.707,0,1,1-5.41,0Z" transform="translate(-1812.888 -1985.138)" fill="#2d5b60"/>
      <path id="Path_211" data-name="Path 211" d="M1887.673,1990.525v1.17h-2.81v1.827h3.536v1.312h-4.918v-7.166h4.918v1.312h-3.536v1.546Z" transform="translate(-1821.577 -1985.138)" fill="#2d5b60"/>
      <path id="Path_212" data-name="Path 212" d="M1901.54,1993.192V1991h1.37v2.939a3.421,3.421,0,0,1-2.142.866,3.7,3.7,0,1,1-.281-7.4,3.786,3.786,0,0,1,2.423.785l-.55,1.159a2.774,2.774,0,0,0-1.6-.609,2.367,2.367,0,0,0-2.4,2.365,2.238,2.238,0,0,0,2.413,2.365A1.1,1.1,0,0,0,1901.54,1993.192Z" transform="translate(-1828.922 -1984.995)" fill="#2d5b60"/>
      <path id="Path_213" data-name="Path 213" d="M1919.442,1991.108c0,1.979-1.171,3.7-3.29,3.7s-3.29-1.721-3.29-3.7c0-1.956,1.206-3.7,3.29-3.7S1919.442,1989.152,1919.442,1991.108Zm-5.082,0c0,1.147.422,2.494,1.792,2.494,1.394,0,1.792-1.335,1.792-2.494,0-1.124-.445-2.47-1.792-2.47S1914.36,1989.984,1914.36,1991.108Z" transform="translate(-1837.725 -1984.995)" fill="#2d5b60"/>
      <path id="Path_214" data-name="Path 214" d="M1932.732,1994.822a4.47,4.47,0,0,1-2.529-.738l.573-1.218a4.65,4.65,0,0,0,1.815.656,1.122,1.122,0,0,0,1.253-1.007c0-1.171-3.244-.808-3.244-2.986,0-1.488,1.183-2.1,2.53-2.1a3.228,3.228,0,0,1,2.084.656l-.445,1.03a2.761,2.761,0,0,0-1.487-.468c-.539,0-1.265.222-1.265.867,0,1.147,3.314.714,3.314,2.915A2.441,2.441,0,0,1,1932.732,1994.822Z" transform="translate(-1847.258 -1985.01)" fill="#2d5b60"/>
    </g>
    <g id="Group_71" data-name="Group 71" transform="translate(1761.187 1770.216)">
      <path id="Path_215" data-name="Path 215" d="M1781.067,2018.834h-1.37v-7.166h1.37Z" transform="translate(-1779.697 -2011.563)" fill="#2d5b60"/>
      <path id="Path_216" data-name="Path 216" d="M1790.848,2016.352v-4.684h1.382v7.166h-1.393l-2.764-4.59v4.59h-1.382v-7.166h1.394Z" transform="translate(-1783.541 -2011.563)" fill="#2d5b60"/>
      <path id="Path_217" data-name="Path 217" d="M1806.934,2014.525v1.311h-2.611v3h-1.382v-7.166h4.917v1.312h-3.536v1.546Z" transform="translate(-1792.473 -2011.563)" fill="#2d5b60"/>
      <path id="Path_218" data-name="Path 218" d="M1818.462,2011.668l2.213,7.166h-1.393l-.574-1.721H1816.3l-.562,1.721h-1.4l2.214-7.166Zm-1.838,4.192h1.756l-.878-2.846Z" transform="translate(-1798.732 -2011.563)" fill="#2d5b60"/>
      <path id="Path_219" data-name="Path 219" d="M1835.854,2016.352v-4.684h1.382v7.166h-1.394l-2.763-4.59v4.59H1831.7v-7.166h1.394Z" transform="translate(-1808.279 -2011.563)" fill="#2d5b60"/>
      <path id="Path_220" data-name="Path 220" d="M1847.271,2012.944v-1.276h5.784v1.276h-2.2v5.89h-1.382v-5.89Z" transform="translate(-1816.84 -2011.563)" fill="#2d5b60"/>
      <path id="Path_221" data-name="Path 221" d="M1864.76,2018.834h-1.37v-7.166h1.37Z" transform="translate(-1825.699 -2011.563)" fill="#2d5b60"/>
      <path id="Path_222" data-name="Path 222" d="M1873.968,2017.522v1.312h-3.583v-7.166h1.37v5.854Z" transform="translate(-1829.544 -2011.563)" fill="#2d5b60"/>
      <path id="Path_223" data-name="Path 223" d="M1886.484,2014.525v1.17h-2.811v1.827h3.536v1.312h-4.918v-7.166h4.918v1.312h-3.536v1.546Z" transform="translate(-1836.089 -2011.563)" fill="#2d5b60"/>
      <path id="Path_224" data-name="Path 224" d="M1898.705,2018.823a4.471,4.471,0,0,1-2.529-.738l.574-1.218a4.65,4.65,0,0,0,1.815.655,1.122,1.122,0,0,0,1.253-1.007c0-1.171-3.243-.808-3.243-2.986,0-1.488,1.183-2.1,2.529-2.1a3.229,3.229,0,0,1,2.084.656l-.445,1.03a2.759,2.759,0,0,0-1.487-.468c-.539,0-1.265.222-1.265.866,0,1.147,3.314.714,3.314,2.916A2.441,2.441,0,0,1,1898.705,2018.823Z" transform="translate(-1843.72 -2011.434)" fill="#2d5b60"/>
    </g>
    <g id="Group_72" data-name="Group 72" transform="translate(1879.973 1759.395)">
      <path id="Path_225" data-name="Path 225" d="M2048.158,1993.192V1991h1.37v2.939a3.423,3.423,0,0,1-2.143.866,3.7,3.7,0,1,1-.281-7.4,3.787,3.787,0,0,1,2.424.785l-.55,1.159a2.77,2.77,0,0,0-1.6-.609,2.367,2.367,0,0,0-2.4,2.365,2.237,2.237,0,0,0,2.412,2.365A1.108,1.108,0,0,0,2048.158,1993.192Z" transform="translate(-2043.463 -1987.407)" fill="#2d5b60"/>
      <path id="Path_226" data-name="Path 226" d="M2061.836,1994.834h-1.37v-7.166h1.37Z" transform="translate(-2052.809 -1987.55)" fill="#2d5b60"/>
      <path id="Path_227" data-name="Path 227" d="M2073.28,1987.668h1.288v7.166h-1.382v-5.2l-2.166,2.681-2.179-2.658v5.175h-1.382v-7.166h1.3l2.26,2.716Z" transform="translate(-2056.653 -1987.55)" fill="#2d5b60"/>
      <path id="Path_228" data-name="Path 228" d="M2091.351,1992.352v-4.684h1.382v7.166h-1.393l-2.763-4.59v4.59h-1.382v-7.166h1.393Z" transform="translate(-2067.5 -1987.55)" fill="#2d5b60"/>
      <path id="Path_229" data-name="Path 229" d="M2106.9,1987.668l2.213,7.166h-1.394l-.574-1.721h-2.412l-.562,1.721h-1.405l2.213-7.166Zm-1.839,4.192h1.757l-.878-2.845Z" transform="translate(-2076.06 -1987.55)" fill="#2d5b60"/>
      <path id="Path_230" data-name="Path 230" d="M2121.677,1994.822a4.472,4.472,0,0,1-2.529-.738l.574-1.218a4.645,4.645,0,0,0,1.815.656,1.122,1.122,0,0,0,1.253-1.007c0-1.171-3.243-.808-3.243-2.986,0-1.488,1.183-2.1,2.529-2.1a3.229,3.229,0,0,1,2.084.656l-.445,1.03a2.76,2.76,0,0,0-1.487-.468c-.539,0-1.265.222-1.265.867,0,1.147,3.314.714,3.314,2.915A2.441,2.441,0,0,1,2121.677,1994.822Z" transform="translate(-2085.064 -1987.422)" fill="#2d5b60"/>
      <path id="Path_231" data-name="Path 231" d="M2135.624,1994.834h-1.37v-7.166h1.37Z" transform="translate(-2093.367 -1987.55)" fill="#2d5b60"/>
      <path id="Path_232" data-name="Path 232" d="M2147.595,1991.108c0,1.979-1.171,3.7-3.291,3.7s-3.29-1.721-3.29-3.7c0-1.956,1.206-3.7,3.29-3.7S2147.595,1989.152,2147.595,1991.108Zm-5.082,0c0,1.147.422,2.494,1.792,2.494,1.394,0,1.792-1.335,1.792-2.494,0-1.124-.445-2.47-1.792-2.47S2142.513,1989.984,2142.513,1991.108Z" transform="translate(-2097.082 -1987.407)" fill="#2d5b60"/>
    </g>
    <g id="Group_73" data-name="Group 73" transform="translate(2006.321 1756.983)">
      <path id="Path_233" data-name="Path 233" d="M2328.155,1984.581l2.213,7.166h-1.393l-.574-1.721h-2.412l-.562,1.721h-1.405l2.213-7.166Zm-1.839,4.192h1.757l-.878-2.846Zm.082-5.246.574-1.475h1.346l-.831,1.475Z" transform="translate(-2324.021 -1982.051)" fill="#2d5b60"/>
      <path id="Path_234" data-name="Path 234" d="M2345.347,1991.778l1.768,3.056h-1.6l-1.557-2.845h-1.183v2.845h-1.382v-7.166h3.126a2.1,2.1,0,0,1,2.131,2.167A2.037,2.037,0,0,1,2345.347,1991.778Zm-1.007-2.951h-1.569v2.026h1.581a.983.983,0,0,0,.948-1.019A1,1,0,0,0,2344.34,1988.827Z" transform="translate(-2333.567 -1985.138)" fill="#2d5b60"/>
      <path id="Path_235" data-name="Path 235" d="M2362.012,1990.525v1.17h-2.81v1.827h3.536v1.312h-4.918v-7.166h4.918v1.312H2359.2v1.546Z" transform="translate(-2342.599 -1985.138)" fill="#2d5b60"/>
      <path id="Path_236" data-name="Path 236" d="M2376.151,1987.668l2.213,7.166h-1.393l-.574-1.721h-2.412l-.562,1.721h-1.405l2.213-7.166Zm-1.839,4.192h1.757l-.878-2.845Z" transform="translate(-2350.402 -1985.138)" fill="#2d5b60"/>
    </g>
    <g id="Group_74" data-name="Group 74" transform="translate(1998.069 1770.204)">
      <path id="Path_237" data-name="Path 237" d="M2308,2018.834H2305.7v-7.166H2308a3.2,3.2,0,0,1,3.4,3.536A3.412,3.412,0,0,1,2308,2018.834Zm-.2-5.854h-.726v4.543h.726a2.055,2.055,0,0,0,2.1-2.318A1.939,1.939,0,0,0,2307.8,2012.979Z" transform="translate(-2305.697 -2011.55)" fill="#2d5b60"/>
      <path id="Path_238" data-name="Path 238" d="M2326.269,2014.525v1.17h-2.81v1.827H2327v1.312h-4.918v-7.166H2327v1.312h-3.536v1.546Z" transform="translate(-2314.7 -2011.55)" fill="#2d5b60"/>
      <path id="Path_239" data-name="Path 239" d="M2349.037,2011.668l-2.447,4v3.162h-1.37v-3.162l-2.448-4h1.406l1.732,2.763,1.721-2.763Z" transform="translate(-2326.076 -2011.55)" fill="#2d5b60"/>
      <path id="Path_240" data-name="Path 240" d="M2364.251,2015.108c0,1.979-1.171,3.7-3.29,3.7s-3.291-1.721-3.291-3.7c0-1.956,1.207-3.7,3.291-3.7S2364.251,2013.152,2364.251,2015.108Zm-5.082,0c0,1.147.421,2.494,1.792,2.494,1.393,0,1.792-1.335,1.792-2.494,0-1.124-.446-2.471-1.792-2.471S2359.169,2013.984,2359.169,2015.108Z" transform="translate(-2334.264 -2011.407)" fill="#2d5b60"/>
      <path id="Path_241" data-name="Path 241" d="M2379.942,2017.192V2015h1.37v2.939a3.423,3.423,0,0,1-2.143.866,3.7,3.7,0,1,1-.281-7.4,3.787,3.787,0,0,1,2.424.785l-.551,1.159a2.77,2.77,0,0,0-1.6-.609,2.367,2.367,0,0,0-2.4,2.366,2.238,2.238,0,0,0,2.412,2.365A1.107,1.107,0,0,0,2379.942,2017.192Z" transform="translate(-2343.925 -2011.407)" fill="#2d5b60"/>
      <path id="Path_242" data-name="Path 242" d="M2395.707,2011.668l2.213,7.166h-1.394l-.574-1.721h-2.412l-.562,1.721h-1.405l2.213-7.166Zm-1.838,4.192h1.756l-.878-2.846Z" transform="translate(-2352.9 -2011.55)" fill="#2d5b60"/>
    </g>
    <g id="Group_75" data-name="Group 75" transform="translate(2109.649 1759.395)">
      <path id="Path_243" data-name="Path 243" d="M2558.158,1993.192V1991h1.37v2.939a3.424,3.424,0,0,1-2.143.866,3.7,3.7,0,1,1-.281-7.4,3.788,3.788,0,0,1,2.424.785l-.55,1.159a2.771,2.771,0,0,0-1.6-.609,2.367,2.367,0,0,0-2.4,2.365,2.238,2.238,0,0,0,2.413,2.365A1.106,1.106,0,0,0,2558.158,1993.192Z" transform="translate(-2553.463 -1987.407)" fill="#2d5b60"/>
      <path id="Path_244" data-name="Path 244" d="M2571.836,1994.834h-1.37v-7.166h1.37Z" transform="translate(-2562.809 -1987.55)" fill="#2d5b60"/>
      <path id="Path_245" data-name="Path 245" d="M2583.28,1987.668h1.288v7.166h-1.382v-5.2l-2.167,2.681-2.178-2.658v5.175h-1.382v-7.166h1.3l2.259,2.716Z" transform="translate(-2566.653 -1987.55)" fill="#2d5b60"/>
      <path id="Path_246" data-name="Path 246" d="M2601.351,1992.352v-4.684h1.381v7.166h-1.393l-2.763-4.59v4.59h-1.382v-7.166h1.394Z" transform="translate(-2577.5 -1987.55)" fill="#2d5b60"/>
      <path id="Path_247" data-name="Path 247" d="M2616.9,1987.668l2.213,7.166h-1.394l-.574-1.721h-2.412l-.562,1.721h-1.405l2.213-7.166Zm-1.838,4.192h1.756l-.879-2.845Z" transform="translate(-2586.061 -1987.55)" fill="#2d5b60"/>
      <path id="Path_248" data-name="Path 248" d="M2631.677,1994.822a4.475,4.475,0,0,1-2.53-.738l.574-1.218a4.644,4.644,0,0,0,1.815.656,1.122,1.122,0,0,0,1.253-1.007c0-1.171-3.244-.808-3.244-2.986,0-1.488,1.183-2.1,2.529-2.1a3.228,3.228,0,0,1,2.084.656l-.445,1.03a2.76,2.76,0,0,0-1.487-.468c-.539,0-1.265.222-1.265.867,0,1.147,3.313.714,3.313,2.915A2.441,2.441,0,0,1,2631.677,1994.822Z" transform="translate(-2595.063 -1987.422)" fill="#2d5b60"/>
      <path id="Path_249" data-name="Path 249" d="M2645.624,1994.834h-1.37v-7.166h1.37Z" transform="translate(-2603.366 -1987.55)" fill="#2d5b60"/>
      <path id="Path_250" data-name="Path 250" d="M2657.595,1991.108c0,1.979-1.171,3.7-3.291,3.7s-3.29-1.721-3.29-3.7c0-1.956,1.205-3.7,3.29-3.7S2657.595,1989.152,2657.595,1991.108Zm-5.082,0c0,1.147.421,2.494,1.791,2.494,1.394,0,1.792-1.335,1.792-2.494,0-1.124-.445-2.47-1.792-2.47S2652.513,1989.984,2652.513,1991.108Z" transform="translate(-2607.083 -1987.407)" fill="#2d5b60"/>
    </g>
    <g id="Group_76" data-name="Group 76" transform="translate(2108.853 1770.204)">
      <path id="Path_251" data-name="Path 251" d="M2555.888,2014.525v1.17h-2.81v1.827h3.536v1.312H2551.7v-7.166h4.918v1.312h-3.536v1.546Z" transform="translate(-2551.696 -2011.55)" fill="#2d5b60"/>
      <path id="Path_252" data-name="Path 252" d="M2572.266,2011.668l-2.06,3.384,2.271,3.782h-1.405l-1.8-2.74-1.815,2.74h-1.405l2.26-3.782-2.026-3.384h1.417l1.569,2.494,1.581-2.494Z" transform="translate(-2559.585 -2011.55)" fill="#2d5b60"/>
      <path id="Path_253" data-name="Path 253" d="M2583.078,2012.944v-1.276h5.785v1.276h-2.2v5.89h-1.381v-5.89Z" transform="translate(-2568.946 -2011.55)" fill="#2d5b60"/>
      <path id="Path_254" data-name="Path 254" d="M2603.39,2014.525v1.17h-2.81v1.827h3.536v1.312H2599.2v-7.166h4.918v1.312h-3.536v1.546Z" transform="translate(-2577.806 -2011.55)" fill="#2d5b60"/>
      <path id="Path_255" data-name="Path 255" d="M2618.028,2015.778l1.768,3.056h-1.6l-1.557-2.845h-1.182v2.845h-1.382v-7.166h3.127a2.1,2.1,0,0,1,2.131,2.166A2.037,2.037,0,0,1,2618.028,2015.778Zm-1.007-2.951h-1.569v2.026h1.58a.983.983,0,0,0,.949-1.019A1,1,0,0,0,2617.02,2012.827Z" transform="translate(-2585.98 -2011.55)" fill="#2d5b60"/>
      <path id="Path_256" data-name="Path 256" d="M2631.872,2018.834h-1.37v-7.166h1.37Z" transform="translate(-2595.012 -2011.55)" fill="#2d5b60"/>
      <path id="Path_257" data-name="Path 257" d="M2643.843,2015.108c0,1.979-1.171,3.7-3.291,3.7s-3.29-1.721-3.29-3.7c0-1.956,1.206-3.7,3.29-3.7S2643.843,2013.152,2643.843,2015.108Zm-5.082,0c0,1.147.421,2.494,1.791,2.494,1.394,0,1.792-1.335,1.792-2.494,0-1.124-.444-2.471-1.792-2.471S2638.761,2013.984,2638.761,2015.108Z" transform="translate(-2598.728 -2011.407)" fill="#2d5b60"/>
      <path id="Path_258" data-name="Path 258" d="M2659.55,2015.778l1.768,3.056h-1.6l-1.557-2.845h-1.183v2.845h-1.381v-7.166h3.126a2.1,2.1,0,0,1,2.131,2.166A2.037,2.037,0,0,1,2659.55,2015.778Zm-1.007-2.951h-1.569v2.026h1.581a.983.983,0,0,0,.948-1.019A1,1,0,0,0,2658.543,2012.827Z" transform="translate(-2608.803 -2011.55)" fill="#2d5b60"/>
    </g>
    <g id="Group_77" data-name="Group 77" transform="translate(2229.996 1759.407)">
      <path id="Path_259" data-name="Path 259" d="M2823.8,1992.434h-1.721v2.4H2820.7v-7.166h3.1a2.3,2.3,0,0,1,2.155,2.389A2.339,2.339,0,0,1,2823.8,1992.434Zm-.152-3.454h-1.569v2.143h1.569a1.031,1.031,0,0,0,.983-1.065A1.065,1.065,0,0,0,2823.647,1988.979Z" transform="translate(-2820.696 -1987.563)" fill="#2d5b60"/>
      <path id="Path_260" data-name="Path 260" d="M2839.672,1993.522v1.312h-3.583v-7.166h1.37v5.854Z" transform="translate(-2829.157 -1987.563)" fill="#2d5b60"/>
      <path id="Path_261" data-name="Path 261" d="M2849.582,1987.668l2.213,7.166H2850.4l-.573-1.721h-2.413l-.562,1.721h-1.405l2.213-7.166Zm-1.838,4.192h1.756l-.878-2.845Z" transform="translate(-2834.302 -1987.563)" fill="#2d5b60"/>
      <path id="Path_262" data-name="Path 262" d="M2868.238,1988.945l-3.583,4.625h3.583v1.265h-5.422v-1.265l3.642-4.625h-3.466v-1.277h5.246Z" transform="translate(-2843.847 -1987.563)" fill="#2d5b60"/>
      <path id="Path_263" data-name="Path 263" d="M2882.264,1987.668l2.213,7.166h-1.394l-.574-1.721H2880.1l-.562,1.721h-1.405l2.213-7.166Zm-1.838,4.192h1.756l-.878-2.845Z" transform="translate(-2852.265 -1987.563)" fill="#2d5b60"/>
      <path id="Path_264" data-name="Path 264" d="M2897.039,1994.822a4.47,4.47,0,0,1-2.529-.738l.573-1.218a4.646,4.646,0,0,0,1.815.656,1.122,1.122,0,0,0,1.253-1.007c0-1.171-3.243-.808-3.243-2.986,0-1.488,1.183-2.1,2.529-2.1a3.229,3.229,0,0,1,2.084.656l-.445,1.03a2.761,2.761,0,0,0-1.487-.468c-.539,0-1.265.222-1.265.867,0,1.147,3.314.714,3.314,2.915A2.442,2.442,0,0,1,2897.039,1994.822Z" transform="translate(-2861.269 -1987.434)" fill="#2d5b60"/>
      <path id="Path_265" data-name="Path 265" d="M2921.7,1987.668l-2.448,4v3.161h-1.37v-3.161l-2.448-4h1.406l1.733,2.763,1.721-2.763Z" transform="translate(-2872.772 -1987.563)" fill="#2d5b60"/>
    </g>
    <g id="Group_78" data-name="Group 78" transform="translate(2222.036 1770.204)">
      <path id="Path_266" data-name="Path 266" d="M2807.155,2011.668l2.213,7.166h-1.394l-.574-1.721h-2.412l-.562,1.721h-1.405l2.213-7.166Zm-1.838,4.192h1.756l-.879-2.846Z" transform="translate(-2803.021 -2011.55)" fill="#2d5b60"/>
      <path id="Path_267" data-name="Path 267" d="M2824.546,2016.352v-4.684h1.382v7.166h-1.394l-2.763-4.59v4.59h-1.382v-7.166h1.393Z" transform="translate(-2812.567 -2011.55)" fill="#2d5b60"/>
      <path id="Path_268" data-name="Path 268" d="M2838.946,2018.834h-2.307v-7.166h2.307a3.2,3.2,0,0,1,3.4,3.536A3.412,3.412,0,0,1,2838.946,2018.834Zm-.2-5.854h-.726v4.543h.726a2.055,2.055,0,0,0,2.1-2.318A1.939,1.939,0,0,0,2838.746,2012.979Z" transform="translate(-2821.5 -2011.55)" fill="#2d5b60"/>
      <path id="Path_269" data-name="Path 269" d="M2855.2,2011.668l2.213,7.166h-1.393l-.573-1.721h-2.413l-.562,1.721h-1.405l2.213-7.166Zm-1.838,4.192h1.755l-.878-2.846Z" transform="translate(-2829.431 -2011.55)" fill="#2d5b60"/>
      <path id="Path_270" data-name="Path 270" d="M2870.744,2018.834h-2.307v-7.166h2.307a3.2,3.2,0,0,1,3.4,3.536A3.411,3.411,0,0,1,2870.744,2018.834Zm-.2-5.854h-.725v4.543h.725a2.055,2.055,0,0,0,2.1-2.318A1.939,1.939,0,0,0,2870.544,2012.979Z" transform="translate(-2838.978 -2011.55)" fill="#2d5b60"/>
      <path id="Path_271" data-name="Path 271" d="M2891.163,2015.108c0,1.979-1.171,3.7-3.29,3.7s-3.29-1.721-3.29-3.7c0-1.956,1.206-3.7,3.29-3.7S2891.163,2013.152,2891.163,2015.108Zm-5.081,0c0,1.147.421,2.494,1.791,2.494,1.393,0,1.792-1.335,1.792-2.494,0-1.124-.445-2.471-1.792-2.471S2886.081,2013.984,2886.081,2015.108Z" transform="translate(-2847.852 -2011.407)" fill="#2d5b60"/>
      <path id="Path_272" data-name="Path 272" d="M2906.87,2015.778l1.768,3.056h-1.6l-1.557-2.845h-1.183v2.845h-1.382v-7.166h3.126a2.1,2.1,0,0,1,2.131,2.166A2.037,2.037,0,0,1,2906.87,2015.778Zm-1.007-2.951h-1.569v2.026h1.581a.984.984,0,0,0,.949-1.019A1,1,0,0,0,2905.863,2012.827Z" transform="translate(-2857.927 -2011.55)" fill="#2d5b60"/>
      <path id="Path_273" data-name="Path 273" d="M2923.536,2014.525v1.17h-2.81v1.827h3.536v1.312h-4.918v-7.166h4.918v1.312h-3.536v1.546Z" transform="translate(-2866.959 -2011.55)" fill="#2d5b60"/>
      <path id="Path_274" data-name="Path 274" d="M2935.757,2018.823a4.471,4.471,0,0,1-2.529-.738l.573-1.218a4.654,4.654,0,0,0,1.815.655,1.122,1.122,0,0,0,1.253-1.007c0-1.171-3.243-.808-3.243-2.986,0-1.488,1.183-2.1,2.53-2.1a3.228,3.228,0,0,1,2.084.656l-.445,1.03a2.759,2.759,0,0,0-1.487-.468c-.539,0-1.264.222-1.264.866,0,1.147,3.313.714,3.313,2.916A2.441,2.441,0,0,1,2935.757,2018.823Z" transform="translate(-2874.59 -2011.422)" fill="#2d5b60"/>
    </g>
    <g id="Group_79" data-name="Group 79" transform="translate(2329.669 1756.983)">
      <path id="Path_275" data-name="Path 275" d="M3046.155,1984.581l2.213,7.166h-1.393l-.574-1.721h-2.412l-.562,1.721h-1.405l2.213-7.166Zm-1.838,4.192h1.757l-.879-2.846Zm.082-5.246.574-1.475h1.346l-.831,1.475Z" transform="translate(-3042.021 -1982.051)" fill="#2d5b60"/>
      <path id="Path_276" data-name="Path 276" d="M3063.347,1991.778l1.768,3.056h-1.6l-1.557-2.845h-1.183v2.845h-1.382v-7.166h3.126a2.1,2.1,0,0,1,2.131,2.167A2.037,2.037,0,0,1,3063.347,1991.778Zm-1.008-2.951h-1.568v2.026h1.581a.984.984,0,0,0,.949-1.019A1,1,0,0,0,3062.339,1988.827Z" transform="translate(-3051.568 -1985.138)" fill="#2d5b60"/>
      <path id="Path_277" data-name="Path 277" d="M3080.013,1990.525v1.17H3077.2v1.827h3.536v1.312h-4.918v-7.166h4.918v1.312H3077.2v1.546Z" transform="translate(-3060.599 -1985.138)" fill="#2d5b60"/>
      <path id="Path_278" data-name="Path 278" d="M3094.15,1987.668l2.213,7.166h-1.393l-.574-1.721h-2.412l-.562,1.721h-1.405l2.213-7.166Zm-1.839,4.192h1.757l-.878-2.845Z" transform="translate(-3068.402 -1985.138)" fill="#2d5b60"/>
      <path id="Path_279" data-name="Path 279" d="M3108.926,1994.822a4.472,4.472,0,0,1-2.53-.738l.574-1.218a4.65,4.65,0,0,0,1.815.656,1.122,1.122,0,0,0,1.253-1.007c0-1.171-3.243-.808-3.243-2.986,0-1.488,1.182-2.1,2.529-2.1a3.226,3.226,0,0,1,2.084.656l-.445,1.03a2.758,2.758,0,0,0-1.487-.468c-.538,0-1.264.222-1.264.867,0,1.147,3.313.714,3.313,2.915A2.441,2.441,0,0,1,3108.926,1994.822Z" transform="translate(-3077.405 -1985.01)" fill="#2d5b60"/>
      <path id="Path_280" data-name="Path 280" d="M3133.684,1987.668l-2.377,7.166h-1.592l-2.389-7.166h1.44l1.745,5.094,1.721-5.094Z" transform="translate(-3088.909 -1985.138)" fill="#2d5b60"/>
      <path id="Path_281" data-name="Path 281" d="M3149.691,1990.525v1.17h-2.81v1.827h3.536v1.312H3145.5v-7.166h4.918v1.312h-3.536v1.546Z" transform="translate(-3098.898 -1985.138)" fill="#2d5b60"/>
      <path id="Path_282" data-name="Path 282" d="M3164.329,1991.778l1.768,3.056h-1.6l-1.558-2.845h-1.182v2.845h-1.382v-7.166h3.126a2.1,2.1,0,0,1,2.132,2.167A2.036,2.036,0,0,1,3164.329,1991.778Zm-1.007-2.951h-1.57v2.026h1.581a.983.983,0,0,0,.949-1.019A1,1,0,0,0,3163.323,1988.827Z" transform="translate(-3107.073 -1985.138)" fill="#2d5b60"/>
      <path id="Path_283" data-name="Path 283" d="M3179.11,1994.834H3176.8v-7.166h2.307a3.2,3.2,0,0,1,3.4,3.536A3.412,3.412,0,0,1,3179.11,1994.834Zm-.2-5.854h-.726v4.543h.726a2.055,2.055,0,0,0,2.1-2.318A1.94,1.94,0,0,0,3178.911,1988.979Z" transform="translate(-3116.105 -1985.138)" fill="#2d5b60"/>
      <path id="Path_284" data-name="Path 284" d="M3197.375,1990.525v1.17h-2.81v1.827h3.537v1.312h-4.918v-7.166h4.918v1.312h-3.537v1.546Z" transform="translate(-3125.108 -1985.138)" fill="#2d5b60"/>
      <path id="Path_285" data-name="Path 285" d="M3209.6,1994.822a4.474,4.474,0,0,1-2.53-.738l.574-1.218a4.644,4.644,0,0,0,1.815.656,1.122,1.122,0,0,0,1.253-1.007c0-1.171-3.244-.808-3.244-2.986,0-1.488,1.183-2.1,2.529-2.1a3.229,3.229,0,0,1,2.085.656l-.445,1.03a2.761,2.761,0,0,0-1.487-.468c-.539,0-1.265.222-1.265.867,0,1.147,3.314.714,3.314,2.915A2.441,2.441,0,0,1,3209.6,1994.822Z" transform="translate(-3132.739 -1985.01)" fill="#2d5b60"/>
    </g>
    <g id="Group_80" data-name="Group 80" transform="translate(1765.701 1597.052)">
      <path id="Path_286" data-name="Path 286" d="M1789.72,1626.921l2.654,11.9-.009.032-2.633,9.083h1.581l2.5-8.323h5.126v8.323h1.59v-8.323h1.849v-1.591H1793.8l-2.5-11.1Z" transform="translate(-1789.72 -1626.921)" fill="#325358"/>
    </g>
    <g id="Group_81" data-name="Group 81" transform="translate(1765.701 1573.931)">
      <rect id="Rectangle_35" data-name="Rectangle 35" width="44.134" height="44.134" transform="translate(0)" fill="none"/>
    </g>
    <g id="Group_85" data-name="Group 85" transform="translate(1765.701 1573.931)">
      <g id="Group_84" data-name="Group 84" transform="translate(0)" clip-path="url(#clip-path-4)">
        <g id="Group_82" data-name="Group 82" transform="translate(2.742 0)">
          <path id="Path_287" data-name="Path 287" d="M1826.188,1592.47l.277.276a3.529,3.529,0,0,0,2.5,1.073h1.849a3.238,3.238,0,0,0,2.491-1.066,3.536,3.536,0,0,0,1.078-2.5,1,1,0,0,0-.332-.648l-18.158-12.695v-1.325H1814.3v1.325l-.055.039-18.121,12.67a.991.991,0,0,0-.314.634,3.664,3.664,0,0,0,3.568,3.571h1.849a3.24,3.24,0,0,0,2.491-1.066l.283-.283.276.276a3.53,3.53,0,0,0,2.5,1.073h1.849a3.239,3.239,0,0,0,2.491-1.066l.282-.283.276.276a3.53,3.53,0,0,0,2.5,1.073h.129v9.507h-8.321v1.591h1.72a6.6,6.6,0,0,1,.129,13.205v1.591a8.184,8.184,0,0,0,7.152-4.461l.115-.222.115.222a8.186,8.186,0,0,0,7.153,4.461v-1.591a6.6,6.6,0,0,1,.129-13.205h1.719v-1.591h-8.32v-9.507h.129a3.241,3.241,0,0,0,2.491-1.066l.282-.283.276.276a3.532,3.532,0,0,0,2.5,1.073h1.849a3.239,3.239,0,0,0,2.49-1.066Zm-8.627,12.447-.254.226a9.949,9.949,0,0,0-2.1,2.647l-.114.208-.114-.208a8.651,8.651,0,0,0-2.186-2.643l-.288-.231Zm7.833-14.668a2.027,2.027,0,0,1-1.978,1.98h-1.849a2.026,2.026,0,0,1-1.979-1.98.8.8,0,1,0-1.59,0,2.025,2.025,0,0,1-1.978,1.98h-1.849a2.027,2.027,0,0,1-1.979-1.98.795.795,0,1,0-1.59,0,2.026,2.026,0,0,1-1.979,1.98h-1.849a2.026,2.026,0,0,1-1.978-1.98.8.8,0,1,0-1.591,0,2.025,2.025,0,0,1-1.978,1.98h-1.849a1.958,1.958,0,0,1-1.385-.593,1.992,1.992,0,0,1-.493-.884l-.031-.091.079-.056,17.547-12.352,17.62,12.4-.022.087a1.909,1.909,0,0,1-.5.892,1.958,1.958,0,0,1-1.386.593h-1.849a2.027,2.027,0,0,1-1.979-1.98.795.795,0,1,0-1.59,0" transform="translate(-1795.809 -1575.58)" fill="#325358"/>
        </g>
        <g id="Group_83" data-name="Group 83" transform="translate(31.401 23.122)">
          <path id="Path_288" data-name="Path 288" d="M1870.6,1647.934h1.58l-2.733-9.115.007-.032,2.646-11.865h-1.584l-2.5,11.1h-8.573v1.591h1.849v8.324h1.59v-8.324h5.124Z" transform="translate(-1859.448 -1626.922)" fill="#325358"/>
        </g>
      </g>
    </g>
    <g id="Group_86" data-name="Group 86" transform="translate(1765.701 1573.931)">
      <rect id="Rectangle_37" data-name="Rectangle 37" width="44.134" height="44.134" transform="translate(0)" fill="none"/>
    </g>
    <g id="Group_94" data-name="Group 94" transform="translate(1884.142 1573.931)">
      <g id="Group_93" data-name="Group 93" clip-path="url(#clip-path-5)">
        <g id="Group_87" data-name="Group 87" transform="translate(0 29.802)">
          <path id="Path_289" data-name="Path 289" d="M2056.2,1645.219a2.626,2.626,0,0,1,3.615,0,4.153,4.153,0,0,0,5.846,0,2.626,2.626,0,0,1,3.615,0,4.151,4.151,0,0,0,5.844,0,2.626,2.626,0,0,1,3.615,0,4.154,4.154,0,0,0,5.846,0,2.626,2.626,0,0,1,3.615,0,4.151,4.151,0,0,0,5.844,0l2.364-2.353-1.114-1.11-2.364,2.355a2.57,2.57,0,0,1-3.616,0,4.144,4.144,0,0,0-5.843,0l0,0a2.629,2.629,0,0,1-3.615,0,4.144,4.144,0,0,0-5.843,0h0a2.629,2.629,0,0,1-3.616,0,4.144,4.144,0,0,0-5.843,0l0,0a2.568,2.568,0,0,1-3.615,0,4.145,4.145,0,0,0-5.843,0h0l-2.366,2.355,1.116,1.109Z" transform="translate(-2052.72 -1641.755)" fill="#325358"/>
        </g>
        <g id="Group_88" data-name="Group 88" transform="translate(0 34.51)">
          <path id="Path_290" data-name="Path 290" d="M2056.2,1655.673a2.625,2.625,0,0,1,3.615,0,4.153,4.153,0,0,0,5.846,0,2.625,2.625,0,0,1,3.615,0,4.151,4.151,0,0,0,5.844,0,2.625,2.625,0,0,1,3.615,0,4.154,4.154,0,0,0,5.846,0,2.625,2.625,0,0,1,3.615,0,4.151,4.151,0,0,0,5.844,0l2.364-2.354-1.114-1.11-2.364,2.355a2.573,2.573,0,0,1-3.616,0,4.144,4.144,0,0,0-5.843,0l0,0a2.63,2.63,0,0,1-3.615,0,4.144,4.144,0,0,0-5.843,0h0a2.63,2.63,0,0,1-3.616,0,4.144,4.144,0,0,0-5.843,0l0,0a2.571,2.571,0,0,1-3.615,0,4.144,4.144,0,0,0-5.843,0h0l-2.366,2.355,1.116,1.109Z" transform="translate(-2052.72 -1652.209)" fill="#325358"/>
        </g>
        <g id="Group_89" data-name="Group 89" transform="translate(0 39.217)">
          <path id="Path_291" data-name="Path 291" d="M2056.2,1666.126a2.625,2.625,0,0,1,3.615,0,4.153,4.153,0,0,0,5.846,0,2.625,2.625,0,0,1,3.615,0,4.151,4.151,0,0,0,5.844,0,2.625,2.625,0,0,1,3.615,0,4.154,4.154,0,0,0,5.846,0,2.625,2.625,0,0,1,3.615,0,4.151,4.151,0,0,0,5.844,0l2.364-2.353-1.114-1.11-2.364,2.355a2.57,2.57,0,0,1-3.616,0,4.144,4.144,0,0,0-5.843,0l0,0a2.629,2.629,0,0,1-3.615,0,4.144,4.144,0,0,0-5.843,0h0a2.629,2.629,0,0,1-3.616,0,4.144,4.144,0,0,0-5.843,0l0,0a2.568,2.568,0,0,1-3.615,0,4.145,4.145,0,0,0-5.843,0h0l-2.366,2.355,1.116,1.109Z" transform="translate(-2052.72 -1662.662)" fill="#325358"/>
        </g>
        <g id="Group_90" data-name="Group 90" transform="translate(7.884 0)">
          <path id="Path_292" data-name="Path 292" d="M2071.341,1605.922l12.327-12.27a.782.782,0,0,0,0-1.11l-2.151-2.141a4.648,4.648,0,0,1,0-6.59l6.379-6.349a1.194,1.194,0,0,1,1.644,0,1.155,1.155,0,0,1,0,1.636l-6.275,6.246a2.485,2.485,0,0,0,0,3.525h0l10.61,10.561,7.1,7.062,1.114-1.109-7.094-7.063-10.61-10.561a.921.921,0,0,1,0-1.307l6.275-6.246a2.721,2.721,0,0,0,0-3.856,2.819,2.819,0,0,0-3.875,0l-6.379,6.35a6.213,6.213,0,0,0,0,8.809L2082,1593.1l-11.769,11.715Z" transform="translate(-2070.227 -1575.579)" fill="#325358"/>
        </g>
        <g id="Group_91" data-name="Group 91" transform="translate(28.148 9.171)">
          <path id="Path_293" data-name="Path 293" d="M2119.953,1605.361a4.708,4.708,0,1,0-4.73-4.708,4.719,4.719,0,0,0,4.73,4.708m0-7.846a3.138,3.138,0,1,1-3.153,3.138,3.146,3.146,0,0,1,3.153-3.138" transform="translate(-2115.223 -1595.945)" fill="#325358"/>
        </g>
        <g id="Group_92" data-name="Group 92" transform="translate(25.225 25.257)">
          <path id="Path_294" data-name="Path 294" d="M2112.281,1631.893l-3.548,3.531,1.116,1.109,2.99-2.975,2.991,2.975,1.114-1.109-3.548-3.531a.788.788,0,0,0-1.114,0" transform="translate(-2108.733 -1631.663)" fill="#325358"/>
        </g>
      </g>
    </g>
    <g id="Group_95" data-name="Group 95" transform="translate(1884.142 1573.931)">
      <rect id="Rectangle_39" data-name="Rectangle 39" width="43.683" height="45.035" fill="none"/>
    </g>
    <g id="Group_98" data-name="Group 98" transform="translate(1998.98 1698.677)">
      <g id="Group_97" data-name="Group 97" clip-path="url(#clip-path-6)">
        <g id="Group_96" data-name="Group 96" transform="translate(0 0)">
          <path id="Path_295" data-name="Path 295" d="M2352.51,1866.731a1.257,1.257,0,0,0-.828-.5l-1.865-.289a1.272,1.272,0,0,0-1.445,1.053l-.041.261-2.585-.4v-4.98l1.874,0v-9.292h-34.4v9.292l1.873,0v5.1a4.785,4.785,0,1,0-3.205,8.767v2.457a5.267,5.267,0,0,0,3.205,4.846v13.948a.624.624,0,0,0,.625.623h29.4a.625.625,0,0,0,.625-.623v-17.178l1.269-.393a1.261,1.261,0,0,0,.834-1.578l-1.232-3.959a1.253,1.253,0,0,0-.871-.836v-2.535l2.028.315-.041.261a1.263,1.263,0,0,0,1.057,1.44l1.865.289a1.305,1.305,0,0,0,.194.015,1.274,1.274,0,0,0,1.25-1.068l.639-4.094a1.252,1.252,0,0,0-.229-.938m-37.414,8.3v6.611a4.037,4.037,0,0,1-1.956-3.446v-2.457a4.814,4.814,0,0,0,1.956-.709m-2.581-.493a3.535,3.535,0,1,1,3.547-3.536,3.545,3.545,0,0,1-3.547,3.536m33.856-13.912h-31.9v-6.8h31.9Zm2.735,9.776a.617.617,0,0,0-.113-.463.623.623,0,0,0-.408-.248l-5.52-.855a.649.649,0,0,0-.1-.008.63.63,0,0,0-.617.528l-.135.874a.044.044,0,0,1-.018.015l-1.865-.289-.013-.018.639-4.1a.019.019,0,0,1,.019-.012l1.865.289.009-.064,0,.083-.137.876a.618.618,0,0,0,.113.463.626.626,0,0,0,.409.248l5.52.854a.623.623,0,0,0,.713-.52l.137-.876a.024.024,0,0,1,.019-.014l1.862.288a.048.048,0,0,1,.015.019l-.639,4.095a.016.016,0,0,1-.017.013h0l-1.862-.289a.039.039,0,0,1-.016-.019Zm-21.454,18.645a3.55,3.55,0,0,1,3.512-3.535h0l.031,0h0a3.535,3.535,0,1,1-3.547,3.535m-11.306-5.647a5.233,5.233,0,0,0,.835.071,5.3,5.3,0,0,0,5.286-5.187l0-.029a4.041,4.041,0,0,1,8.083,0v6.058a4.793,4.793,0,1,0,1.25-.007v-6.05a5.289,5.289,0,0,0-10.576-.087l0,.03a4.033,4.033,0,0,1-4.876,3.938v-8.267a4.736,4.736,0,0,0,0-5.732V1861.9H2344.5v4.765l-.45-.07.041-.26a1.264,1.264,0,0,0-1.056-1.441l-1.865-.289a1.319,1.319,0,0,0-.2-.016,1.271,1.271,0,0,0-1.247,1.069l-.639,4.1a1.263,1.263,0,0,0,1.057,1.439l1.865.289a1.266,1.266,0,0,0,1.445-1.053l.041-.261,1.007.156v2.9l-1.267.392a1.26,1.26,0,0,0-.833,1.579l.078.252-4.141,1.281-.079-.253a1.259,1.259,0,0,0-1.209-.887,1.288,1.288,0,0,0-.374.056l-1.8.557a1.258,1.258,0,0,0-.745.618,1.243,1.243,0,0,0-.088.961l1.231,3.959a1.254,1.254,0,0,0,.62.742,1.28,1.28,0,0,0,.964.088l1.8-.557a1.264,1.264,0,0,0,.833-1.579l-.078-.252,4.141-1.281.079.252a1.25,1.25,0,0,0,.867.837v16.385h-28.151Zm27.431-5.88-5.335,1.649a.63.63,0,0,0-.368.3.618.618,0,0,0-.044.476l.265.846a.018.018,0,0,1-.01.021l-1.8.557a.049.049,0,0,1-.021-.009l-1.232-3.959a.015.015,0,0,1,.01-.02l1.805-.559h0a.016.016,0,0,1,.015.011l.264.848a.624.624,0,0,0,.782.411l5.334-1.651a.623.623,0,0,0,.412-.78l-.263-.846a.037.037,0,0,1,.01-.021l1.807-.558a.017.017,0,0,1,.015.01l1.231,3.958a.035.035,0,0,1-.011.021l-1.806.558a.014.014,0,0,1-.015-.011l-.264-.847a.629.629,0,0,0-.306-.367.637.637,0,0,0-.476-.043" transform="translate(-2307.72 -1852.58)" fill="#325358"/>
        </g>
      </g>
    </g>
    <g id="Group_99" data-name="Group 99" transform="translate(1998.98 1698.676)">
      <rect id="Rectangle_41" data-name="Rectangle 41" width="45.035" height="45.035" fill="none"/>
    </g>
    <g id="Group_111" data-name="Group 111" transform="translate(1998.98 1572.58)">
      <g id="Group_110" data-name="Group 110" clip-path="url(#clip-path-7)">
        <g id="Group_100" data-name="Group 100" transform="translate(0 2.916)">
          <path id="Path_296" data-name="Path 296" d="M2350.914,1596.691l-1.164-.538-2.461,5.4h-16.047v1.29h2.563v3.664h-8.38v1.29h2.23v6.658h-3.741v-22.116h0v-.953h14.912l-.244-.828a16.1,16.1,0,0,0-5.672-8.248,15.738,15.738,0,0,0-9.224-3.253h0c-.137,0-.273-.006-.41-.006a15.747,15.747,0,0,0-9.636,3.259,16.1,16.1,0,0,0-5.673,8.248l-.243.828h14.912v23.07h-14.054v1.29h42.677v-1.29h-3.562V1607.8h3.563v-1.29h-4.812Zm-28.282-6.591h-6.413a14.973,14.973,0,0,1,1.053-3.433,12.091,12.091,0,0,1,5.36-5.938Zm1.281-9.531a13.421,13.421,0,0,1,5.6,6.281,14.173,14.173,0,0,1,1,3.25h-6.595Zm13.169,9.531h-5.273a15.28,15.28,0,0,0-1.107-3.725,15,15,0,0,0-4.365-5.7,14.832,14.832,0,0,1,10.745,9.424m-16.676-9.465a13.8,13.8,0,0,0-4.3,5.506,16.147,16.147,0,0,0-1.183,3.959h-5.456a14.829,14.829,0,0,1,10.943-9.465m14.679,22.213H2346.7l-1.668,3.664h-9.948Zm11.326,11.612h-17.476V1607.8h17.476Z" transform="translate(-2307.72 -1579.055)" fill="#325358"/>
        </g>
        <g id="Group_101" data-name="Group 101" transform="translate(0.858 41.107)">
          <path id="Path_297" data-name="Path 297" d="M2348.746,1664.891a2.469,2.469,0,0,1-1.458-.43,3.954,3.954,0,0,0-4.2,0,2.69,2.69,0,0,1-2.917,0,3.955,3.955,0,0,0-4.2,0,2.689,2.689,0,0,1-2.917,0,3.953,3.953,0,0,0-4.2,0,2.689,2.689,0,0,1-2.916,0,3.955,3.955,0,0,0-4.2,0,2.689,2.689,0,0,1-2.917,0,3.954,3.954,0,0,0-4.2,0,2.688,2.688,0,0,1-2.916,0,3.728,3.728,0,0,0-2.1-.6v1.29a2.465,2.465,0,0,1,1.458.43,3.955,3.955,0,0,0,4.2,0,2.687,2.687,0,0,1,2.917,0,3.956,3.956,0,0,0,4.2,0,2.686,2.686,0,0,1,2.916,0,3.956,3.956,0,0,0,4.2,0,2.686,2.686,0,0,1,2.916,0,3.956,3.956,0,0,0,4.2,0,2.688,2.688,0,0,1,2.917,0,3.956,3.956,0,0,0,4.2,0,2.686,2.686,0,0,1,2.916,0,3.957,3.957,0,0,0,4.2,0,2.465,2.465,0,0,1,1.458-.43v-1.29a3.728,3.728,0,0,0-2.1.6,2.469,2.469,0,0,1-1.458.43" transform="translate(-2309.626 -1663.859)" fill="#325358"/>
        </g>
        <g id="Group_102" data-name="Group 102" transform="translate(0.858 44.514)">
          <path id="Path_298" data-name="Path 298" d="M2348.746,1672.455a2.465,2.465,0,0,1-1.458-.43,3.957,3.957,0,0,0-4.2,0,2.687,2.687,0,0,1-2.917,0,3.957,3.957,0,0,0-4.2,0,2.687,2.687,0,0,1-2.917,0,3.956,3.956,0,0,0-4.2,0,2.686,2.686,0,0,1-2.916,0,3.957,3.957,0,0,0-4.2,0,2.687,2.687,0,0,1-2.917,0,3.957,3.957,0,0,0-4.2,0,2.686,2.686,0,0,1-2.916,0,3.728,3.728,0,0,0-2.1-.6v1.29a2.466,2.466,0,0,1,1.458.429,3.953,3.953,0,0,0,4.2,0,2.691,2.691,0,0,1,2.917,0,3.954,3.954,0,0,0,4.2,0,2.69,2.69,0,0,1,2.916,0,3.954,3.954,0,0,0,4.2,0,2.69,2.69,0,0,1,2.916,0,3.954,3.954,0,0,0,4.2,0,2.691,2.691,0,0,1,2.917,0,3.955,3.955,0,0,0,4.2,0,2.69,2.69,0,0,1,2.916,0,3.955,3.955,0,0,0,4.2,0,2.466,2.466,0,0,1,1.458-.429v-1.29a3.728,3.728,0,0,0-2.1.6,2.466,2.466,0,0,1-1.458.43" transform="translate(-2309.626 -1671.423)" fill="#325358"/>
        </g>
        <g id="Group_103" data-name="Group 103" transform="translate(32.282 3.128)">
          <path id="Path_299" data-name="Path 299" d="M2383.553,1587.885a4.179,4.179,0,1,0-4.15-4.179,4.17,4.17,0,0,0,4.15,4.179m0-7.068a2.889,2.889,0,1,1-2.868,2.889,2.882,2.882,0,0,1,2.868-2.889" transform="translate(-2379.403 -1579.526)" fill="#325358"/>
        </g>
        <g id="Group_104" data-name="Group 104" transform="translate(35.791 0)">
          <rect id="Rectangle_42" data-name="Rectangle 42" width="1.281" height="2.374" fill="#325358"/>
        </g>
        <g id="Group_105" data-name="Group 105" transform="translate(35.791 12.232)">
          <rect id="Rectangle_43" data-name="Rectangle 43" width="1.281" height="2.374" fill="#325358"/>
        </g>
        <g id="Group_106" data-name="Group 106" transform="translate(41.326 6.658)">
          <rect id="Rectangle_44" data-name="Rectangle 44" width="2.357" height="1.29" fill="#325358"/>
        </g>
        <g id="Group_107" data-name="Group 107" transform="translate(29.18 6.658)">
          <rect id="Rectangle_45" data-name="Rectangle 45" width="2.357" height="1.29" fill="#325358"/>
        </g>
        <g id="Group_108" data-name="Group 108" transform="translate(2.846 20.217)">
          <path id="Path_300" data-name="Path 300" d="M2316.72,1620.018a3.573,3.573,0,0,0-1.143-.418,4.946,4.946,0,0,0-1.539-.042l.2,1.275c.019,0,1.957-.291,2.481,1.067l1.225-.358a2.711,2.711,0,0,1,1.287-2.906l-.551-1.165a3.5,3.5,0,0,0-1.96,2.547" transform="translate(-2314.039 -1617.471)" fill="#325358"/>
        </g>
        <g id="Group_109" data-name="Group 109" transform="translate(6.874 26.279)">
          <path id="Path_301" data-name="Path 301" d="M2324.99,1635.166a2.673,2.673,0,0,1,2.991-1.026l.473-1.2a3.461,3.461,0,0,0-3.187.285,3.615,3.615,0,0,0-.472-1.128,5,5,0,0,0-1.016-1.166l-.8,1.011a3.708,3.708,0,0,1,.741.865,1.681,1.681,0,0,1,.171,1.7Z" transform="translate(-2322.984 -1630.933)" fill="#325358"/>
        </g>
      </g>
    </g>
    <g id="Group_112" data-name="Group 112" transform="translate(1998.98 1572.58)">
      <rect id="Rectangle_47" data-name="Rectangle 47" width="43.684" height="46.836" fill="none"/>
    </g>
    <g id="Group_117" data-name="Group 117" transform="translate(2121.474 1574.832)">
      <g id="Group_116" data-name="Group 116" transform="translate(0 0)" clip-path="url(#clip-path-8)">
        <g id="Group_113" data-name="Group 113" transform="translate(0 0.001)">
          <path id="Path_302" data-name="Path 302" d="M2581.069,1599.4a22.883,22.883,0,0,0-1.349,7.734v14.487h16.424v-14.487a22.851,22.851,0,0,0-1.3-7.734l-2.962-8.331a15.371,15.371,0,0,1-.906-5.265v-8.223h-6.082v8.225a15.368,15.368,0,0,1-.909,5.263Zm12.457.446a22.274,22.274,0,0,1,1.237,7.287v13.1H2581.1v-13.1a22.263,22.263,0,0,1,1.237-7.286l1.085-2.934,4.556,5.043,4.516-5.052Zm-7.254-20.883h3.321v2.854h-3.321Zm-.927,12.458a17.752,17.752,0,0,0,.927-5.618v-2.6h3.321v2.6a16.593,16.593,0,0,0,.972,5.613l.05.139-2.685,3.057-2.629-3.057Zm2.633,5.3,3.144-3.635.857,2.329-4.047,4.461-4-4.458.795-2.386Z" transform="translate(-2579.72 -1577.581)" fill="#325358"/>
        </g>
        <g id="Group_114" data-name="Group 114" transform="translate(4.231 27.92)">
          <path id="Path_303" data-name="Path 303" d="M2589.116,1651.318h7.961v-11.742h-7.961Zm6.58-1.384h-5.2v-8.974h5.2Z" transform="translate(-2589.116 -1639.576)" fill="#325358"/>
        </g>
        <g id="Group_115" data-name="Group 115" transform="translate(21.294 17.043)">
          <path id="Path_304" data-name="Path 304" d="M2638.586,1615.424H2627v11.9a5.754,5.754,0,0,0,4.909,5.686l.215.03v8.1h-2.774v1.383h6.883v-1.383h-2.728v-8.094l.212-.031a5.761,5.761,0,0,0,4.864-5.684Zm-1.38,11.9a4.411,4.411,0,0,1-8.821,0v-3.031h8.821Zm0-4.411h-8.819v-6.1h8.819Z" transform="translate(-2627.005 -1615.424)" fill="#325358"/>
        </g>
      </g>
    </g>
    <g id="Group_118" data-name="Group 118" transform="translate(2121.474 1574.832)">
      <rect id="Rectangle_49" data-name="Rectangle 49" width="32.876" height="44.134" transform="translate(0 0)" fill="none"/>
    </g>
    <g id="Group_123" data-name="Group 123" transform="translate(2239.915 1577.984)">
      <g id="Group_122" data-name="Group 122" transform="translate(0 0)" clip-path="url(#clip-path-9)">
        <g id="Group_119" data-name="Group 119" transform="translate(11.134 18.301)">
          <path id="Path_305" data-name="Path 305" d="M2875.215,1625.218a7.774,7.774,0,1,0,7.77,7.774,7.782,7.782,0,0,0-7.77-7.774m0,14.324a6.549,6.549,0,1,1,6.545-6.549,6.556,6.556,0,0,1-6.545,6.549" transform="translate(-2867.444 -1625.218)" fill="#325358"/>
        </g>
        <g id="Group_120" data-name="Group 120" transform="translate(15.868 22.268)">
          <path id="Path_306" data-name="Path 306" d="M2878.312,1641.581a.442.442,0,0,0,.266.094,4.8,4.8,0,0,0,1.548-.7c1.015-.551,2.548-1.386,5.165-2.591a.629.629,0,0,0,.313-.549.636.636,0,0,0-.326-.557l-6.354-3.179a.439.439,0,0,0-.251-.072,1.371,1.371,0,0,0-.4.082c-.135.046-.272.354-.272.543.026,2.1,0,3.514-.023,4.546-.04,1.886-.031,2.137.339,2.383m.908-5.952,4.41,2.206-4.41,2.206Z" transform="translate(-2877.956 -1634.026)" fill="#325358"/>
        </g>
        <g id="Group_121" data-name="Group 121" transform="translate(0 0)">
          <path id="Path_307" data-name="Path 307" d="M2880.328,1594.266a.515.515,0,0,0-.41-.138h-28.39l-.969-.969,5.243-.43,7.315-.717,14.795-1.273a6.643,6.643,0,0,1,1.081-.1c1.044-.041,1.536-.121,1.536-.671v-4.775a.539.539,0,0,0-.186-.428.857.857,0,0,0-.507-.185c-5.1.479-32.3,2.821-36.568,3.182a.614.614,0,0,0-.548.613v11.141a.568.568,0,0,0,.612.612h.184v20.077a2.156,2.156,0,0,0,2.2,2.2h31.812a2.156,2.156,0,0,0,2.2-2.2v-20.077h.184a.568.568,0,0,0,.612-.612,28.7,28.7,0,0,1-.009-3.141c.042-1.063.073-1.832-.193-2.109m-2.56,1.088-3.014,3.549h-6.365l3.014-3.549Zm-7.953,0-3.015,3.549h-6.365l3.015-3.549Zm-14.309,0,.2-.011.006.011h6.148l-3.015,3.549h-6.411l.312-.312c.092-.1,1.808-2.1,2.454-2.872h-.062Zm20.092-9.155h.164l3.542-.33v3.551l-1.126.1-.061-.06c-.028-.029-.193-.225-.662-.774-.56-.659-1.562-1.838-1.814-2.111l-.046.005-.1-.2Zm-1.814.157.059.061c.028.028.193.221.66.771.562.659,1.566,1.84,1.819,2.112l.039,0,.107.2-.1.181h-.164l-5.425.479-2.839-3.285Zm-13.057,1.116.166,0,5.5-.477,2.841,3.285-5.929.517-.061-.06c-.026-.028-.193-.223-.662-.774-.561-.66-1.564-1.84-1.814-2.111l-.045,0-.1-.2Zm-7.318.636h.165l5.418-.479.06.061c.027.028.194.223.66.774.561.659,1.564,1.839,1.817,2.111l.037,0,.109.2-.106.179h-.164l-5.416.477-.061-.059c-.028-.028-.192-.223-.662-.774-.56-.659-1.564-1.839-1.815-2.111l-.045.005-.1-.2Zm-9.464.816,7.649-.659.061.061c.028.028.2.225.666.779.559.658,1.56,1.836,1.811,2.106l.037,0,.108.2-.1.179h-.167l-4.619.4-1.041-1.042h-4.218l0-.182h-.182Zm0,3.248h3.917l1.774,1.774-.127.13c-.647.646-1.041,1.04-1.284,1.278h0l-.312.313-.009-.012c-.079.067-.1.067-.122.067l-3.839,0Zm0,6.731v-1.957h4.4l.2-.2c.5-.5.817-.819,1.027-1.024h0l.311-.312.01.01c.077-.066.094-.066.122-.066l3.892,0-3.014,3.549Zm34.565,21.3a.936.936,0,0,1-.979.977H2845.72a.936.936,0,0,1-.979-.977v-20.077h33.769Zm.795-21.3h-2.965l2.965-3.462Z" transform="translate(-2842.721 -1584.579)" fill="#325358"/>
        </g>
      </g>
    </g>
    <g id="Group_124" data-name="Group 124" transform="translate(2239.915 1577.984)">
      <rect id="Rectangle_51" data-name="Rectangle 51" width="37.828" height="37.829" fill="none"/>
    </g>
    <g id="Group_125" data-name="Group 125" transform="translate(2338.53 1629.696)">
      <path id="Path_308" data-name="Path 308" d="M3065.689,1702.525v1.311h-2.611v3H3061.7v-7.166h4.918v1.312h-3.536v1.545Z" transform="translate(-3061.696 -1699.551)" fill="#2d5b60"/>
      <path id="Path_309" data-name="Path 309" d="M3081.407,1703.108c0,1.979-1.171,3.7-3.29,3.7s-3.291-1.721-3.291-3.7c0-1.956,1.207-3.7,3.291-3.7S3081.407,1701.152,3081.407,1703.108Zm-5.082,0c0,1.147.422,2.494,1.792,2.494,1.393,0,1.791-1.335,1.791-2.494,0-1.124-.445-2.47-1.791-2.47S3076.325,1701.984,3076.325,1703.108Z" transform="translate(-3068.913 -1699.407)" fill="#2d5b60"/>
      <path id="Path_310" data-name="Path 310" d="M3097.124,1705.192V1703h1.37v2.939a3.418,3.418,0,0,1-2.142.866,3.7,3.7,0,1,1-.281-7.4,3.783,3.783,0,0,1,2.423.785l-.55,1.159a2.771,2.771,0,0,0-1.6-.609,2.367,2.367,0,0,0-2.4,2.365,2.238,2.238,0,0,0,2.412,2.365A1.106,1.106,0,0,0,3097.124,1705.192Z" transform="translate(-3078.589 -1699.407)" fill="#2d5b60"/>
      <path id="Path_311" data-name="Path 311" d="M3112.89,1699.668l2.213,7.166h-1.394l-.574-1.721h-2.412l-.562,1.721h-1.405l2.213-7.166Zm-1.838,4.192h1.756l-.878-2.846Z" transform="translate(-3087.563 -1699.551)" fill="#2d5b60"/>
      <path id="Path_312" data-name="Path 312" d="M3122.848,1700.944v-1.276h5.784v1.276h-2.2v5.89h-1.382v-5.89Z" transform="translate(-3095.309 -1699.551)" fill="#2d5b60"/>
      <path id="Path_313" data-name="Path 313" d="M3143.16,1702.525v1.171h-2.81v1.827h3.536v1.311h-4.918v-7.166h4.918v1.312h-3.536v1.545Z" transform="translate(-3104.169 -1699.551)" fill="#2d5b60"/>
      <path id="Path_314" data-name="Path 314" d="M3157.8,1703.778l1.768,3.056h-1.6l-1.557-2.845h-1.183v2.845h-1.381v-7.166h3.126a2.1,2.1,0,0,1,2.131,2.166A2.037,2.037,0,0,1,3157.8,1703.778Zm-1.007-2.951h-1.569v2.026h1.581a.983.983,0,0,0,.948-1.019A1,1,0,0,0,3156.791,1700.827Z" transform="translate(-3112.344 -1699.551)" fill="#2d5b60"/>
      <path id="Path_315" data-name="Path 315" d="M3175.345,1703.108c0,1.979-1.172,3.7-3.291,3.7s-3.29-1.721-3.29-3.7c0-1.956,1.206-3.7,3.29-3.7S3175.345,1701.152,3175.345,1703.108Zm-5.082,0c0,1.147.421,2.494,1.791,2.494,1.394,0,1.792-1.335,1.792-2.494,0-1.124-.445-2.47-1.792-2.47S3170.262,1701.984,3170.262,1703.108Z" transform="translate(-3120.547 -1699.407)" fill="#2d5b60"/>
      <path id="Path_316" data-name="Path 316" d="M3188.635,1706.823a4.472,4.472,0,0,1-2.53-.738l.573-1.218a4.652,4.652,0,0,0,1.815.656,1.122,1.122,0,0,0,1.253-1.007c0-1.171-3.243-.808-3.243-2.986,0-1.487,1.183-2.1,2.529-2.1a3.229,3.229,0,0,1,2.084.656l-.445,1.03a2.76,2.76,0,0,0-1.487-.468c-.539,0-1.265.223-1.265.867,0,1.147,3.313.714,3.313,2.916A2.441,2.441,0,0,1,3188.635,1706.823Z" transform="translate(-3130.078 -1699.422)" fill="#2d5b60"/>
    </g>
    <g id="Group_128" data-name="Group 128" transform="translate(2352.051 1573.48)">
      <g id="Group_127" data-name="Group 127" transform="translate(0 0)" clip-path="url(#clip-path-10)">
        <g id="Group_126" data-name="Group 126" transform="translate(0 0)">
          <path id="Path_317" data-name="Path 317" d="M3124.837,1592.644h-11.216a8.02,8.02,0,0,0,2.2-2.778,7.679,7.679,0,0,0,.632-4.65,11.009,11.009,0,0,0-2.57-4.649c-.184-.233-.37-.465-.546-.7-.948-1.228-2.016-2.473-2.969-3.566-.439-.539-.877-1.039-1.247-1.482a.658.658,0,0,0-1.111.158c-.08.185-.181.373-.281.574-.651,1.264-1.634,3.167,0,6.513a4.742,4.742,0,0,0,.381.624,2.144,2.144,0,0,1,.5,1.491,2.065,2.065,0,0,1-1.319,1.837,1.848,1.848,0,0,1-1.986-.306c-.927-.838-1.066-2.632-.385-4.934a.708.708,0,0,0-.176-.808.663.663,0,0,0-.722-.083,10.083,10.083,0,0,0-3.022,4.663,7.306,7.306,0,0,0,.58,5.935,7.851,7.851,0,0,0,1.876,2.192H3092.38a.659.659,0,0,0-.66.658,16.878,16.878,0,0,0,10.053,15.382l-6.871,6.857a.658.658,0,1,0,.9.961c.012-.01.023-.021.033-.031l7.275-7.26a16.8,16.8,0,0,0,4.833.909v6.106a.659.659,0,0,0,1.318,0v-6.11a16.8,16.8,0,0,0,4.834-.909l7.288,7.265a.66.66,0,0,0,.936-.93l-6.871-6.857A16.874,16.874,0,0,0,3125.5,1593.3a.658.658,0,0,0-.659-.657m-18.892,0a6.775,6.775,0,0,1-3.207-2.8,6.641,6.641,0,0,1,.479-6.9,4.525,4.525,0,0,0,1.234,3.773,3.179,3.179,0,0,0,3.37.547,3.4,3.4,0,0,0,1.865-4.438,3.349,3.349,0,0,0-.5-.852,3.456,3.456,0,0,1-.281-.438c-1.245-2.584-.735-3.952-.15-5.084l.627.732c.927,1.08,1.981,2.3,2.906,3.51.183.237.368.478.558.715a9.851,9.851,0,0,1,2.31,4.079,6.369,6.369,0,0,1-.518,3.847,6.882,6.882,0,0,1-3.537,3.337h-5.127Zm3.339,16.206v-5.171a.658.658,0,0,0-1.317,0v5.148a15.575,15.575,0,0,1-14.9-14.869h31.1a15.576,15.576,0,0,1-14.9,14.869Z" transform="translate(-3091.72 -1574.58)" fill="#325358"/>
        </g>
      </g>
    </g>
    <g id="Group_129" data-name="Group 129" transform="translate(2352.051 1573.481)">
      <rect id="Rectangle_53" data-name="Rectangle 53" width="33.775" height="42.332" transform="translate(0)" fill="none"/>
    </g>
    <g id="Group_133" data-name="Group 133" transform="translate(1885.943 1697.776)">
      <g id="Group_132" data-name="Group 132" transform="translate(0 0)" clip-path="url(#clip-path-11)">
        <g id="Group_130" data-name="Group 130" transform="translate(15.645 29.745)">
          <path id="Path_318" data-name="Path 318" d="M2100.368,1926.654a4.227,4.227,0,0,0,0-8.455,4.148,4.148,0,0,0-2.6.924l-.06.046-2.76-2.374a.7.7,0,0,0-.45-.166h-2.347a.693.693,0,0,0,0,1.387h2.09l.027.024,2.529,2.173-.039.066a4.146,4.146,0,0,0-.6,2.148,4.223,4.223,0,0,0,4.212,4.226m-2.561-5.419.051-.109,1.67,1.435a.707.707,0,0,0,.974-.076.7.7,0,0,0-.076-.979l-1.652-1.421.107-.065a2.806,2.806,0,0,1,1.487-.433,2.859,2.859,0,1,1-2.561,1.647" transform="translate(-2091.46 -1916.63)" fill="#325358"/>
        </g>
        <g id="Group_131" data-name="Group 131" transform="translate(0 -0.001)">
          <path id="Path_319" data-name="Path 319" d="M2084.012,1897.415h1.566a1.478,1.478,0,0,0,1.474-1.479v-1.867l.072-.016a9.342,9.342,0,0,0,1.5-.447,9.088,9.088,0,0,0,2.846-1.75,8.266,8.266,0,0,0,1.918-2.623,7.643,7.643,0,0,0,0-6.464,8.119,8.119,0,0,0-1.919-2.617,8.621,8.621,0,0,0-1.552-1.112l-.062-.038.019-.068a21.622,21.622,0,0,0,.705-3.313,29.67,29.67,0,0,0-1.132-12.633,21.22,21.22,0,0,0-2.049-4.567l-.025-.04,1.884-4.1a2.279,2.279,0,0,0-1.1-2.982l-1.426-.66a.68.68,0,0,0-.288-.065.7.7,0,0,0-.63.4l-6.175,13.383a.7.7,0,0,0,.34.921l1.417.66a2.312,2.312,0,0,0,.957.219,2.261,2.261,0,0,0,2.044-1.314l.518-1.123.073.212c.023.066.052.131.079.2a2.609,2.609,0,0,1,.094.246,25.114,25.114,0,0,1,.951,10.624,18.466,18.466,0,0,1-.518,2.492l-.023.087-13.062-3.539a12.4,12.4,0,0,0-2.587-.664l-.078-.011v-3.438h3.221a1.479,1.479,0,0,0,1.475-1.48v-.322a2.276,2.276,0,0,0-1.776-2.211l-8.288-1.916a1.467,1.467,0,0,0-1.739,1.006,13.6,13.6,0,0,0-.535,3.359,1.491,1.491,0,0,0,1.473,1.564h1.655v3.615l-.071.018a11.4,11.4,0,0,0-1.552.469,11.539,11.539,0,0,0-3.615,2.314,10.362,10.362,0,0,0-2.453,3.34,9.747,9.747,0,0,0,0,8.23,10.354,10.354,0,0,0,2.452,3.339,11.584,11.584,0,0,0,3.617,2.236,11.868,11.868,0,0,0,1.552.456l.071.016v1.968a1.478,1.478,0,0,0,1.475,1.479h1.566a1.477,1.477,0,0,0,1.473-1.479v-1.662h12.7v1.662a1.478,1.478,0,0,0,1.473,1.479m1.657-1.388h-1.747v-1.753h1.747Zm-2.535-31.758a.876.876,0,0,1-1.154.422l-.795-.368,5.6-12.125.8.369a.879.879,0,0,1,.423,1.164Zm2.6-2.253-.017-.038.017-.038.93-2.022.085.166a21.459,21.459,0,0,1,1.375,3.318,28.287,28.287,0,0,1,1.075,12.014,21.556,21.556,0,0,1-.573,2.894l-.023.087-1.686-.455.024-.088a21.173,21.173,0,0,0,.544-2.659,26.74,26.74,0,0,0-1.013-11.242c-.241-.725-.483-1.36-.739-1.936m-22.157,6.531,0-.095a12.2,12.2,0,0,1,.5-3.029l.025-.082,8.378,1.919a.879.879,0,0,1,.672.876v.411Zm4.88,1.388v3.319h-.091a13.468,13.468,0,0,0-1.555.068l-.1.011v-3.4Zm0,26.092h-1.747v-1.753h1.747Zm-.392-3.179a10.729,10.729,0,0,1-3.878-.722,10.183,10.183,0,0,1-3.159-1.972,9,9,0,0,1-2.134-2.895,8.361,8.361,0,0,1,0-7.064,9.019,9.019,0,0,1,2.159-2.857,10.2,10.2,0,0,1,3.157-1.971,9.829,9.829,0,0,1,1.889-.537l.047,0a12.534,12.534,0,0,1,2.954-.133.3.3,0,0,0,.061-.01.381.381,0,0,1,.057-.01h.023a11.059,11.059,0,0,1,2.781.717l.083,0,16.047,4.342a6.006,6.006,0,0,1,.562.245l.019.006a.1.1,0,0,1,.026.013,7.238,7.238,0,0,1,1.74,1.178,6.829,6.829,0,0,1,1.587,2.173,6.26,6.26,0,0,1,0,5.291,6.844,6.844,0,0,1-1.587,2.179,7.751,7.751,0,0,1-2.376,1.479,8.091,8.091,0,0,1-2.93.548Z" transform="translate(-2056.72 -1850.578)" fill="#325358"/>
        </g>
      </g>
    </g>
    <g id="Group_134" data-name="Group 134" transform="translate(1885.943 1697.776)">
      <rect id="Rectangle_55" data-name="Rectangle 55" width="37.378" height="46.835" fill="none"/>
    </g>
    <g id="Group_137" data-name="Group 137" transform="translate(2232.709 1699.577)">
      <g id="Group_136" data-name="Group 136" transform="translate(0 0)" clip-path="url(#clip-path-12)">
        <g id="Group_135" data-name="Group 135" transform="translate(0 0.001)">
          <path id="Path_320" data-name="Path 320" d="M2837.392,1877.058v19.376a83.862,83.862,0,0,0-10.186,1.461.576.576,0,0,0,.13,1.136.552.552,0,0,0,.131-.015,83.119,83.119,0,0,1,9.925-1.427v2.349a.574.574,0,1,0,1.147,0v-2.449c1.374-.113,2.859-.211,4.444-.286v2.734a.573.573,0,1,0,1.147,0v-2.782a134.127,134.127,0,0,1,23.724,1.221v1.561a.574.574,0,1,0,1.147,0v-1.392c.986.147,1.978.3,2.984.477a.577.577,0,0,0,.195-1.137c-1.072-.186-2.13-.351-3.179-.508v-2.836h.868a.574.574,0,0,0,.573-.576v-3.014a.575.575,0,0,0-.573-.577h-1.921v-9.407a.574.574,0,1,0-1.147,0v.525h-21.949v-.525a.574.574,0,1,0-1.147,0v9.407h-1.459a.577.577,0,0,0-.575.577v3.014a.576.576,0,0,0,.575.576h.736v1.507c-1.582.073-3.067.171-4.443.283v-19.273a11.27,11.27,0,1,0-1.147,0m7.461,8.45H2866.8v2.008h-21.949Zm21.949-1.155h-21.949v-1.706H2866.8Zm-21.949,4.317H2866.8v1.707h-21.949Zm-2.034,2.861h26.476v1.861h-26.476Zm1.311,3.013h23.724v2.669a135.228,135.228,0,0,0-23.724-1.21Zm-6.141-38.81a10.094,10.094,0,0,1,.55,20.173v-1.043s0,0,.008-.008l4.078-6.026a.575.575,0,0,0-.951-.649l-3.135,4.633v-10.221a.574.574,0,1,0-1.147,0v6.748l-3.091-4.567a.575.575,0,1,0-.949.649l4.039,5.969v4.511a10.093,10.093,0,0,1,.6-20.17" transform="translate(-2826.721 -1854.581)" fill="#325358"/>
        </g>
      </g>
    </g>
    <g id="Group_138" data-name="Group 138" transform="translate(2232.709 1699.577)">
      <rect id="Rectangle_57" data-name="Rectangle 57" width="45.935" height="45.935" transform="translate(0 0)" fill="none"/>
    </g>
  </g>
</svg>
