<svg xmlns="http://www.w3.org/2000/svg" width="33.786" height="41.557" viewBox="0 0 33.786 41.557"><g transform="translate(-1465.758 -1419.507)"><path d="M1521.4,1474.342a2.511,2.511,0,0,1-2.566-1.94h-2.115a4.737,4.737,0,0,0,9.363,0h-2.115a2.512,2.512,0,0,1-2.566,1.94" transform="translate(-33.746 -35.024)" fill="#01545a"/><path d="M1502.369,1431.681a12.528,12.528,0,0,0-12.346,12.468h7.592a5.153,5.153,0,0,1,5.2-5.1l.124,0v0h12.675v-7.371Zm.567,18.848-.124,0a5.151,5.151,0,0,1-5.2-5.092h-7.592a12.528,12.528,0,0,0,12.346,12.449h13.242v-7.357h-12.675Z" transform="translate(-16.067 -8.061)" fill="#01545a"/><path d="M1521.4,1458.781a2.513,2.513,0,0,1,2.566,1.936h2.116a4.737,4.737,0,0,0-9.363,0h2.116a2.512,2.512,0,0,1,2.565-1.936" transform="translate(-33.746 -24.629)" fill="#01545a"/><path d="M1548.218,1525.017a.772.772,0,0,0,.275-.685.747.747,0,0,0-.255-.626,1.5,1.5,0,0,0-.808-.195h-.472v1.721h.276a1.78,1.78,0,0,0,.984-.215" transform="translate(-53.766 -68.865)" fill="#01545a"/><path d="M1548.514,1532.492a.9.9,0,0,0,.276-.7,1.014,1.014,0,0,0-.295-.783,1.288,1.288,0,0,0-.886-.255h-.708v1.977h.708a1.432,1.432,0,0,0,.905-.234" transform="translate(-53.728 -73.658)" fill="#01545a"/><path d="M1495.95,1524a2.818,2.818,0,0,0-.747-.549,2.083,2.083,0,0,0-.866-.176,1.962,1.962,0,0,0-.827.176,1.785,1.785,0,0,0-.689.47,2.152,2.152,0,0,0-.492.742,2.191,2.191,0,0,0-.177.863,2.286,2.286,0,0,0,.158.9,1.982,1.982,0,0,0,.453.725,2.027,2.027,0,0,0,.729.508,2.1,2.1,0,0,0,.846.177,2.076,2.076,0,0,0,1.575-.666,2.278,2.278,0,0,0,.629-1.663,2.24,2.24,0,0,0-.137-.8,2.706,2.706,0,0,0-.454-.7" transform="translate(-17.476 -68.71)" fill="#01545a"/><path d="M1486.286,1486.168c-.111,0-.222.008-.334.008a13.9,13.9,0,0,1-14.025-13.774h-6.169v23.686h33.786v-9.912h-13.258Zm-17.892,6.574a2.274,2.274,0,0,0,.453.724,2.028,2.028,0,0,0,.728.508,2.243,2.243,0,0,0,1.791-.019,1.764,1.764,0,0,0,.689-.568h1.063a2.938,2.938,0,0,1-1.063,1.213,3.033,3.033,0,0,1-1.634.431,3.136,3.136,0,0,1-1.279-.274,3.517,3.517,0,0,1-1.044-.763,3.351,3.351,0,0,1-.59-.979,3.835,3.835,0,0,1-.2-1.173,2.846,2.846,0,0,1,.256-1.214,3.247,3.247,0,0,1,.708-1.038,3.562,3.562,0,0,1,.984-.646,2.862,2.862,0,0,1,1.161-.214,2.945,2.945,0,0,1,1.634.431,2.671,2.671,0,0,1,1.063,1.252h-1.024a1.752,1.752,0,0,0-.709-.607,2.256,2.256,0,0,0-.964-.215,1.971,1.971,0,0,0-.827.177,1.786,1.786,0,0,0-.689.47,2.16,2.16,0,0,0-.492.742,2.2,2.2,0,0,0-.177.863,2.712,2.712,0,0,0,.157.9m11.379.294a3.007,3.007,0,0,1-.59.959,3.136,3.136,0,0,1-1.062.783,3.389,3.389,0,0,1-1.26.254,3.07,3.07,0,0,1-1.279-.274,3.277,3.277,0,0,1-1.044-.763,3.119,3.119,0,0,1-.787-2.153,3.09,3.09,0,0,1,.236-1.214,3.683,3.683,0,0,1,.728-1.038,3.3,3.3,0,0,1,.984-.646,2.863,2.863,0,0,1,1.161-.214,2.9,2.9,0,0,1,1.181.214,3.106,3.106,0,0,1,1,.666,2.992,2.992,0,0,1,.708,1.018,3.493,3.493,0,0,1,.216,1.214,3.369,3.369,0,0,1-.2,1.193m16.968-4.188h.886v6.066h-.886Zm-4.434,0h1.319a2.287,2.287,0,0,1,1.477.411,1.517,1.517,0,0,1,.511,1.253,1.357,1.357,0,0,1-.157.646,1.459,1.459,0,0,1-.491.489,1.236,1.236,0,0,1,.708.509,1.508,1.508,0,0,1,.256.9,1.818,1.818,0,0,1-.158.8,1.549,1.549,0,0,1-.432.606,2.027,2.027,0,0,1-.63.353,4.233,4.233,0,0,1-.984.1h-1.418Zm-4.219,0h3.168v.8h-2.283v1.819h2.283v.783h-2.283v1.82h2.283v.841h-3.168Zm-1.089,0v6.066h-.826l.058-5.264-1.967,5.264h-.631l-1.987-5.264.078,5.264h-.866v-6.066h1.319l1.77,4.677,1.771-4.677Z" transform="translate(0 -35.024)" fill="#01545a"/><path d="M1465.758,1419.507v16.583h6.168v0a13.9,13.9,0,0,1,14.025-13.778c.112,0,.223.006.334.008v-.008h13.258v-2.8Z" fill="#01545a"/></g></svg>