<svg xmlns="http://www.w3.org/2000/svg" width="359.264" height="112.604" viewBox="0 0 359.264 112.604">
  <g id="Group_5" data-name="Group 5" transform="translate(-1331.378 -949.251)">
    <g id="Group_2" data-name="Group 2" transform="translate(1604.903 949.251)">
      <g id="Group_1" data-name="Group 1">
        <path id="Path_1" data-name="Path 1" d="M1545.079,991.669l.7-.246.879,2.511-.7.241Z" transform="translate(-1541.682 -936.775)" fill="#d0a437"/>
        <path id="Path_2" data-name="Path 2" d="M1547.849,985.588l.029.819-5.24.176-.029-.819,2.04-.069-.128-3.683-2.034.067-.027-.816,5.242-.176.026.818-2.436.082.123,3.683Z" transform="translate(-1542.458 -939.832)" fill="#d0a437"/>
        <path id="Path_3" data-name="Path 3" d="M1546.128,974.783a2.556,2.556,0,0,1,2.093,3.25l-.386,2.295-5.179-.875.391-2.3A2.606,2.606,0,0,1,1546.128,974.783Zm-2.592,3.987,3.687.627.254-1.5a1.786,1.786,0,0,0-1.5-2.282,1.845,1.845,0,0,0-2.185,1.659Z" transform="translate(-1542.4 -941.71)" fill="#d0a437"/>
        <path id="Path_4" data-name="Path 4" d="M1544.471,971.171l.179-.481,5.844-.7-.3.823-1.485.175-.96,2.592,1.016,1.1-.3.811Zm3.461-.083-2.239.255,1.528,1.666Z" transform="translate(-1541.863 -943.116)" fill="#d0a437"/>
        <path id="Path_5" data-name="Path 5" d="M1550.366,967.516a.505.505,0,0,1,.235.708.521.521,0,0,1-.735.179.529.529,0,0,1-.237-.728A.519.519,0,0,1,1550.366,967.516Z" transform="translate(-1540.356 -943.873)" fill="#d0a437"/>
        <path id="Path_6" data-name="Path 6" d="M1555.75,963.309l-.6.559-3.566-3.832,2.641-2.457a1.48,1.48,0,1,1,2.3,1.859l2.638.693-.656.606-2.645-.662-1.677,1.562Zm-.038-4.138c.412-.386.46-.775.146-1.114s-.7-.311-1.116.073l-2.044,1.906.969,1.042Z" transform="translate(-1539.757 -946.957)" fill="#d0a437"/>
        <path id="Path_7" data-name="Path 7" d="M1556.693,955.593l4.178-2.571.4.653-3.479,2.139.688,1.11,2.282-1.406.4.641-2.287,1.409.872,1.407,3.669-2.263.4.641-4.364,2.69Z" transform="translate(-1538.247 -948.135)" fill="#d0a437"/>
        <path id="Path_8" data-name="Path 8" d="M1563.409,955.863a4.548,4.548,0,0,0,2.513-.137c.911-.351,1.291-.976,1.09-1.507-.215-.574-.815-.627-1.85-.259-1.5.545-2.419.653-2.817-.389-.3-.811.219-1.681,1.488-2.169a4.663,4.663,0,0,1,2.638-.2l-.146.783a4.036,4.036,0,0,0-2.24.114c-.776.3-1.116.775-.965,1.177.18.465.735.4,1.756.017,1.569-.6,2.557-.36,2.952.671.336.866-.191,1.915-1.552,2.435a5.5,5.5,0,0,1-2.995.253Z" transform="translate(-1536.6 -948.705)" fill="#d0a437"/>
        <path id="Path_9" data-name="Path 9" d="M1567.955,950.095l.811-.184,1.14,5.138-.806.176Z" transform="translate(-1534.915 -949.056)" fill="#d0a437"/>
        <path id="Path_10" data-name="Path 10" d="M1576.627,951.723a2.548,2.548,0,0,1-2.653,2.794l-2.316.163-.375-5.22,2.316-.165A2.6,2.6,0,0,1,1576.627,951.723Zm-4.475-1.569.264,3.719,1.517-.109a1.786,1.786,0,0,0,1.856-1.992,1.841,1.841,0,0,0-2.125-1.723Z" transform="translate(-1533.93 -949.24)" fill="#d0a437"/>
        <path id="Path_11" data-name="Path 11" d="M1577.9,949.251l4.875.592-.092.763-4.066-.495-.154,1.295,2.664.328-.092.749-2.664-.33-.2,1.646,4.289.526-.1.748-5.1-.625Z" transform="translate(-1532.16 -949.251)" fill="#d0a437"/>
        <path id="Path_12" data-name="Path 12" d="M1584.325,950.288l.4.128,2.02,4.53,1.144-3.5.762.249-1.62,4.977-.409-.132-2.025-4.517-1.139,3.487-.762-.249Z" transform="translate(-1530.553 -948.944)" fill="#d0a437"/>
        <path id="Path_13" data-name="Path 13" d="M1590.062,958.375a2.8,2.8,0,1,1,2.734-4.827,3.238,3.238,0,0,1,1.734,2.4l-.793.071a2.434,2.434,0,0,0-1.312-1.815,2.033,2.033,0,1,0-1.985,3.5,2.453,2.453,0,0,0,2.448.091l.346.719A3.2,3.2,0,0,1,1590.062,958.375Z" transform="translate(-1528.891 -948.125)" fill="#d0a437"/>
        <path id="Path_14" data-name="Path 14" d="M1596.3,956.09l.65.513-3.261,4.122-.649-.513Z" transform="translate(-1527.494 -947.228)" fill="#d0a437"/>
        <path id="Path_15" data-name="Path 15" d="M1600.288,959.195l.359.371-1.914,5.558-.609-.636.491-1.407-1.908-1.99-1.428.433-.6-.623Zm-1.429,3.146.746-2.123-2.16.645Z" transform="translate(-1527.01 -946.309)" fill="#d0a437"/>
        <path id="Path_16" data-name="Path 16" d="M1602.908,962.566l.456.679-3.72,2.494,2.168,3.229-.622.421-2.624-3.908Z" transform="translate(-1525.859 -945.312)" fill="#d0a437"/>
        <path id="Path_17" data-name="Path 17" d="M1606.337,974.049l-.709.225-.8-2.529.706-.225Z" transform="translate(-1524.006 -942.663)" fill="#d0a437"/>
        <path id="Path_18" data-name="Path 18" d="M1604.261,980.626l-.017-.818,5.244-.085.014.815-2.036.038.06,3.683,2.037-.035.014.814-5.243.091-.011-.816,2.436-.041-.06-3.685Z" transform="translate(-1524.179 -940.236)" fill="#d0a437"/>
        <path id="Path_19" data-name="Path 19" d="M1605.75,991.561a2.552,2.552,0,0,1-2-3.294l.448-2.278,5.133,1.012-.446,2.276A2.6,2.6,0,0,1,1605.75,991.561Zm2.688-3.907-3.657-.719-.29,1.488a1.783,1.783,0,0,0,1.434,2.316,1.837,1.837,0,0,0,2.22-1.593Z" transform="translate(-1524.348 -938.383)" fill="#d0a437"/>
        <path id="Path_20" data-name="Path 20" d="M1607.427,995.192l-.192.479-5.869.544.325-.814,1.493-.135,1.026-2.568-.979-1.126.322-.806Zm-3.466-.006,2.25-.2-1.482-1.707Z" transform="translate(-1525.031 -936.969)" fill="#d0a437"/>
        <path id="Path_21" data-name="Path 21" d="M1600.348,997.561a.5.5,0,0,1-.214-.711.521.521,0,0,1,.735-.161.534.534,0,0,1,.225.732A.521.521,0,0,1,1600.348,997.561Z" transform="translate(-1525.416 -935.243)" fill="#d0a437"/>
        <path id="Path_22" data-name="Path 22" d="M1596.326,1002.98l.613-.54,3.478,3.913-2.7,2.4a1.465,1.465,0,0,1-2.246.049,1.484,1.484,0,0,1-.012-1.967l-2.623-.75.673-.594,2.629.726,1.713-1.52Zm-.054,4.141c-.425.38-.487.77-.174,1.117s.695.325,1.115-.052l2.088-1.853-.941-1.064Z" transform="translate(-1527.555 -933.516)" fill="#d0a437"/>
        <path id="Path_23" data-name="Path 23" d="M1595.076,1010.708l-4.231,2.467-.389-.662,3.534-2.055-.653-1.13-2.32,1.353-.382-.651,2.321-1.349-.835-1.432-3.724,2.172-.382-.652,4.429-2.58Z" transform="translate(-1528.98 -932.406)" fill="#d0a437"/>
        <path id="Path_24" data-name="Path 24" d="M1587.959,1010a4.541,4.541,0,0,0-2.526.073c-.925.32-1.322.942-1.139,1.479.2.579.8.651,1.844.316,1.529-.509,2.448-.591,2.817.465.286.818-.264,1.681-1.546,2.126a4.68,4.68,0,0,1-2.653.131l.167-.781a4.025,4.025,0,0,0,2.251-.052c.784-.276,1.139-.748,1-1.151-.166-.476-.723-.428-1.756-.062-1.593.553-2.58.284-2.948-.758-.3-.881.257-1.915,1.63-2.4a5.563,5.563,0,0,1,3.01-.167Z" transform="translate(-1530.349 -931.55)" fill="#d0a437"/>
        <path id="Path_25" data-name="Path 25" d="M1582.481,1015.538l-.811.158-1.012-5.156.811-.161Z" transform="translate(-1531.157 -931.167)" fill="#d0a437"/>
        <path id="Path_26" data-name="Path 26" d="M1574.61,1013.713a2.556,2.556,0,0,1,2.732-2.732l2.325-.1.244,5.24-2.327.106A2.609,2.609,0,0,1,1574.61,1013.713Zm4.447,1.687-.17-3.733-1.521.07a1.79,1.79,0,0,0-1.913,1.953,1.846,1.846,0,0,0,2.082,1.781Z" transform="translate(-1532.947 -931.02)" fill="#d0a437"/>
        <path id="Path_27" data-name="Path 27" d="M1573.348,1016.27l-4.853-.718.115-.758,4.043.6.193-1.291-2.658-.393.11-.749,2.654.393.245-1.631-4.269-.638.111-.745,5.073.754Z" transform="translate(-1534.755 -931.179)" fill="#d0a437"/>
        <path id="Path_28" data-name="Path 28" d="M1567.026,1015.194l-.407-.144-1.9-4.582-1.233,3.469-.758-.27,1.757-4.933.4.141,1.91,4.568,1.228-3.452.753.27Z" transform="translate(-1536.462 -931.654)" fill="#d0a437"/>
        <path id="Path_29" data-name="Path 29" d="M1561.526,1006.813a2.786,2.786,0,1,1-2.849,4.731,3.206,3.206,0,0,1-1.665-2.435l.788-.051a2.433,2.433,0,0,0,1.262,1.843,2.025,2.025,0,1,0,2.069-3.431,2.452,2.452,0,0,0-2.433-.156l-.33-.726A3.2,3.2,0,0,1,1561.526,1006.813Z" transform="translate(-1538.153 -932.382)" fill="#d0a437"/>
        <path id="Path_30" data-name="Path 30" d="M1554.719,1008.635l-.637-.53,3.373-4.034.638.533Z" transform="translate(-1539.02 -933.033)" fill="#d0a437"/>
        <path id="Path_31" data-name="Path 31" d="M1551.352,1005.816l-.351-.381,2.05-5.51.591.647-.525,1.4,1.863,2.037,1.44-.4.586.639Zm1.5-3.11-.793,2.1,2.173-.595Z" transform="translate(-1539.931 -934.26)" fill="#d0a437"/>
        <path id="Path_32" data-name="Path 32" d="M1548.5,1002.537l-.439-.691,3.8-2.4-2.088-3.294.636-.4,2.526,3.982Z" transform="translate(-1540.799 -935.495)" fill="#d0a437"/>
      </g>
      <path id="Path_33" data-name="Path 33" d="M1598.027,964.85A55.382,55.382,0,0,0,1582.291,972l-.188.128v.231a17,17,0,0,1-.119,2.22q-.156-.725-.308-1.409l-.146-.644-.53.39a36.248,36.248,0,0,0-14.732,24.394,57.48,57.48,0,0,0-5.47,11.923.622.622,0,0,0,.138.508l.2.183h.193a.507.507,0,0,0,.473-.3l.109-.2c2.945-5.557,11.112-20.955,23.785-32.151a174.92,174.92,0,0,0-16.656,20.536l-.7,1,1.169-.337a39.938,39.938,0,0,0,22.167-15.525l.382-.542-.656-.13a16.792,16.792,0,0,0-4.225-.154c1.453-.495,3.434-1.048,5.932-1.639l.181-.047.1-.159c.523-.907,1.013-1.83,1.5-2.821l.358-.735-.807.124c-.774.109-1.591.244-2.44.393.937-.384,2.071-.826,3.405-1.306l.176-.063.073-.174a43.036,43.036,0,0,0,2.916-10.36l.1-.669Zm-3.088,10.336a33.128,33.128,0,0,0-6.129,2.664L1587.135,979l2.866-.523c1.315-.24,2.576-.472,3.748-.658-.33.64-.662,1.261-1.013,1.867-4.527,1.081-7.3,2-8.485,2.806l-1.54,1.051,1.839-.27a23.821,23.821,0,0,1,6.017-.255,38.942,38.942,0,0,1-20.1,14.271,157.23,157.23,0,0,1,21.35-24.807l-.53-.674c-13.76,9.413-23.314,24.828-28.017,33.3a69.3,69.3,0,0,1,3.782-7.425l.056-.152a35.394,35.394,0,0,1,13.872-23.513c.155.7.311,1.444.469,2.2l.34,1.642.544-1.2a10.444,10.444,0,0,0,.632-4.073,54.159,54.159,0,0,1,14.652-6.716A42.539,42.539,0,0,1,1594.939,975.185Z" transform="translate(-1537.035 -944.692)" fill="#d0a437"/>
    </g>
    <rect id="Rectangle_2" data-name="Rectangle 2" width="12.307" height="4.061" transform="translate(1609.376 1010.399)" fill="#fff"/>
    <g id="Group_4" data-name="Group 4" transform="translate(1331.378 983.058)">
      <path id="Path_34" data-name="Path 34" d="M1573.069,983.131c0-3.5-2.562-5.947-6.231-5.947h-5.878v1.727h1.742a.093.093,0,0,1,.04.005v8.441a.12.12,0,0,1-.04,0h-1.742v1.727h5.878C1570.507,989.089,1573.069,986.641,1573.069,983.131Zm-6.231,4.231h-1.8v-8.45h1.8c2.2,0,3.675,1.7,3.675,4.219S1569.041,987.361,1566.839,987.361Z" transform="translate(-1263.459 -974.794)" fill="#fff"/>
      <path id="Path_35" data-name="Path 35" d="M1581.929,985.016h-1.687l-.07.674c-.128,1.264-.24,1.672-1.095,1.672h-3.05v-2.65h1.431c.571,0,.615.163.706.881l.1.653h1.561v-4.8h-1.561l-.091.6c-.1.736-.152.929-.714.929h-1.431v-4.07h2.564c.86,0,.974.409,1.1,1.669l.073.682h1.681v-4.078h-9.483v1.727h1.736a.081.081,0,0,1,.039.005v8.441a.1.1,0,0,1-.039,0h-1.736v1.727h9.97Z" transform="translate(-1260.205 -974.794)" fill="#fff"/>
      <path id="Path_36" data-name="Path 36" d="M1591.075,984.649h-1.686l-.065.718c-.128,1.479-.249,1.994-1.1,1.994H1585.5v-8.445a.092.092,0,0,1,.039-.005h2.06v-1.727h-6.175v1.727h1.739a.105.105,0,0,1,.042.005v8.441a.136.136,0,0,1-.042,0h-1.739v1.727h9.647Z" transform="translate(-1257.404 -974.794)" fill="#fff"/>
      <path id="Path_37" data-name="Path 37" d="M1462.937,990.448v-12.08a.6.6,0,0,1,.692-.695h2.411v-2.1h-8.734v2.1h2.6a.605.605,0,0,1,.695.695v12.08c0,2.922-2.085,4.884-5.2,4.884-3.128,0-5.228-1.962-5.228-4.884v-12.08c0-.474.218-.695.688-.695h3.01v-2.1h-9.983v2.1h2.409a.605.605,0,0,1,.695.695v12.08c0,4.113,3.5,7.1,8.309,7.1C1459.943,997.55,1462.937,994.763,1462.937,990.448Z" transform="translate(-1298.093 -975.27)" fill="#fff"/>
      <path id="Path_38" data-name="Path 38" d="M1473.335,995.383h-2.724a.608.608,0,0,1-.7-.7V980.176l6.886,11.977.084.135h1.179l6.653-12.132v14.53a.605.605,0,0,1-.693.7h-2.413v2.1h9.7v-2.1h-2.728c-.474,0-.691-.222-.691-.7v-16.08a.6.6,0,0,1,.691-.7h2.728v-2.094h-6.557l-6.855,12.54-7.091-12.4-.079-.137h-6.572v2.094h2.716a.608.608,0,0,1,.7.7v16.08a.606.606,0,0,1-.7.7h-2.716v2.1h9.176Z" transform="translate(-1292.096 -975.199)" fill="#fff"/>
      <path id="Path_39" data-name="Path 39" d="M1506.844,991.583c0-2.752-1.776-4.67-4.919-5.411,2.745-.79,4.237-2.493,4.237-4.892,0-3.422-3-5.463-8.028-5.463h-9.375v2.094h2.729a.6.6,0,0,1,.688.7v16.08c0,.474-.218.7-.688.7h-2.729v2.1h10.054C1503.763,997.479,1506.844,995.217,1506.844,991.583Zm-8.709-6.356h-2.78v-7.316h2.78c2.86,0,4.569,1.235,4.569,3.3C1502.7,983.207,1501.132,985.227,1498.134,985.227Zm.679,10.185h-3.458v-8.089h3.458c3.164,0,4.576,2.137,4.576,4.259C1503.389,993.948,1501.636,995.413,1498.813,995.413Z" transform="translate(-1284.819 -975.199)" fill="#fff"/>
      <path id="Path_40" data-name="Path 40" d="M1523.549,994.289,1522,991.156a5.334,5.334,0,0,0-2.78-2.764c3.377-.993,5.664-3.5,5.664-6.339,0-3.785-3.521-6.236-8.966-6.236h-9.43v2.094h2.719a.608.608,0,0,1,.7.7v16.08a.607.607,0,0,1-.7.7h-2.719v2.1h10.323v-2.1h-3.032a.611.611,0,0,1-.695-.7v-5.842h2.213a2.808,2.808,0,0,1,2.738,1.4l3.355,7.075.07.157h6.684v-2.1h-1.883C1524.532,995.383,1523.974,995.161,1523.549,994.289Zm-10.464-16.378h2.834c5.109,0,5.5,3.188,5.5,4.169,0,1.734-1.157,4.673-5.5,4.673h-2.834Z" transform="translate(-1279.573 -975.199)" fill="#fff"/>
      <path id="Path_41" data-name="Path 41" d="M1544.061,990.879h-2.067l-.077.74c-.207,2.1-.371,3.764-2.716,3.764h-6.474v-6.324h3.366c1.678,0,1.795.925,1.959,2.211.021.167.047.344.072.512l.036.229h1.865v-7.994h-1.865l-.095.631c-.179,1.3-.327,2.321-1.974,2.321h-3.366v-9.058h5.54c2.351,0,2.515,1.663,2.723,3.77l.076.736h2.064v-6.6h-17v2.094h2.72a.606.606,0,0,1,.695.7v16.08a.605.605,0,0,1-.695.7h-2.72v2.1h17.927Z" transform="translate(-1273.762 -975.199)" fill="#fff"/>
      <path id="Path_42" data-name="Path 42" d="M1553.234,984.713c-2.641-.881-4.924-1.639-4.924-3.882,0-2.047,1.793-3.368,4.578-3.368a5.275,5.275,0,0,1,4.315,1.754,2.041,2.041,0,0,0-1.577,1.981,2,2,0,0,0,2.072,1.977,2.045,2.045,0,0,0,2.164-2.287c0-2.726-2.761-5.549-7.384-5.549-4.231,0-7.193,2.469-7.193,6.011,0,4.078,3.475,5.194,6.547,6.182,2.716.873,5.282,1.7,5.282,4.384,0,2.141-1.874,3.58-4.661,3.58-3.151,0-4.5-1.542-5.058-2.676a2.026,2.026,0,0,0,1.875-2.025,1.944,1.944,0,0,0-2.041-1.976,2.382,2.382,0,0,0-2.409,2.562c0,3,2.418,6.238,7.719,6.238,4.4,0,7.6-2.611,7.6-6.2C1560.141,987.005,1556.472,985.787,1553.234,984.713Z" transform="translate(-1268.234 -975.34)" fill="#fff"/>
      <path id="Path_43" data-name="Path 43" d="M1435.625,997.621a.218.218,0,0,0,.03-.005l.032.005c.066,0,.114-.021.177-.026a10.884,10.884,0,0,0,2.287-.284c.249-.06.489-.139.726-.214a9.564,9.564,0,0,0,1.971-.851c.005,0,.014-.009.023-.012,2.589-1.529,3.908-3.983,3.908-5.623a2.24,2.24,0,0,0-2.286-2.383,2.038,2.038,0,0,0-2.171,2.036,1.783,1.783,0,0,0,1.343,1.806,6.633,6.633,0,0,1-5.8,3.319,7.141,7.141,0,0,1-7.049-5.159.211.211,0,0,1-.014-.035,10.379,10.379,0,0,1-.281-1.214c-.035-.188-.095-.363-.123-.556a13.35,13.35,0,0,1-.1-1.459c0-.167-.035-.315-.035-.486s.031-.319.035-.489a13.467,13.467,0,0,1,.1-1.46c.028-.191.088-.364.123-.553a10.056,10.056,0,0,1,.281-1.213.1.1,0,0,1,.014-.032,7.136,7.136,0,0,1,7.049-5.161,6.629,6.629,0,0,1,5.8,3.317,1.785,1.785,0,0,0-1.343,1.806,2.04,2.04,0,0,0,2.171,2.037,2.243,2.243,0,0,0,2.286-2.386c0-1.69-1.411-4.243-4.163-5.756-.275-.158-.556-.307-.851-.442-.108-.044-.225-.079-.337-.123a9.035,9.035,0,0,0-1.5-.439c-.092-.018-.176-.042-.27-.061a11.778,11.778,0,0,0-1.976-.185l-.032,0a.281.281,0,0,0-.03,0,10.851,10.851,0,0,0-11.046,11.135v.008A10.852,10.852,0,0,0,1435.625,997.621Z" transform="translate(-1303.805 -975.34)" fill="#fff"/>
      <g id="Group_3" data-name="Group 3" transform="translate(0 6.958)">
        <rect id="Rectangle_3" data-name="Rectangle 3" width="106.518" height="2.699" fill="#fff"/>
      </g>
      <path id="Path_44" data-name="Path 44" d="M1358.018,1028.151l-14.079-24.635-.082-.143h-12.479v3.61h5.086a1.416,1.416,0,0,1,1.6,1.6v31.45a1.417,1.417,0,0,1-1.6,1.6h-5.086v3.61h17.456v-3.61h-5.086a1.417,1.417,0,0,1-1.6-1.6v-29.277l13.916,24.209.087.141h2.032l13.387-24.433v29.36a1.413,1.413,0,0,1-1.59,1.6h-4.477v3.61h18.487v-3.61h-5.086a1.415,1.415,0,0,1-1.59-1.6v-31.45a1.414,1.414,0,0,1,1.59-1.6h5.086v-3.61h-12.423Z" transform="translate(-1331.378 -967.047)" fill="#fff"/>
      <path id="Path_45" data-name="Path 45" d="M1418.589,1039.982l-16.273-36.442-.074-.167h-2.2l-15.743,36.369a2.912,2.912,0,0,1-2.65,1.891h-2.6v3.61h15.52v-3.61h-4.789a1.146,1.146,0,0,1-1-.415,1.133,1.133,0,0,1,0-1.072l2.837-6.746h17.84l3.024,6.813a1.039,1.039,0,0,1,.017.98,1.27,1.27,0,0,1-1.1.439h-4.17v3.61h16.422v-3.61h-2.411A2.813,2.813,0,0,1,1418.589,1039.982Zm-10.6-10.013h-14.911l7.275-17.259Z" transform="translate(-1317.273 -967.047)" fill="#fff"/>
      <path id="Path_46" data-name="Path 46" d="M1452.278,1039.365l-3.039-6.135a10.046,10.046,0,0,0-5.993-5.545c6.889-1.765,11.611-6.732,11.611-12.362,0-7.258-6.784-11.95-17.292-11.95h-18.2v3.61h5.082a1.416,1.416,0,0,1,1.6,1.6v31.45a1.417,1.417,0,0,1-1.6,1.6h-5.082v3.61h19.7v-3.61h-5.688a1.419,1.419,0,0,1-1.6-1.6v-11.67h4.565c1.941,0,4.49.5,5.575,2.875l6.557,13.841.076.166h12.677v-3.61h-3.448C1454.324,1041.632,1453.141,1041.144,1452.278,1039.365Zm-20.495-32.382h5.782c8.117,0,11.009,4.339,11.009,8.4,0,3.475-2.32,9.357-11.009,9.357h-5.782Z" transform="translate(-1305.348 -967.047)" fill="#fff"/>
      <path id="Path_47" data-name="Path 47" d="M1502.216,1033.3a3.372,3.372,0,0,0-3.447,3.447,2.989,2.989,0,0,0,1.895,2.831,3.237,3.237,0,0,1-.819.1c-1.45,0-2.283-.8-3.6-2.142a21.685,21.685,0,0,0,4.269-13.093,21.178,21.178,0,1,0-6.554,15.681,9.889,9.889,0,0,0,5.949,2.139c3.394,0,6.052-2.237,6.052-5.1A3.727,3.727,0,0,0,1502.216,1033.3Zm-23.052,8.828c-8.765,0-14.653-7.106-14.653-17.687s5.888-17.688,14.653-17.688,14.648,7.106,14.648,17.688a22.394,22.394,0,0,1-1.835,9.289,9.981,9.981,0,0,0-5.974-2.186c-3.442,0-5.934,2.034-5.934,4.839a3.577,3.577,0,0,0,3.685,3.628,3.382,3.382,0,0,0,3.566-3.329,2.7,2.7,0,0,0-1.2-2.313c.062-.005.12-.006.179-.006,1.332,0,2.243.885,3.753,2.355l.095.1A13.273,13.273,0,0,1,1479.164,1042.132Z" transform="translate(-1293.977 -967.185)" fill="#fff"/>
      <path id="Path_48" data-name="Path 48" d="M1525.246,1006.983h4.837a1.417,1.417,0,0,1,1.6,1.6V1032.2c0,5.859-4.179,9.791-10.4,9.791-6.158,0-10.461-4.026-10.461-9.791v-23.622a1.416,1.416,0,0,1,1.6-1.6h5.63v-3.61h-19.04v3.61h4.478a1.417,1.417,0,0,1,1.6,1.6V1032.2c0,7.907,6.737,13.641,16.015,13.641,8.918,0,14.677-5.356,14.677-13.641v-23.622a1.416,1.416,0,0,1,1.594-1.6h4.478v-3.61h-16.6Z" transform="translate(-1281.787 -967.047)" fill="#fff"/>
      <path id="Path_49" data-name="Path 49" d="M1568.357,1034.06c-.422,4.23-.755,7.573-5.563,7.573h-12.889v-12.844h6.815c3.505,0,3.77,2.1,4.079,4.55.042.318.084.645.131.973l.041.242h3.2V1019.4h-3.2l-.041.246c-.038.256-.075.514-.11.775-.349,2.548-.653,4.749-4.1,4.749h-6.815v-18.19h11.067c4.81,0,5.142,3.346,5.563,7.579l.128,1.23h3.579v-12.419h-32.758v3.61h5.089a1.415,1.415,0,0,1,1.6,1.6v31.45a1.417,1.417,0,0,1-1.6,1.6h-5.089v3.61h34.586v-12.417h-3.586Z" transform="translate(-1270.404 -967.047)" fill="#fff"/>
      <path id="Path_50" data-name="Path 50" d="M1589.009,1021.219c-5.261-1.748-9.8-3.256-9.8-7.824,0-4.14,3.605-6.816,9.189-6.816,5.305,0,7.849,2.434,8.857,3.812a3.83,3.83,0,0,0-3.256,3.728,3.642,3.642,0,0,0,3.806,3.63c1.2,0,3.994-.412,3.994-4.231,0-5.217-5.308-10.613-14.2-10.613-8.142,0-13.825,4.735-13.825,11.526,0,7.8,6.421,9.857,12.635,11.849,5.4,1.739,10.507,3.376,10.507,8.795,0,4.336-3.769,7.244-9.371,7.244-6.591,0-9.223-3.387-10.25-5.672a3.784,3.784,0,0,0,3.792-3.755,3.567,3.567,0,0,0-3.742-3.631,4.387,4.387,0,0,0-4.48,4.779c0,5.75,4.651,11.942,14.862,11.942,8.468,0,14.62-5,14.62-11.881C1602.349,1025.648,1595.262,1023.295,1589.009,1021.219Z" transform="translate(-1259.937 -967.185)" fill="#fff"/>
      <path id="Path_51" data-name="Path 51" d="M1606.575,1029.86a3.779,3.779,0,1,0,3.772,3.78A3.788,3.788,0,0,0,1606.575,1029.86Z" transform="translate(-1251.082 -959.211)" fill="#fff"/>
    </g>
  </g>
</svg>
