<svg xmlns="http://www.w3.org/2000/svg" width="122.943" height="189.88" viewBox="0 0 122.943 189.88"><g transform="translate(-335.719 -13.846)"><g transform="translate(335.719 44.227)"><path d="M379.546,185.345a5.069,5.069,0,0,1-4.689-6.977c.44-1.081-.162-5.271-4.825-10.676A150.318,150.318,0,0,1,356.9,150.466c-7.944-12.534-17.226-28.9-18.071-30.393a18.124,18.124,0,0,1-2.494-14.651A14.989,14.989,0,0,1,344.138,96c9.846-4.777,16.729,1.16,19.322,3.392a33.987,33.987,0,0,1,4.061,4.562V41.514c0-7.97,5.993-14.815,13.643-15.59A15.214,15.214,0,0,1,397.9,41.036v18.6a14.9,14.9,0,0,1,17.745,6.22,15.161,15.161,0,0,1,9.122-1.957,15.529,15.529,0,0,1,13.5,13.509,15.156,15.156,0,0,1,6.749-.851c7.651.775,13.641,7.62,13.641,15.59v32.434c0,8-1.6,24.345-7.605,34.91-3.355,5.9-7.732,14.415-6.993,20.14a5.063,5.063,0,1,1-10.043,1.3c-1.114-8.638,3.813-18.666,8.231-26.438,4.972-8.744,6.284-23.388,6.284-29.907V92.148A5.389,5.389,0,0,0,444,86.632a5.092,5.092,0,0,0-5.6,5.038V101.8a5.063,5.063,0,1,1-10.127,0V79.49a5.389,5.389,0,0,0-4.532-5.517,5.092,5.092,0,0,0-5.6,5.038V94.2a5.063,5.063,0,0,1-10.127,0V74.426A5.389,5.389,0,0,0,403.5,68.91a5.092,5.092,0,0,0-5.6,5.038V94.2a5.063,5.063,0,0,1-10.127,0V41.036A5.091,5.091,0,0,0,382.181,36a5.391,5.391,0,0,0-4.534,5.517v77.11a5.063,5.063,0,0,1-9.081,3.081c-9.324-12.152-11.347-14.294-11.745-14.661-3.37-2.906-5.309-3.365-8.261-1.929a4.831,4.831,0,0,0-2.486,3.076,8.232,8.232,0,0,0,1.375,6.57c.048.076.091.149.134.225.1.172,9.719,17.2,17.869,30.056A138.176,138.176,0,0,0,377.7,161.076c6.436,7.463,8.879,15.357,6.532,21.114A5.068,5.068,0,0,1,379.546,185.345Z" transform="translate(-335.719 -25.846)" fill="#fff"/></g><g transform="translate(349.799 13.846)"><path d="M397.114,69.136a2.532,2.532,0,0,1-1.909-4.193,27.849,27.849,0,1,0-42.026,0,2.531,2.531,0,1,1-3.82,3.322,32.911,32.911,0,1,1,49.669,0A2.534,2.534,0,0,1,397.114,69.136Z" transform="translate(-341.28 -13.846)" fill="#efb245"/></g></g></svg>