<svg xmlns="http://www.w3.org/2000/svg" width="735.959" height="720.544" viewBox="0 0 735.959 720.544"><g transform="translate(-22.362 -696.156)"><path d="M304.385,736.07l-89.657-9.229a3.594,3.594,0,0,0-3.944,3.925l9.173,93.508a3.593,3.593,0,0,0,4.157,3.2l56.113-9.226a3.6,3.6,0,0,1,1.538.081l30.389,8.365a3.592,3.592,0,0,0,4.524-3.854l-9.089-83.579a3.594,3.594,0,0,0-3.2-3.186" transform="translate(401.847 65.406)" fill="#dfa627"/><g transform="translate(22.361 696.156)"><path d="M24.713,1017.2a2.35,2.35,0,0,1-1.169-4.389L271.86,870.386a13.83,13.83,0,0,1,16.651,2.193l51.514,51.439a10.842,10.842,0,0,0,13.048,1.717l397.8-229.262a2.349,2.349,0,1,1,2.347,4.07L355.421,929.8a15.534,15.534,0,0,1-18.713-2.459L285.194,875.9a9.135,9.135,0,0,0-10.993-1.445L25.881,1016.883A2.361,2.361,0,0,1,24.713,1017.2Z" transform="translate(-22.361 -696.156)" fill="#fff"/></g><g transform="translate(22.64 1061.072)"><path d="M755.781,1099.5a2.328,2.328,0,0,1-1.664-.693L480.174,823.8a22.021,22.021,0,0,0-26.7-3.446l-427.5,246.455a2.349,2.349,0,1,1-2.347-4.07L451.11,816.289a26.714,26.714,0,0,1,32.391,4.189L757.444,1095.5a2.35,2.35,0,0,1-1.664,4.007Z" transform="translate(-22.451 -812.634)" fill="#fff"/></g><g transform="translate(632.932 763.451)"><path d="M219.6,949.433a2.351,2.351,0,0,1-2.35-2.35v-227.1a2.35,2.35,0,1,1,4.7,0v227.1A2.349,2.349,0,0,1,219.6,949.433Z" transform="translate(-217.252 -717.636)" fill="#fff"/></g><g transform="translate(23.335 726.199)"><path d="M491.844,1396.246a2.351,2.351,0,0,1-2.35-2.35V1194.607a44.88,44.88,0,0,0-13.23-31.946L23.361,709.755a2.348,2.348,0,1,1,3.321-3.321l452.9,452.9a49.551,49.551,0,0,1,14.609,35.27V1393.9A2.351,2.351,0,0,1,491.844,1396.246Z" transform="translate(-22.672 -705.745)" fill="#fff"/></g><g transform="translate(379.685 1082.577)"><path d="M159.168,852.936H147.116a10.71,10.71,0,0,1-10.7-10.7V830.192a10.708,10.708,0,0,1,10.7-10.693h12.052a10.7,10.7,0,0,1,10.693,10.693V842.24A10.707,10.707,0,0,1,159.168,852.936ZM147.116,824.2a6,6,0,0,0-6,5.993V842.24a6.006,6.006,0,0,0,6,6h12.052a6,6,0,0,0,5.993-6V830.192a6,6,0,0,0-5.993-5.993Z" transform="translate(-136.417 -819.499)" fill="#fff"/></g><g transform="translate(23.363 990.549)"><path d="M25.033,951.333a2.351,2.351,0,0,1-1.2-4.373l262.06-155.207a12.124,12.124,0,0,1,6.062-1.629h459.4a2.35,2.35,0,1,1,0,4.7h-459.4a7.386,7.386,0,0,0-3.687.987L26.23,951A2.31,2.31,0,0,1,25.033,951.333Z" transform="translate(-22.681 -790.124)" fill="#fff"/></g><g transform="translate(256.988 880.034)"><path d="M216.369,870.062a2.35,2.35,0,0,1-2.35-2.35V820.456a3.956,3.956,0,0,0-6-3.387l-24,14.5a12.779,12.779,0,0,1-15.7-1.933L97.937,758.857a2.352,2.352,0,0,1,3.333-3.318l70.384,70.778a8.089,8.089,0,0,0,9.934,1.225l24-14.5a8.653,8.653,0,0,1,13.13,7.409v47.256A2.35,2.35,0,0,1,216.369,870.062Z" transform="translate(-97.253 -754.848)" fill="#fff"/></g><text transform="translate(467.795 855.654) rotate(-30.398)" fill="#fff" font-size="17" font-family="Vision-Regular, Vision"><tspan x="0" y="0" letter-spacing="-0.029em">E</tspan><tspan y="0">s</tspan><tspan y="0" letter-spacing="-0.029em">t</tspan><tspan y="0" letter-spacing="-0.05em">a</tspan><tspan y="0" letter-spacing="-0.029em">ta</tspan><tspan y="0">l </tspan><tspan y="0" letter-spacing="-0.019em">N</tspan><tspan y="0" letter-spacing="-0.029em">o</tspan><tspan y="0">. </tspan><tspan y="0" letter-spacing="-0.029em">2</tspan><tspan y="0">00</tspan></text><text transform="translate(421.244 979.954) rotate(0.165)" fill="#fff" font-size="17" font-family="Vision-Regular, Vision"><tspan x="0" y="0" letter-spacing="-0.03em">P</tspan><tspan y="0" letter-spacing="-0.039em">r</tspan><tspan y="0">ol. </tspan><tspan y="0" letter-spacing="-0.049em">C</tspan><tspan y="0" letter-spacing="-0.029em">o</tspan><tspan y="0" letter-spacing="-0.049em">n</tspan><tspan y="0">s</tspan><tspan y="0" letter-spacing="-0.05em">t</tspan><tspan y="0">i</tspan><tspan y="0" letter-spacing="-0.02em">t</tspan><tspan y="0" letter-spacing="-0.019em">u</tspan><tspan y="0" letter-spacing="-0.03em">y</tspan><tspan y="0">en</tspan><tspan y="0" letter-spacing="-0.039em">t</tspan><tspan y="0" letter-spacing="-0.03em">e</tspan><tspan y="0">s</tspan></text><text transform="translate(494.866 914.007) rotate(0.164)" fill="#fff" font-size="17" font-family="Spectral-Italic, Spectral" font-style="italic"><tspan x="0" y="0" letter-spacing="-0.024em">El </tspan><tspan y="0" letter-spacing="-0.025em">M</tspan><tspan y="0" letter-spacing="-0.024em">i</tspan><tspan y="0" letter-spacing="-0.044em">r</tspan><tspan y="0" letter-spacing="-0.035em">a</tspan><tspan y="0" letter-spacing="-0.025em">d</tspan><tspan y="0" letter-spacing="-0.024em">o</tspan><tspan y="0">r</tspan></text><text transform="translate(654.325 918.2) rotate(0.164)" fill="#fff" font-size="17" font-family="Spectral-Italic, Spectral" font-style="italic"><tspan x="0" y="0" letter-spacing="-0.075em">A</tspan><tspan y="0" letter-spacing="-0.024em">cc</tspan><tspan y="0" letter-spacing="-0.025em">es</tspan><tspan y="0" letter-spacing="-0.024em">o </tspan><tspan y="0">A</tspan></text><text transform="translate(654.327 772.521) rotate(0.164)" fill="#fff" font-size="17" font-family="Spectral-Italic, Spectral" font-style="italic"><tspan x="0" y="0" letter-spacing="-0.075em">A</tspan><tspan y="0" letter-spacing="-0.024em">cce</tspan><tspan y="0" letter-spacing="-0.025em">s</tspan><tspan y="0" letter-spacing="-0.024em">o </tspan><tspan y="0">B</tspan></text><text transform="translate(94.382 1095.946) rotate(-30.446)" fill="#fff" font-size="17" font-family="Vision-Regular, Vision"><tspan x="0" y="0" letter-spacing="-0.1em">A</tspan><tspan y="0" letter-spacing="-0.049em">v</tspan><tspan y="0">. </tspan><tspan y="0" letter-spacing="-0.05em">C</tspan><tspan y="0" letter-spacing="-0.029em">o</tspan><tspan y="0" letter-spacing="-0.049em">n</tspan><tspan y="0">s</tspan><tspan y="0" letter-spacing="-0.049em">t</tspan><tspan y="0">i</tspan><tspan y="0" letter-spacing="-0.019em">tu</tspan><tspan y="0" letter-spacing="-0.029em">y</tspan><tspan y="0">en</tspan><tspan y="0" letter-spacing="-0.039em">t</tspan><tspan y="0" letter-spacing="-0.03em">e</tspan><tspan y="0">s</tspan></text><text transform="translate(45.983 991.937) rotate(-30.446)" fill="#fff" font-size="17" font-family="Vision-Regular, Vision"><tspan x="0" y="0">C</tspan><tspan y="0" letter-spacing="-0.029em">a</tspan><tspan y="0">lz. </tspan><tspan y="0" letter-spacing="-0.03em">d</tspan><tspan y="0">e </tspan><tspan y="0" letter-spacing="-0.049em">lo</tspan><tspan y="0">s </tspan><tspan y="0" letter-spacing="-0.029em">A</tspan><tspan y="0" letter-spacing="-0.039em">r</tspan><tspan y="0" letter-spacing="-0.029em">c</tspan><tspan y="0" letter-spacing="-0.049em">o</tspan><tspan y="0">s</tspan></text><text transform="translate(49.141 739.909) rotate(44.723)" fill="#fff" font-size="17" font-family="Vision-Regular, Vision"><tspan x="0" y="0">B</tspan><tspan y="0" letter-spacing="-0.08em">l</tspan><tspan y="0">v</tspan><tspan y="0" letter-spacing="-0.049em">r</tspan><tspan y="0">d. </tspan><tspan y="0" letter-spacing="-0.049em">B</tspan><tspan y="0">ern</tspan><tspan y="0" letter-spacing="-0.039em">a</tspan><tspan y="0" letter-spacing="-0.049em">r</tspan><tspan y="0" letter-spacing="-0.029em">d</tspan><tspan y="0">o </tspan><tspan y="0" letter-spacing="-0.049em">Q</tspan><tspan y="0">uin</tspan><tspan y="0" letter-spacing="-0.029em">t</tspan><tspan y="0" letter-spacing="-0.03em">a</tspan><tspan y="0">na</tspan></text><g transform="translate(497.01 1192.106)"><text transform="translate(4.391 204.126) rotate(89.769)" fill="#fff" font-size="17" font-family="Vision-Regular, Vision"><tspan x="0" y="0">a</tspan></text><text transform="translate(5.351 193.184) rotate(89.769)" fill="#fff" font-size="15" font-family="Vision-Regular, Vision"><tspan x="0" y="0">n</tspan></text><text transform="translate(4.308 182.815) rotate(89.769)" fill="#fff" font-size="17" font-family="Vision-Regular, Vision"><tspan x="0" y="0">a</tspan></text><text transform="translate(5.28 176.299) rotate(89.769)" fill="#fff" font-size="15" font-family="Vision-Regular, Vision"><tspan x="0" y="0">t</tspan></text><text transform="translate(5.237 165.36) rotate(89.769)" fill="#fff" font-size="15" font-family="Vision-Regular, Vision"><tspan x="0" y="0">n</tspan></text><text transform="translate(4.216 160.255) rotate(89.769)" fill="#fff" font-size="17" font-family="Vision-Regular, Vision"><tspan x="0" y="0">i</tspan></text><text transform="translate(4.173 149.277) rotate(89.769)" fill="#fff" font-size="17" font-family="Vision-Regular, Vision"><tspan x="0" y="0">u</tspan></text><text transform="translate(4.12 136.758) rotate(89.769)" fill="#fff" font-size="17" font-family="Vision-Regular, Vision"><tspan x="0" y="0">Q</tspan></text><text transform="translate(4.102 131.75) rotate(89.769)" fill="#fff" font-size="17" font-family="Vision-Regular, Vision"><tspan x="0" y="0"> </tspan></text><text transform="translate(4.056 120.172) rotate(89.769)" fill="#fff" font-size="17" font-family="Vision-Regular, Vision"><tspan x="0" y="0">o</tspan></text><text transform="translate(4.012 109.592) rotate(89.769)" fill="#fff" font-size="17" font-family="Vision-Regular, Vision"><tspan x="0" y="0">d</tspan></text><text transform="translate(5.985 102.99) rotate(89.769)" fill="#fff" font-size="14" font-family="Vision-Regular, Vision"><tspan x="0" y="0">r</tspan></text><text transform="translate(3.945 92.803) rotate(89.769)" fill="#fff" font-size="17" font-family="Vision-Regular, Vision"><tspan x="0" y="0">a</tspan></text><text transform="translate(4.899 81.861) rotate(89.769)" fill="#fff" font-size="15" font-family="Vision-Regular, Vision"><tspan x="0" y="0">n</tspan></text><text transform="translate(5.871 74.264) rotate(89.769)" fill="#fff" font-size="14" font-family="Vision-Regular, Vision"><tspan x="0" y="0">r</tspan></text><text transform="translate(4.828 63.712) rotate(89.769)" fill="#fff" font-size="16" font-family="Vision-Regular, Vision"><tspan x="0" y="0">e</tspan></text><text transform="translate(3.785 53.236) rotate(89.769)" fill="#fff" font-size="17" font-family="Vision-Regular, Vision"><tspan x="0" y="0">B</tspan></text><text transform="translate(3.766 48.228) rotate(89.769)" fill="#fff" font-size="17" font-family="Vision-Regular, Vision"><tspan x="0" y="0"> </tspan></text><text transform="translate(7.748 43.944) rotate(89.769)" fill="#fff" font-size="11" font-family="Vision-Regular, Vision"><tspan x="0" y="0">.</tspan></text><text transform="translate(3.701 32.782) rotate(89.769)" fill="#fff" font-size="17" font-family="Vision-Regular, Vision"><tspan x="0" y="0">d</tspan></text><text transform="translate(5.674 26.182) rotate(89.769)" fill="#fff" font-size="14" font-family="Vision-Regular, Vision"><tspan x="0" y="0">r</tspan></text><text transform="translate(4.637 16.148) rotate(89.769)" fill="#fff" font-size="16" font-family="Vision-Regular, Vision"><tspan x="0" y="0">v</tspan></text><text transform="translate(3.618 11.527) rotate(89.769)" fill="#fff" font-size="17" font-family="Vision-Regular, Vision"><tspan x="0" y="0">l</tspan></text><text transform="translate(3.572 0.048) rotate(89.769)" fill="#fff" font-size="17" font-family="Vision-Regular, Vision"><tspan x="0" y="0">B</tspan></text></g><text transform="translate(547.284 1120.021) rotate(44.723)" fill="#fff" font-size="19" font-family="Vision-Regular, Vision"><tspan x="0" y="0" letter-spacing="-0.08em">A</tspan><tspan y="0">u</tspan><tspan y="0" letter-spacing="-0.039em">t</tspan><tspan y="0">o</tspan><tspan y="0" letter-spacing="-0.029em">pi</tspan><tspan y="0">s</tspan><tspan y="0" letter-spacing="-0.03em">t</tspan><tspan y="0">a </tspan><tspan y="0" letter-spacing="-0.019em">M</tspan><tspan y="0" letter-spacing="-0.069em">é</tspan><tspan y="0" letter-spacing="-0.029em">x</tspan><tspan y="0">i</tspan><tspan y="0" letter-spacing="-0.03em">c</tspan><tspan y="0">o - </tspan><tspan y="0" letter-spacing="-0.049em">Q</tspan><tspan y="0" letter-spacing="-0.01em">u</tspan><tspan y="0">e</tspan><tspan y="0" letter-spacing="-0.039em">r</tspan><tspan y="0">é</tspan><tspan y="0" letter-spacing="-0.029em">t</tspan><tspan y="0" letter-spacing="-0.038em">a</tspan><tspan y="0" letter-spacing="-0.039em">r</tspan><tspan y="0">o</tspan></text><text transform="matrix(0.863, -0.505, 0.505, 0.863, 136.915, 1240.325)" fill="#fff" font-size="19" font-family="Vision-Regular, Vision"><tspan x="0" y="0" letter-spacing="-0.08em">A</tspan><tspan y="0">u</tspan><tspan y="0" letter-spacing="-0.039em">t</tspan><tspan y="0">o</tspan><tspan y="0" letter-spacing="-0.029em">pi</tspan><tspan y="0">s</tspan><tspan y="0" letter-spacing="-0.03em">t</tspan><tspan y="0">a </tspan><tspan y="0" letter-spacing="-0.019em">M</tspan><tspan y="0" letter-spacing="-0.07em">é</tspan><tspan y="0" letter-spacing="-0.03em">x</tspan><tspan y="0">i</tspan><tspan y="0" letter-spacing="-0.029em">c</tspan><tspan y="0">o - </tspan><tspan y="0" letter-spacing="-0.049em">Q</tspan><tspan y="0" letter-spacing="-0.009em">u</tspan><tspan y="0">e</tspan><tspan y="0" letter-spacing="-0.039em">r</tspan><tspan y="0">é</tspan><tspan y="0" letter-spacing="-0.03em">t</tspan><tspan y="0" letter-spacing="-0.038em">a</tspan><tspan y="0" letter-spacing="-0.039em">r</tspan><tspan y="0">o</tspan></text><path d="M179.386,774.311a13.861,13.861,0,0,0-1.018-3.594l-.013-.041a13.339,13.339,0,0,0-.852-1.795,6.736,6.736,0,0,1,1.375-8.641l.207-.178a.926.926,0,0,0,.047-1.363l-6.162-6.175a.94.94,0,0,0-1.319-.006l-.069.075a6.179,6.179,0,0,1-8.293.219,10.54,10.54,0,0,1-.805-.852.935.935,0,0,0-1.451-.013c-.273.335-.63.761-.733.852a6.174,6.174,0,0,1-8.327-.229l-.05-.041a.925.925,0,0,0-1.275.034l-6.266,6.288a.934.934,0,0,0,.025,1.338l.345.316a6.718,6.718,0,0,1,2.061,4.865,7.161,7.161,0,0,1-.934,3.75.118.118,0,0,0-.028.056,18.667,18.667,0,0,0-1.513,3.979c-.047.2-.088.376-.116.542a8.594,8.594,0,0,0-.157,1.62,8.445,8.445,0,0,0,1.538,4.928,8.249,8.249,0,0,0,3.86,3.214,13.66,13.66,0,0,0,3.456.639c.648.056,1.294.172,1.967.288l.1.016a19.7,19.7,0,0,1,2.34.555,10.52,10.52,0,0,1,2.124.868,16.319,16.319,0,0,1,1.67,1.429.942.942,0,0,0,.633.248h.059a.96.96,0,0,0,.655-.332,8.244,8.244,0,0,1,1.118-.968,8.46,8.46,0,0,1,1.767-.94,16.643,16.643,0,0,1,3.086-.868c.67-.129,1.413-.248,2.271-.364.241-.028.482-.047.724-.075.266-.022.542-.047.818-.081a8.037,8.037,0,0,0,1.573-.414,9.63,9.63,0,0,0,1.065-.426,7.154,7.154,0,0,0,1.848-1.347,9.113,9.113,0,0,0,2.334-3.807,9.55,9.55,0,0,0,.373-2.563,8.463,8.463,0,0,0-.063-1.009" transform="translate(259.583 118.278)" fill="#dfa627"/><text transform="translate(407.413 891.727)" fill="#fff" font-size="16" font-family="Vision-Heavy, Vision" font-weight="800"><tspan x="0" y="0" letter-spacing="-0.05em">2</tspan><tspan y="0">00</tspan></text><path d="M208.49,841.807a13.859,13.859,0,0,0-1.018-3.593l-.013-.041a13.349,13.349,0,0,0-.852-1.8,6.735,6.735,0,0,1,1.375-8.64l.207-.179a.926.926,0,0,0,.047-1.363l-6.162-6.175a.94.94,0,0,0-1.319-.006l-.069.075a6.179,6.179,0,0,1-8.293.219,10.532,10.532,0,0,1-.805-.852.936.936,0,0,0-1.451-.013c-.273.335-.63.761-.733.852a6.175,6.175,0,0,1-8.327-.229l-.05-.041a.925.925,0,0,0-1.275.034l-6.266,6.288a.934.934,0,0,0,.025,1.338l.345.316a6.718,6.718,0,0,1,2.061,4.865,7.159,7.159,0,0,1-.934,3.75.121.121,0,0,0-.028.056,18.67,18.67,0,0,0-1.513,3.979c-.047.2-.088.376-.116.542a8.6,8.6,0,0,0-.157,1.62,8.447,8.447,0,0,0,1.538,4.928,8.25,8.25,0,0,0,3.86,3.214,13.673,13.673,0,0,0,3.456.639c.648.056,1.294.172,1.967.288l.1.016a19.719,19.719,0,0,1,2.34.555,10.509,10.509,0,0,1,2.124.868,16.257,16.257,0,0,1,1.67,1.429.945.945,0,0,0,.633.247h.06a.959.959,0,0,0,.655-.332,8.215,8.215,0,0,1,1.118-.968,8.453,8.453,0,0,1,1.767-.94,16.681,16.681,0,0,1,3.086-.868c.67-.128,1.413-.247,2.271-.363.241-.028.482-.047.724-.075.266-.022.542-.047.818-.081a8.056,8.056,0,0,0,1.573-.414,9.669,9.669,0,0,0,1.065-.426,7.156,7.156,0,0,0,1.848-1.347,9.109,9.109,0,0,0,2.334-3.806,9.55,9.55,0,0,0,.373-2.563,8.466,8.466,0,0,0-.063-1.009" transform="translate(321.658 262.24)" fill="#dfa627"/><text transform="translate(503.071 1103.187)" fill="#fff" font-size="15" font-family="Vision-Heavy, Vision" font-weight="800"><tspan x="0" y="0">45</tspan></text><path d="M73.36,897.669a13.86,13.86,0,0,0-1.018-3.594l-.013-.041a13.325,13.325,0,0,0-.852-1.795,6.736,6.736,0,0,1,1.375-8.641l.207-.178a.926.926,0,0,0,.047-1.363l-6.162-6.175a.94.94,0,0,0-1.319-.006l-.069.075a6.178,6.178,0,0,1-8.293.219,10.454,10.454,0,0,1-.805-.852.936.936,0,0,0-1.451-.013c-.273.335-.63.761-.733.852a6.174,6.174,0,0,1-8.327-.229l-.05-.041a.925.925,0,0,0-1.275.034l-6.266,6.288a.934.934,0,0,0,.025,1.337l.345.317a6.718,6.718,0,0,1,2.061,4.865,7.159,7.159,0,0,1-.934,3.75.121.121,0,0,0-.028.057,18.67,18.67,0,0,0-1.513,3.979c-.047.2-.088.376-.116.542a8.6,8.6,0,0,0-.157,1.62,8.446,8.446,0,0,0,1.538,4.928,8.249,8.249,0,0,0,3.86,3.214,13.662,13.662,0,0,0,3.456.639c.649.056,1.294.172,1.967.288l.1.015a19.824,19.824,0,0,1,2.34.555,10.54,10.54,0,0,1,2.124.868,16.289,16.289,0,0,1,1.67,1.429.944.944,0,0,0,.633.247h.06a.958.958,0,0,0,.655-.332,8.223,8.223,0,0,1,1.118-.968,8.442,8.442,0,0,1,1.767-.94,16.667,16.667,0,0,1,3.086-.868c.67-.128,1.413-.247,2.271-.363.241-.028.482-.047.724-.075.266-.022.542-.047.818-.081a8.039,8.039,0,0,0,1.573-.414,9.624,9.624,0,0,0,1.065-.426,7.158,7.158,0,0,0,1.848-1.347,9.11,9.11,0,0,0,2.334-3.806,9.55,9.55,0,0,0,.373-2.563,8.465,8.465,0,0,0-.063-1.009" transform="translate(33.441 381.388)" fill="#dfa627"/><text transform="translate(79.723 1278.194)" fill="#fff" font-size="15" font-family="Vision-Heavy, Vision" font-weight="800"><tspan x="0" y="0">45</tspan></text><path d="M231.58,749.922a.917.917,0,0,0-.984.918.811.811,0,0,0,.771.84,3.59,3.59,0,0,1-3.221,1.952c-2.488-.041-4.079-1.864-4.079-4.756s1.591-4.712,4.079-4.753a3.6,3.6,0,0,1,3.221,1.952.811.811,0,0,0-.771.84.915.915,0,0,0,.984.918,1.017,1.017,0,0,0,1.046-1.093,3.96,3.96,0,0,0-2.983-3.242c-.113-.034-.222-.069-.342-.1a5.365,5.365,0,0,0-1.159-.141c-.028,0-.056-.009-.088-.009h-.031a5.63,5.63,0,0,0,0,11.26h.031c.028,0,.05-.013.078-.013a5.357,5.357,0,0,0,1.2-.153c.116-.028.229-.06.341-.1a3.949,3.949,0,0,0,2.948-3.23,1.017,1.017,0,0,0-1.046-1.093" transform="translate(426.748 100.445)" fill="#fff"/><path d="M237.06,754.154a5.453,5.453,0,1,1,5.4-5.451,5.361,5.361,0,0,1-5.4,5.451m0-.84c2.321,0,3.832-1.87,3.832-4.612s-1.51-4.608-3.832-4.608-3.832,1.867-3.832,4.608,1.51,4.612,3.832,4.612" transform="translate(446.396 100.443)" fill="#fff"/><path d="M239.876,747.022a1.348,1.348,0,0,1-1.479,1.225,2.885,2.885,0,0,1-1.945-.9c-.749-.655-1.031-1.125-1.541-1.125a.965.965,0,0,0-.285.054.612.612,0,0,1,.467.62.793.793,0,0,1-.833.78.846.846,0,0,1-.88-.861,1.29,1.29,0,0,1,1.447-1.169,3.028,3.028,0,0,1,2.046,1c.717.639.934,1.087,1.51,1.087a.809.809,0,0,0,.426-.11.716.716,0,0,1-.627-.714.793.793,0,0,1,.808-.808.884.884,0,0,1,.887.921" transform="translate(450.075 105.56)" fill="#fff"/><path d="M246.37,740.176l-8.127,14.85-8.484-14.85h-7.124v1.795h2.838a1.008,1.008,0,0,1,1.118,1.115v5.442h2.087v-4.793l8.556,14.884h1.009l8.193-14.956v4.9h3.058v-5.477a1.008,1.008,0,0,1,1.115-1.115h2.842v-1.795Z" transform="translate(427.162 93.891)" fill="#fff"/><path d="M249.493,743.086v18.625a1,1,0,0,0,1.115,1.115h2.842v1.795H242.842v-1.795h2.484a1,1,0,0,0,1.109-1.115V743.663l-8.2,14.953h-1.009l-8.556-14.881v17.977a1,1,0,0,0,1.115,1.115h2.842v1.795h-10v-1.795h2.838a1.006,1.006,0,0,0,1.118-1.115V743.086a1.007,1.007,0,0,0-1.118-1.115h-2.838v-1.795h7.121l8.484,14.85,8.13-14.85h7.08v1.795h-2.842a1,1,0,0,0-1.115,1.115" transform="translate(427.162 93.891)" fill="#fff"/><path d="M238.123,748.414a1.353,1.353,0,1,1-1.35-1.353,1.349,1.349,0,0,1,1.35,1.353" transform="translate(454.422 108.576)" fill="#fff"/><path d="M233.376,725.571a9.146,9.146,0,1,1-9.145-9.145,9.145,9.145,0,0,1,9.145,9.145" transform="translate(411.054 43.235)" fill="#fff"/><path d="M233.376,772.212a9.146,9.146,0,1,1-9.145-9.145,9.145,9.145,0,0,1,9.145,9.145" transform="translate(411.054 142.715)" fill="#fff"/><path d="M199.878,761.725a9.146,9.146,0,1,1-9.145-9.145,9.145,9.145,0,0,1,9.145,9.145" transform="translate(339.607 120.347)" fill="#fff"/></g></svg>