<svg xmlns="http://www.w3.org/2000/svg" width="128.998" height="27.03" viewBox="0 0 128.998 27.03"><g transform="translate(485.831 -638.012)"><path d="M-462.063,643.207a7.314,7.314,0,0,0-2.317-1.469,7.308,7.308,0,0,0-2.695-.511,7.236,7.236,0,0,0-5.153,2.133,7.312,7.312,0,0,0-2.131,5.186,7.322,7.322,0,0,0,2.131,5.189,7.242,7.242,0,0,0,5.153,2.136c.382,0-.208.007.112,0a6.781,6.781,0,0,0,4.785-1.749,6.123,6.123,0,0,0,1.71-3.578H-467v-2.914h9.508l.017,1.445,0,.139h0a9.45,9.45,0,0,1-2.668,6.98,9.63,9.63,0,0,1-6.8,2.58l-.134,0v0c.048,0,.179,0,0,0a10.134,10.134,0,0,1-7.212-3,10.23,10.23,0,0,1-2.986-7.238,10.228,10.228,0,0,1,2.984-7.236,10.151,10.151,0,0,1,7.214-3,10.227,10.227,0,0,1,3.765.717,10.255,10.255,0,0,1,3.239,2.062l-1.992,2.117Zm-5.012,15.573c-.024,0-.017,0,0,0v0Zm9.606-9.563c0,.024,0,.017,0,0Zm0,0c0-.046,0-.172,0,0Z" transform="translate(11.886 0.417)" fill="#01545a" fill-rule="evenodd"/><path d="M-461.923,641.381a6.623,6.623,0,0,1,4.677,1.921,6.485,6.485,0,0,1,1.94,4.62,6.484,6.484,0,0,1-1.94,4.62,6.623,6.623,0,0,1-4.677,1.921,6.627,6.627,0,0,1-4.677-1.921,6.492,6.492,0,0,1-1.937-4.62,6.493,6.493,0,0,1,1.937-4.62,6.627,6.627,0,0,1,4.677-1.921Zm2.678,3.762A3.724,3.724,0,0,0-461.923,644a3.715,3.715,0,0,0-2.676,1.142,3.975,3.975,0,0,0-1.108,2.778A3.975,3.975,0,0,0-464.6,650.7a3.715,3.715,0,0,0,2.676,1.142,3.724,3.724,0,0,0,2.678-1.142,3.985,3.985,0,0,0,1.109-2.778A3.985,3.985,0,0,0-459.245,645.143Z" transform="translate(24.017 4.679)" fill="#01545a" fill-rule="evenodd"/><path d="M-455.967,641.381a6.623,6.623,0,0,1,4.677,1.921,6.493,6.493,0,0,1,1.937,4.62,6.492,6.492,0,0,1-1.937,4.62,6.623,6.623,0,0,1-4.677,1.921,6.627,6.627,0,0,1-4.677-1.921,6.492,6.492,0,0,1-1.937-4.62,6.493,6.493,0,0,1,1.937-4.62,6.627,6.627,0,0,1,4.677-1.921Zm2.678,3.762A3.725,3.725,0,0,0-455.967,644a3.715,3.715,0,0,0-2.676,1.142,3.975,3.975,0,0,0-1.108,2.778,3.975,3.975,0,0,0,1.108,2.778,3.715,3.715,0,0,0,2.676,1.142,3.725,3.725,0,0,0,2.678-1.142,3.986,3.986,0,0,0,1.108-2.778A3.986,3.986,0,0,0-453.289,645.143Z" transform="translate(32.289 4.679)" fill="#01545a" fill-rule="evenodd"/><path d="M-450.635,641.381a5.012,5.012,0,0,1,3.832,1.507v-1.14h2.7v12.463a6.562,6.562,0,0,1-1.921,4.606,6.024,6.024,0,0,1-3.913,1.546,7.009,7.009,0,0,1-3.729-.948,6.335,6.335,0,0,1-2.463-2.857l2.48-1.118a3.611,3.611,0,0,0,3.712,2.353,3.344,3.344,0,0,0,3.129-3.409v-1.431a4.924,4.924,0,0,1-3.555,1.51,6.332,6.332,0,0,1-4.508-1.921,6.838,6.838,0,0,1-1.753-4.62c0-3.636,3-6.541,5.984-6.541Zm3.051,3.762A3.464,3.464,0,0,0-450.133,644a3.466,3.466,0,0,0-2.551,1.142,4.087,4.087,0,0,0-1.056,2.778,3.733,3.733,0,0,0,3.607,3.992,3.534,3.534,0,0,0,2.549-1.214,4.086,4.086,0,0,0,1.056-2.778A4.087,4.087,0,0,0-447.584,645.143Z" transform="translate(40.571 4.679)" fill="#01545a" fill-rule="evenodd"/><rect width="2.793" height="19.195" transform="translate(-401.778 639.571)" fill="#01545a"/><path d="M-446.075,647.691l5.948-2.394c-1.051-1.35-2.575-2-4.587-.633a3.74,3.74,0,0,0-1.362,3.027Zm.444,2.214c1.1,2.62,4.974,2.649,6.44.2l2.212,1.484a6.469,6.469,0,0,1-5.475,2.926,6.275,6.275,0,0,1-4.606-1.878,6.9,6.9,0,0,1-.263-9.259,6.059,6.059,0,0,1,6.572-1.622c1.644.6,2.977,2.042,3.951,4.553C-439.744,647.5-442.68,648.718-445.63,649.906Z" transform="translate(51.185 4.68)" fill="#01545a" fill-rule="evenodd"/><g transform="translate(-485.831 638.012)"><path d="M-469.276,646.122h0a8.491,8.491,0,0,0-8.273-8.11,8.491,8.491,0,0,0-8.273,8.11h0c0,.124-.01.251-.01.378,0,3.406,2.792,5.447,4.935,8.239a19.674,19.674,0,0,1,2.9,6.947.454.454,0,0,0,.884,0,19.674,19.674,0,0,1,2.9-6.947c2.143-2.792,4.935-4.833,4.935-8.239C-469.267,646.373-469.272,646.246-469.276,646.122Zm-8.273,2.551a2.51,2.51,0,0,1-2.511-2.508,2.511,2.511,0,0,1,2.511-2.511,2.511,2.511,0,0,1,2.511,2.511A2.51,2.51,0,0,1-477.549,648.673Z" transform="translate(485.831 -638.012)" fill="#01545a"/></g><g transform="translate(-381.369 650.967)"><path d="M-441.1,651.24h-1v-7.8h1l2.716,4.751h.041l2.716-4.751h1v7.8h-1v-4.634l.041-1.307h-.041l-2.444,4.283h-.588L-441.1,645.3h-.043l.043,1.307Z" transform="translate(442.102 -643.435)" fill="#01545a"/><path d="M-436.251,644.393a2.49,2.49,0,0,1,1.753.592,2.111,2.111,0,0,1,.645,1.632v3.292h-.96v-.743h-.043a1.915,1.915,0,0,1-1.655.917,2.147,2.147,0,0,1-1.479-.526,1.669,1.669,0,0,1-.592-1.307,1.585,1.585,0,0,1,.624-1.319,2.649,2.649,0,0,1,1.675-.49,3,3,0,0,1,1.472.325v-.227a1.146,1.146,0,0,0-.413-.889,1.417,1.417,0,0,0-.97-.365,1.536,1.536,0,0,0-1.331.709l-.882-.557A2.459,2.459,0,0,1-436.251,644.393Zm-1.3,3.88a.8.8,0,0,0,.332.654,1.227,1.227,0,0,0,.779.263,1.6,1.6,0,0,0,1.13-.468,1.473,1.473,0,0,0,.495-1.1,2.046,2.046,0,0,0-1.307-.37,1.7,1.7,0,0,0-1.02.294A.873.873,0,0,0-437.549,648.273Z" transform="translate(446.989 -642.104)" fill="#01545a"/><path d="M-433.323,650.083a2.307,2.307,0,0,1-1.075-.251,1.877,1.877,0,0,1-.745-.667h-.045l.045.743v2.353h-1v-7.694h.958v.74h.045a1.89,1.89,0,0,1,.745-.664,2.307,2.307,0,0,1,1.075-.251,2.284,2.284,0,0,1,1.787.829,2.916,2.916,0,0,1,.753,2.016,2.888,2.888,0,0,1-.753,2.016A2.292,2.292,0,0,1-433.323,650.083Zm-.165-.917a1.576,1.576,0,0,0,1.211-.542,1.974,1.974,0,0,0,.49-1.386,1.983,1.983,0,0,0-.49-1.383,1.564,1.564,0,0,0-1.211-.547,1.561,1.561,0,0,0-1.218.547,2.012,2.012,0,0,0-.482,1.383,2.035,2.035,0,0,0,.482,1.4A1.58,1.58,0,0,0-433.488,649.166Z" transform="translate(450.373 -642.104)" fill="#01545a"/><path d="M-429.252,648.428a1.448,1.448,0,0,1-.609,1.175,2.41,2.41,0,0,1-1.538.48,2.44,2.44,0,0,1-1.417-.421,2.3,2.3,0,0,1-.872-1.106l.893-.382a1.659,1.659,0,0,0,.573.748,1.384,1.384,0,0,0,.822.268,1.454,1.454,0,0,0,.8-.208.585.585,0,0,0,.323-.49c0-.344-.265-.592-.786-.753l-.915-.229q-1.562-.391-1.56-1.505a1.382,1.382,0,0,1,.595-1.17,2.48,2.48,0,0,1,1.519-.442,2.462,2.462,0,0,1,1.28.339,1.815,1.815,0,0,1,.8.9l-.893.37a1.113,1.113,0,0,0-.495-.528,1.558,1.558,0,0,0-.769-.191,1.306,1.306,0,0,0-.7.2.565.565,0,0,0-.311.48c0,.3.287.523.862.655l.805.208Q-429.252,647.215-429.252,648.428Z" transform="translate(453.788 -642.104)" fill="#01545a"/></g></g></svg>