<svg xmlns="http://www.w3.org/2000/svg" width="205.031" height="205.032" viewBox="0 0 205.031 205.032"><g transform="matrix(0.914, -0.407, 0.407, 0.914, -352.372, -586.568)"><g transform="translate(68.053 747.817)"><path d="M65.931,789.573l1.355.008.012-3.5-1.355-.008Z" transform="translate(-63.476 -720.669)" fill="#fcfefe"/><path d="M65.571,776.864l2.925.671L67.6,781.4l-2.922-.67-.333,1.437,7.917,1.826.327-1.443-3.625-.838.888-3.855,3.628.837.33-1.432L65.9,775.429Z" transform="translate(-64.349 -726.543)" fill="#fcfefe"/><path d="M66.787,771.941l6.04,6.749.6-1.477-1.516-1.7,1.459-3.6,2.277-.185.611-1.491-9.044.675Zm5.013.074-.939,2.317-1.872-2.1Z" transform="translate(-63.004 -729.411)" fill="#fcfefe"/><path d="M77.444,765.241l-1.37.56.158.264a2.715,2.715,0,0,1,.064,2.97,2.618,2.618,0,0,1-2.256,1.305,3.073,3.073,0,0,1-1.566-.459,2.7,2.7,0,0,1-1.03-3.782,2.542,2.542,0,0,1,2.318-1.3l.3.02-.109-1.508h-.258a4.1,4.1,0,0,0-3.456,2.053,4.168,4.168,0,0,0-.531,3.175,4.3,4.3,0,0,0,1.99,2.615,4.474,4.474,0,0,0,2.294.667,4.271,4.271,0,0,0,3.558-6.392Z" transform="translate(-61.455 -733.23)" fill="#fcfefe"/><rect width="1.48" height="8.215" transform="matrix(0.616, -0.788, 0.788, 0.616, 12.864, 26.35)" fill="#fcfefe"/><path d="M80.673,763.563,79.085,762l2.14-2.173-1-.977-2.128,2.17-1.225-1.193,3.528-3.6-1-.974L74.841,759.9l5.8,5.7,4.78-4.863-.994-.985Z" transform="translate(-58.559 -737.675)" fill="#fcfefe"/><path d="M83.879,752l3.116,4.224-6.674-1.488-.115-.024-.7.521,4.819,6.542,1.188-.87L82.4,756.665l6.8,1.513.685-.508-4.822-6.539Z" transform="translate(-55.985 -739.953)" fill="#fcfefe"/><path d="M90.6,748.347a4.736,4.736,0,0,0-2.151.549L85.3,750.5l3.711,7.236,3.136-1.611c2.3-1.175,3.062-3.341,1.94-5.526A3.847,3.847,0,0,0,90.6,748.347Zm-.916,7.479-2.427-4.747,1.834-.937a2.573,2.573,0,0,1,3.664,1.128,2.489,2.489,0,0,1-1.246,3.62Z" transform="translate(-52.786 -741.489)" fill="#fcfefe"/><path d="M93.8,746.287l-1.265,8.962,1.519-.5.321-2.256,3.7-1.2,1.6,1.623,1.543-.495-6.356-6.487Zm3.177,3.875-2.382.776.4-2.786Z" transform="translate(-48.791 -742.819)" fill="#fcfefe"/><path d="M109.9,746.176a2.3,2.3,0,0,0-2.764-2.229l-4.611.261.436,7.843.019.259,1.463-.079-.188-3.321,2.522-.138,2.01,3.082.085.13,1.639-.093-2.151-3.313A2.353,2.353,0,0,0,109.9,746.176Zm-2.589-.838a.945.945,0,0,1,1.082.948c.025.419-.07.987-1.125,1.047l-3.091.168-.109-1.98,3.119-.183Z" transform="translate(-43.282 -743.923)" fill="#fcfefe"/><path d="M108.917,752.03l6.789.656.136-1.393-5.325-.518.221-2.222,3.025.3.13-1.393-3.022-.29.161-1.706,5.016.5.136-1.4-6.474-.637Z" transform="translate(-39.753 -743.928)" fill="#fcfefe"/><path d="M119.172,746.531a4.582,4.582,0,0,1,2.55,1.775l.163.223,1.144-.976-.164-.2a6.454,6.454,0,0,0-3.358-2.2,4.731,4.731,0,0,0-1.158-.154,2.4,2.4,0,0,0-2.531,1.642,1.977,1.977,0,0,0,.746,2.058,8.03,8.03,0,0,0,2.463,1.11l.531.18c.913.313,1.364.857,1.209,1.442-.188.739-1.178,1.066-2.364.767a5.427,5.427,0,0,1-2.831-2l-.168-.22-1.139,1,.149.194a6.507,6.507,0,0,0,3.648,2.382,5.587,5.587,0,0,0,1.322.175,2.714,2.714,0,0,0,2.855-1.887c.324-1.291-.464-2.519-2.031-3.127-.366-.138-.722-.256-1.052-.357a3.735,3.735,0,0,1-1.733-.858.561.561,0,0,1-.14-.515C117.411,746.511,118.236,746.289,119.172,746.531Z" transform="translate(-36.802 -743.333)" fill="#fcfefe"/><path d="M124.77,747.178l-1.382-.532-2.87,7.406-.085.25,1.391.526,2.855-7.4Z" transform="translate(-33.398 -742.427)" fill="#fcfefe"/><path d="M132.206,752.117a4.3,4.3,0,0,0-2.191-2.486l-3.1-1.657-3.816,7.167,3.1,1.65a4.8,4.8,0,0,0,2.258.615,3.809,3.809,0,0,0,3.389-2.174A4.054,4.054,0,0,0,132.206,752.117Zm-2.849-1.259a2.554,2.554,0,0,1,1.179,3.659,2.478,2.478,0,0,1-2.191,1.457,3.23,3.23,0,0,1-1.494-.41l-1.809-.967,2.506-4.7Z" transform="translate(-31.929 -741.695)" fill="#fcfefe"/><path d="M134.47,757.919l.842-1.116-2.428-1.837,1.034-1.364,4.016,3.049.84-1.111-5.18-3.943-4.759,6.279-.155.2L134.1,762.2l.855-1.115-4.265-3.231,1.352-1.77Z" transform="translate(-28.846 -739.695)" fill="#fcfefe"/><path d="M142.744,759.579l-3.8,3.637.624-6.818.015-.123-.612-.624-5.883,5.625,1.024,1.064,3.8-3.636-.633,6.946.594.623,5.886-5.635Z" transform="translate(-26.414 -737.458)" fill="#fcfefe"/><path d="M142.721,770.083l.222-.028.057-1.471-.3.034a2.747,2.747,0,0,1-2.747-1.173,2.634,2.634,0,0,1-.445-1.993,2.872,2.872,0,0,1,1.255-1.833,2.984,2.984,0,0,1,1.7-.559,2.626,2.626,0,0,1,2.171,1.178,2.538,2.538,0,0,1,.223,2.652l-.14.265,1.425.508.1-.225a4.284,4.284,0,0,0-3.841-5.86,4.428,4.428,0,0,0-2.481.8,4.228,4.228,0,0,0,2.287,7.727C142.377,770.108,142.549,770.1,142.721,770.083Z" transform="translate(-23.697 -734.186)" fill="#fcfefe"/><path d="M147.911,766.693l-7.271,3.816.694,1.314,7.262-3.816Z" transform="translate(-22.246 -731.364)" fill="#fcfefe"/><path d="M150.671,771.678l-9.013-.8.573,1.491,2.27.2,1.39,3.617-1.536,1.693.57,1.51,6.138-6.676Zm-1.813,1.288-1.9,2.079-.9-2.337Z" transform="translate(-21.684 -729.055)" fill="#fcfefe"/><path d="M152.221,777.609l-.324-1.432-7.932,1.787,1.422,6.274,1.361-.3-1.1-4.857Z" transform="translate(-20.411 -726.13)" fill="#fcfefe"/><path d="M147.417,785.754l.036,3.508,1.352-.011-.037-3.505Z" transform="translate(-18.506 -720.849)" fill="#fcfefe"/></g><g transform="translate(97.942 792.364)"><path d="M100.258,796.082a1.664,1.664,0,0,0-1.788,1.676,1.472,1.472,0,0,0,1.406,1.525,6.564,6.564,0,0,1-5.868,3.555c-4.541-.075-7.435-3.392-7.435-8.661s2.894-8.582,7.435-8.656a6.563,6.563,0,0,1,5.868,3.555A1.469,1.469,0,0,0,98.47,790.6a1.663,1.663,0,0,0,1.788,1.676,1.859,1.859,0,0,0,1.913-1.994c0-1.833-1.813-4.788-5.438-5.9a6.124,6.124,0,0,0-.63-.182A9.779,9.779,0,0,0,94,783.945c-.051,0-.1-.017-.154-.017h-.053a10.254,10.254,0,0,0-.009,20.507h.062c.048,0,.084-.022.135-.022a9.841,9.841,0,0,0,2.193-.282,4.7,4.7,0,0,0,.624-.177c3.577-1.114,5.377-4.052,5.377-5.878A1.857,1.857,0,0,0,100.258,796.082Z" transform="translate(-83.609 -766.4)" fill="#fcfefe"/><g transform="translate(52.567 17.528)"><path d="M127.332,803.789a9.931,9.931,0,1,1,9.842-9.932A9.768,9.768,0,0,1,127.332,803.789Zm0-1.535c4.223,0,6.976-3.4,6.976-8.4s-2.753-8.4-6.976-8.4-6.983,3.406-6.983,8.4S123.1,802.254,127.332,802.254Z" transform="translate(-117.482 -783.928)" fill="#fcfefe"/></g><path d="M135.65,795.252a2.455,2.455,0,0,1-2.693,2.235,5.255,5.255,0,0,1-3.543-1.642c-1.361-1.19-1.882-2.044-2.8-2.044a2.1,2.1,0,0,0-.518.087,1.133,1.133,0,0,1,.849,1.139,1.447,1.447,0,0,1-1.527,1.418,1.534,1.534,0,0,1-1.591-1.566c0-1.217,1.1-2.134,2.64-2.134,1.127,0,2.246.492,3.715,1.827,1.313,1.158,1.7,1.979,2.747,1.979a1.476,1.476,0,0,0,.776-.194,1.32,1.32,0,0,1-1.141-1.308,1.448,1.448,0,0,1,1.477-1.474A1.61,1.61,0,0,1,135.65,795.252Z" transform="translate(-61.414 -761.533)" fill="#fcfefe"/><g transform="translate(1.117)"><path d="M127.549,772.633l-14.8,27.045L97.3,772.633H84.329v3.27H89.5a1.833,1.833,0,0,1,2.033,2.033v9.91h3.807v-8.729l15.573,27.105h1.841l14.931-27.24v8.923h5.553v-9.969a1.838,1.838,0,0,1,2.038-2.033h5.168v-3.27Z" transform="translate(-84.329 -772.633)" fill="#fcfefe"/></g><path d="M133.232,777.936v33.922a1.833,1.833,0,0,0,2.038,2.025h5.168v3.273H121.126v-3.273h4.522a1.833,1.833,0,0,0,2.031-2.025V778.982l-14.931,27.24h-1.841L95.335,779.117v32.741a1.823,1.823,0,0,0,2.028,2.025h5.165v3.273h-18.2v-3.273H89.5a1.827,1.827,0,0,0,2.033-2.025V777.936A1.833,1.833,0,0,0,89.5,775.9H84.329v-3.27H97.3l15.449,27.045,14.8-27.045h12.888v3.27h-5.168A1.838,1.838,0,0,0,133.232,777.936Z" transform="translate(-83.212 -772.633)" fill="#fcfefe"/><path d="M136.239,800.409a2.46,2.46,0,1,1-2.458-2.466A2.455,2.455,0,0,1,136.239,800.409Z" transform="translate(-57.278 -758.665)" fill="#fcfefe"/></g><g transform="translate(80.174 759.417)"><path d="M127.269,861.623a55.11,55.11,0,1,1,55.11-55.112A55.172,55.172,0,0,1,127.269,861.623Zm0-107.607a52.5,52.5,0,1,0,52.5,52.5A52.556,52.556,0,0,0,127.269,754.016Z" transform="translate(-72.16 -751.403)" fill="#fcfefe"/></g><g transform="translate(57.638 736.881)"><path d="M135.283,892.176a77.647,77.647,0,1,1,77.648-77.65A77.738,77.738,0,0,1,135.283,892.176Zm0-151.378a73.729,73.729,0,1,0,73.73,73.728A73.813,73.813,0,0,0,135.283,740.8Z" transform="translate(-57.638 -736.881)" fill="#fcfefe"/></g><g transform="translate(60.866 824.98)"><rect width="22.405" height="1.456" fill="#fcfefe"/></g><g transform="translate(188.344 824.959)"><rect width="22.408" height="1.461" transform="translate(0)" fill="#fcfefe"/></g><g transform="translate(100.243 867.943)"><path d="M88.728,821.832a2.857,2.857,0,0,0-1.476-.439,2.135,2.135,0,0,0-2.061,2.775,2.751,2.751,0,0,0,1.257,1.5c.082.05.234.12.458.225l.1.54.011.061.94.56-.146-.962a.516.516,0,0,0,.1.006,2.126,2.126,0,0,0,1.893-1.041,2.075,2.075,0,0,0,.2-1.73A2.729,2.729,0,0,0,88.728,821.832Zm-1.968,3.037a1.458,1.458,0,0,1-.6-1.972,1.317,1.317,0,0,1,1.158-.649,1.961,1.961,0,0,1,.987.3,1.788,1.788,0,0,1,.867,1.065,1.269,1.269,0,0,1-.143.989,1.347,1.347,0,0,1-1.2.652.979.979,0,0,1-.164-.009l-.073-.453-.933-.551Z" transform="translate(-85.092 -821.303)" fill="#fcfefe"/><path d="M92.234,826.888c-.2.441-.38.534-.591.534a2.321,2.321,0,0,1-.868-.262c-.961-.438-1.024-.677-.76-1.268l1.1-2.446-.8-.363-1.173,2.592a1.387,1.387,0,0,0-.1,1.1c.158.43.6.79,1.38,1.142a3.379,3.379,0,0,0,1.318.357,1.289,1.289,0,0,0,1.224-.875l1.167-2.584-.8-.366Z" transform="translate(-82.951 -820.37)" fill="#fcfefe"/><path d="M93.985,824.651l-1.343,4.021,3.825,1.276.118.042.267-.793-3.107-1.038.315-.944,1.928.646.27-.794-1.937-.643.227-.694,2.828.944.121.042.267-.8-3.655-1.22Z" transform="translate(-80.925 -819.505)" fill="#fcfefe"/><path d="M100.177,826.382l-2.8-.619-.916,4.13.861.189.366-1.693,1.51.332.7,1.873.022.067.967.209-.725-1.99a1.246,1.246,0,0,0,1.148-.978,1.171,1.171,0,0,0-.185-.976A1.634,1.634,0,0,0,100.177,826.382ZM100,827.2c.512.113.449.411.427.5a.365.365,0,0,1-.4.32.646.646,0,0,1-.21-.031l-1.943-.43.174-.795Z" transform="translate(-78.818 -818.891)" fill="#fcfefe"/><path d="M101.059,826.545l-.515,4.075-.021.124,4,.5.124.021.109-.829-3.252-.409.124-.988,1.894.242.133.015.1-.832-2.022-.252.091-.726,2.955.371.124.012.109-.831-3.825-.483Z" transform="translate(-76.576 -818.46)" fill="#fcfefe"/><path d="M104.062,825.424l-1.031-.13-1.358,1.738.721.086Z" transform="translate(-75.941 -819.15)" fill="#fcfefe"/><path d="M104.111,827.718l1.676.115-.224,3.284,0,.13.876.059.227-3.413,1.676.112.045-.817-4.219-.283Z" transform="translate(-74.596 -818.261)" fill="#fcfefe"/><path d="M108.991,827.034l-2.048,4.3.954-.026.49-1.018,1.937-.05.54.995.964-.02-2.284-4.188Zm1.119,2.548-1.546.042.732-1.546Z" transform="translate(-73.032 -818.196)" fill="#fcfefe"/><path d="M115.189,827.785a1.242,1.242,0,0,0-1.555-1.052l-2.846.334.5,4.195.872-.11-.2-1.718,1.525-.178,1.269,1.533.043.051.973-.112-1.332-1.64A1.256,1.256,0,0,0,115.189,827.785Zm-.888.11c.006.1.042.41-.475.472l-1.974.231-.092-.809,1.968-.233C114.081,827.5,114.269,827.628,114.3,827.9Z" transform="translate(-70.911 -818.365)" fill="#fcfefe"/><path d="M117.573,825.953a3.742,3.742,0,0,0-.75.089,2.768,2.768,0,0,0-1.657,1.041,2.094,2.094,0,0,0-.334,1.709,2.212,2.212,0,0,0,2.27,1.681,3.375,3.375,0,0,0,.731-.084,2.707,2.707,0,0,0,1.737-1.161,2.1,2.1,0,0,0,.255-1.6A2.194,2.194,0,0,0,117.573,825.953Zm.068,3.619a2.288,2.288,0,0,1-.5.056,1.379,1.379,0,0,1-1.434-1.041,1.257,1.257,0,0,1,.168-.982,1.759,1.759,0,0,1,1.139-.751,2.151,2.151,0,0,1,.5-.057,1.393,1.393,0,0,1,1.437,1.034A1.483,1.483,0,0,1,117.641,829.572Z" transform="translate(-68.71 -818.786)" fill="#fcfefe"/><path d="M120.277,827.022a.348.348,0,0,0-.16.026.54.54,0,0,0-.313.722.532.532,0,0,0,.473.4,3.218,3.218,0,0,1-.115.7l-.031.107.428.2.051-.11a2.084,2.084,0,0,0,.29-1.48C120.78,827.228,120.547,827.022,120.277,827.022Z" transform="translate(-65.956 -818.196)" fill="#fcfefe"/><path d="M125.374,823.268l-.649.3-.494,2.666-2.34-1.378-.652.3,1.7,3.722.058.126.806-.37-1.064-2.331,2.091,1.259.433-2.407,1.009,2.211.055.12.8-.367-1.7-3.724Z" transform="translate(-65.143 -820.268)" fill="#fcfefe"/><path d="M128.6,821.615l.054-.28-.961.565-.3,1.872-1.731-.609-.061-.018-.94.555,2.589.92-.446,2.734.927-.55.318-1.913,1.776.621.048.017.946-.553-2.628-.935Z" transform="translate(-63.253 -821.335)" fill="#fcfefe"/><path d="M130.516,822.352a.512.512,0,0,0-.948.169.607.607,0,0,0,.109.424.533.533,0,0,0,.445.242.524.524,0,0,0,.3-.092A.515.515,0,0,0,130.516,822.352Z" transform="translate(-60.549 -820.912)" fill="#fcfefe"/></g><g transform="translate(70.138 825.437)"><path d="M68.3,793.945A64.027,64.027,0,0,0,90.12,830.076l-1.67,2.01a66.646,66.646,0,0,1-22.757-37.867" transform="translate(-65.693 -793.945)" fill="#fcfefe"/></g><g transform="translate(176.293 825.352)"><path d="M158.233,794.224a66.643,66.643,0,0,1-22.46,37.644l-1.676-2a64.094,64.094,0,0,0,21.542-35.979" transform="translate(-134.097 -793.89)" fill="#fcfefe"/></g></g></svg>