<svg xmlns="http://www.w3.org/2000/svg" width="94.421" height="37.941" viewBox="0 0 94.421 37.941"><g transform="translate(603.735 -759.973)"><g transform="translate(-603.735 759.973)"><path d="M-579.98,793.172c-7.459,0-13.29-.878-17.331-2.609a12.866,12.866,0,0,1-5.643-4.269,3.036,3.036,0,0,1-.781-2.089,3.209,3.209,0,0,1,3.244-3.244c.805,0,2.48,0,2.48-3.815v-.574c0-9.153,8.089-16.6,18.031-16.6s18.031,7.447,18.031,16.6S-570.038,793.172-579.98,793.172Zm0-31.482c-9,0-16.314,6.676-16.314,14.882v.574c0,2.268-.562,3.869-1.669,4.759a3.884,3.884,0,0,1-2.529.773,1.51,1.51,0,0,0-1.526,1.526,1.321,1.321,0,0,0,.322.921l.041.041.035.046c1.3,1.707,4.755,6.243,21.639,6.243,9,0,16.314-6.676,16.314-14.883S-570.985,761.69-579.98,761.69Z" transform="translate(603.735 -759.973)" fill="#01545a"/></g><g transform="translate(-577.118 771.326)"><path d="M-320.919,880.881a1.907,1.907,0,0,1-1.908,1.908,1.907,1.907,0,0,1-1.908-1.908,1.907,1.907,0,0,1,1.908-1.908,1.907,1.907,0,0,1,1.908,1.908Zm0,0" transform="translate(324.735 -878.973)" fill="#01545a"/></g><g transform="translate(-586.658 771.326)"><path d="M-420.919,880.881a1.907,1.907,0,0,1-1.908,1.908,1.907,1.907,0,0,1-1.908-1.908,1.907,1.907,0,0,1,1.908-1.908,1.907,1.907,0,0,1,1.908,1.908Zm0,0" transform="translate(424.735 -878.973)" fill="#01545a"/></g><g transform="translate(-586.673 777.512)"><path d="M-418.2,950.031a6.44,6.44,0,0,1-6.678-5.057,1.045,1.045,0,0,1,.764-1.144,1.046,1.046,0,0,1,1.144.764,4.52,4.52,0,0,0,4.77,3.529c4.1,0,4.77-3.339,4.77-3.529a.99.99,0,0,1,1.144-.764.947.947,0,0,1,.764,1.051,6.42,6.42,0,0,1-6.678,5.15Zm0,0" transform="translate(424.893 -943.815)" fill="#01545a"/></g><g transform="translate(-594.29 789.328)"><path d="M-500.442,1067.676a4.294,4.294,0,0,0-4.293,4.293,4.294,4.294,0,0,0,4.293,4.293,4.294,4.294,0,0,0,4.293-4.293A4.294,4.294,0,0,0-500.442,1067.676Zm0,5.724a1.432,1.432,0,0,1-1.431-1.431,1.431,1.431,0,0,1,1.431-1.431,1.431,1.431,0,0,1,1.431,1.431A1.431,1.431,0,0,1-500.442,1073.4Z" transform="translate(504.735 -1067.676)" fill="#01545a"/></g><g transform="translate(-579.026 789.328)"><path d="M-340.442,1067.676a4.294,4.294,0,0,0-4.293,4.293,4.294,4.294,0,0,0,4.293,4.293,4.294,4.294,0,0,0,4.293-4.293A4.294,4.294,0,0,0-340.442,1067.676Zm0,5.724a1.431,1.431,0,0,1-1.431-1.431,1.431,1.431,0,0,1,1.431-1.431,1.431,1.431,0,0,1,1.431,1.431A1.431,1.431,0,0,1-340.442,1073.4Z" transform="translate(344.735 -1067.676)" fill="#01545a"/></g><path d="M-115.13,883.229l-2.76-7.965a2.687,2.687,0,0,1-.148-.78,1.477,1.477,0,0,1,1.538-1.454,1.6,1.6,0,0,1,1.56,1.243l1.728,5.732,1.77-5.711a1.69,1.69,0,0,1,1.643-1.285h.19a1.691,1.691,0,0,1,1.644,1.285l1.791,5.732,1.77-5.773a1.568,1.568,0,0,1,1.538-1.222,1.457,1.457,0,0,1,1.5,1.475,2.822,2.822,0,0,1-.105.653l-2.844,8.07a1.835,1.835,0,0,1-1.77,1.433h-.106a1.764,1.764,0,0,1-1.728-1.37l-1.791-5.689-1.812,5.689a1.764,1.764,0,0,1-1.728,1.37h-.105a1.835,1.835,0,0,1-1.77-1.433" transform="translate(-439.361 -102.252)" fill="#01545a"/><path d="M60.717,880.669V880.1a4.968,4.968,0,0,0-2.044-.421c-1.37,0-2.213.548-2.213,1.559v.042c0,.864.716,1.37,1.749,1.37,1.5,0,2.508-.822,2.508-1.981m-7.354.737v-.042c0-2.466,1.875-3.6,4.552-3.6a8.021,8.021,0,0,1,2.76.464v-.19c0-1.328-.821-2.065-2.423-2.065a7.338,7.338,0,0,0-2.213.316,1.353,1.353,0,0,1-.464.084,1.3,1.3,0,0,1-1.327-1.307,1.327,1.327,0,0,1,.864-1.243,9.826,9.826,0,0,1,3.6-.59,5.214,5.214,0,0,1,3.814,1.264,4.921,4.921,0,0,1,1.222,3.6v5.142a1.538,1.538,0,0,1-1.559,1.538,1.434,1.434,0,0,1-1.538-1.327v-.021a4.343,4.343,0,0,1-3.413,1.433c-2.128,0-3.878-1.222-3.878-3.456" transform="translate(-594.41 -102.453)" fill="#01545a"/><path d="M167.558,884.567V884.5a2.1,2.1,0,0,1,.716-1.559l5.247-5.795h-4.467a1.3,1.3,0,0,1-1.307-1.285,1.313,1.313,0,0,1,1.307-1.306h7.017a1.384,1.384,0,0,1,1.559,1.285v.063a2.1,2.1,0,0,1-.716,1.559l-5.268,5.795h4.678a1.313,1.313,0,0,1,1.307,1.307,1.3,1.3,0,0,1-1.307,1.285h-7.206a1.384,1.384,0,0,1-1.559-1.285" transform="translate(-697.711 -103.654)" fill="#01545a"/><path d="M278.445,877.322a2.422,2.422,0,0,0-2.381-2.4,2.518,2.518,0,0,0-2.444,2.4Zm-2.065,6.785a5.649,5.649,0,0,1-5.9-5.837v-.042a5.623,5.623,0,0,1,5.584-5.879,5.339,5.339,0,0,1,5.437,5.436,1.461,1.461,0,0,1-1.5,1.538h-6.342a2.62,2.62,0,0,0,2.76,2.212,3.7,3.7,0,0,0,2.276-.758,1.2,1.2,0,0,1,.78-.253,1.224,1.224,0,0,1,1.243,1.264,1.256,1.256,0,0,1-.422.948,5.851,5.851,0,0,1-3.919,1.37" transform="translate(-790.814 -101.655)" fill="#01545a"/></g></svg>